<svg width="12" height="12" viewBox="0 0 12 12" fill="none" xmlns="http://www.w3.org/2000/svg">
<path d="M10.72 5.52508L6.12502 10.1201C5.5621 10.683 4.79861 10.9992 4.00252 10.9992C3.20643 10.9992 2.44294 10.683 1.88002 10.1201C1.3171 9.55716 1.00085 8.79367 1.00085 7.99758C1.00085 7.20149 1.3171 6.438 1.88002 5.87508L6.16502 1.59008C6.5403 1.21413 7.04956 1.00267 7.58076 1.0022C8.11195 1.00173 8.62158 1.2123 8.99752 1.58758C9.37347 1.96286 9.58493 2.47211 9.5854 3.00331C9.58587 3.53451 9.3753 4.04413 9.00002 4.42008L4.70502 8.70508C4.51738 8.89272 4.26289 8.99813 3.99752 8.99813C3.73216 8.99813 3.47766 8.89272 3.29002 8.70508C3.10238 8.51744 2.99697 8.26294 2.99697 7.99758C2.99697 7.73221 3.10238 7.47772 3.29002 7.29008L7.53502 3.05008" stroke="white" stroke-linecap="round" stroke-linejoin="round"/>
</svg>
