<svg width="185" height="40" viewBox="0 0 185 40" fill="none" xmlns="http://www.w3.org/2000/svg">
    <g clip-path="url(#clip0_17_7)">
        <path
            d="M141.495 16.49H142.097C142.631 16.49 142.805 16.267 142.805 15.296V5.54C142.805 4.569 142.631 4.336 142.097 4.336H141.495V3.82H145.359V15.296C145.359 16.267 145.533 16.49 146.067 16.49H146.669V17.005H141.495V16.49ZM48.35 16.49H48.836C49.681 16.49 49.7 16.014 49.7 13.752V7.664C49.7 5.402 49.68 4.926 48.817 4.926H48.351V4.412H53.807V4.926H53.351C52.487 4.926 52.467 5.402 52.467 7.664V10.198H56.923V7.664C56.923 5.402 56.904 4.926 56.04 4.926H55.584V4.412H61.04V4.926H60.574C59.71 4.926 59.691 5.402 59.691 7.664V13.752C59.691 16.014 59.71 16.49 60.555 16.49H61.03V17.004H55.574V16.49H56.03C56.894 16.49 56.914 16.014 56.914 13.752V10.81H52.457V13.752C52.457 16.014 52.477 16.49 53.341 16.49H53.797V17.004H48.351V16.49H48.35ZM64.941 12.559C64.941 9.035 65.718 8.452 66.659 8.452C67.601 8.452 68.378 9.035 68.378 12.559C68.378 15.637 67.922 16.695 66.659 16.695C65.397 16.695 64.941 15.636 64.941 12.559ZM62.281 12.559C62.281 15.336 63.844 17.287 66.65 17.287C69.465 17.287 71.028 15.326 71.028 12.559C71.028 9.811 69.475 7.84 66.65 7.84C63.844 7.84 62.281 9.811 62.281 12.559ZM75.388 10.967C75.388 9.977 75.437 8.462 76.806 8.462C78.106 8.462 78.106 10.19 78.106 11.083C78.106 11.957 77.961 13.278 76.796 13.278C75.436 13.268 75.388 11.986 75.388 10.967ZM76.068 15.142C75.165 15.142 74.777 15.015 74.777 14.588C74.777 14.21 75.019 13.88 75.611 13.88C77.912 13.88 80.66 13.88 80.66 10.792C80.66 9.889 80.252 9.239 79.417 8.53C79.718 8.423 79.932 8.355 80.204 8.355C80.641 8.355 80.34 9.297 81.408 9.297C82.01 9.297 82.311 8.821 82.311 8.287C82.311 7.705 81.991 7.181 81.349 7.181C80.495 7.171 79.786 8.064 78.835 8.064C78.427 8.064 77.66 7.85 76.709 7.85C74.767 7.85 72.835 8.734 72.835 10.938C72.835 12.238 73.65 13.238 74.845 13.588V13.628V13.608C73.99 13.87 73.456 14.598 73.456 15.501C73.456 16.161 73.776 16.753 74.524 17.015V17.055C73.621 17.151 72.456 17.782 72.456 18.86C72.456 20.792 74.961 21.142 76.436 21.142C78.563 21.142 81.369 20.336 81.369 17.763C81.369 15.53 79.495 15.151 78.174 15.151H76.068V15.141V15.142ZM76.971 17.258C78.019 17.258 79.738 17.298 79.738 18.724C79.738 20.084 78.019 20.53 76.883 20.53C75.786 20.53 74.068 20.278 74.068 18.88C74.068 17.287 75.786 17.258 76.971 17.258ZM85.719 12.083C85.719 10.335 85.787 8.452 87.253 8.452C88.563 8.452 88.563 10.161 88.563 12.083H85.719ZM91.321 12.598C91.321 9.85 90.281 7.84 87.321 7.84C84.505 7.84 82.941 9.811 82.941 12.559C82.941 15.326 84.505 17.287 87.321 17.287C89.544 17.287 90.923 16.151 91.156 13.967L90.369 13.957C90.33 15.365 89.427 16.685 87.893 16.685C85.874 16.685 85.719 14.811 85.719 13.035V12.588H91.321V12.598ZM92.795 14.112H93.368C93.727 15.627 94.552 16.695 96.222 16.695C97.125 16.695 97.989 16.161 97.989 15.248C97.989 14.112 97.106 13.86 95.407 13.471C94.096 13.171 92.805 12.724 92.805 10.898C92.805 8.782 94.348 7.85 96.3 7.86C97.096 7.86 97.659 8.141 98.251 8.141C98.727 8.141 98.999 7.995 99.203 7.85H99.309V10.695H98.746C98.572 9.529 97.611 8.462 96.368 8.462C95.504 8.462 94.62 8.782 94.62 9.869C94.62 10.772 95.086 10.899 97.135 11.384C98.708 11.734 99.911 12.238 99.911 14.296C99.911 16.432 98.164 17.306 96.3 17.296C95.475 17.296 94.562 17.006 93.805 17.006C93.455 17.006 93.095 17.17 92.921 17.296H92.814V14.112H92.795ZM109.158 14.054C108.905 16.238 107.692 17.297 105.497 17.297C102.624 17.297 101.313 15.151 101.313 12.481C101.313 9.131 103.701 7.85 105.828 7.85C108.274 7.85 109.002 9.17 109.002 9.801C109.002 10.656 108.556 11.238 107.633 11.238C106.905 11.238 106.449 10.724 106.449 10.015C106.449 9.5 106.701 9.413 106.701 9.19C106.701 8.801 106.09 8.462 105.692 8.462C104.167 8.462 104.08 10.617 104.08 12.695C104.08 14.102 104.061 16.705 106.022 16.705C107.633 16.705 108.255 15.5 108.371 14.054H109.158ZM110.129 16.49H110.731C111.265 16.49 111.44 16.267 111.44 15.286V5.53C111.44 4.56 111.265 4.336 110.731 4.336H110.129V3.82H113.993V9.325H114.032C114.546 8.461 115.478 7.84 116.789 7.84C118.527 7.84 119.372 8.879 119.372 10.354V15.286C119.372 16.257 119.546 16.49 120.08 16.49H120.469V17.005H115.721V16.49H116.109C116.634 16.49 116.818 16.267 116.818 15.286V10.811C116.818 9.947 116.818 8.927 115.682 8.927C113.983 8.927 113.983 10.879 113.983 11.976V15.276C113.983 16.248 114.158 16.481 114.692 16.481H115.08V17.005H110.119V16.49H110.129ZM124.313 12.559C124.313 9.035 125.089 8.452 126.031 8.452C126.973 8.452 127.749 9.035 127.749 12.559C127.749 15.637 127.293 16.695 126.031 16.695C124.769 16.695 124.313 15.636 124.313 12.559ZM121.652 12.559C121.652 15.336 123.206 17.287 126.021 17.287C128.837 17.287 130.39 15.326 130.39 12.559C130.39 9.811 128.837 7.84 126.021 7.84C123.215 7.84 121.652 9.811 121.652 12.559ZM134.477 12.559C134.477 9.035 135.253 8.452 136.195 8.452C137.137 8.452 137.914 9.035 137.914 12.559C137.914 15.637 137.448 16.695 136.195 16.695C134.933 16.695 134.477 15.636 134.477 12.559ZM131.816 12.559C131.816 15.336 133.37 17.287 136.185 17.287C139.001 17.287 140.554 15.326 140.554 12.559C140.554 9.811 139.001 7.84 136.185 7.84C133.37 7.84 131.816 9.811 131.816 12.559ZM57.564 27.54C56.914 27.54 56.71 28.093 56.428 28.763L54.273 33.996C53.9985 34.6574 53.7555 35.3315 53.545 36.016H52.36C52.205 35.559 52.04 35.064 51.865 34.608L49.515 28.714C49.215 27.947 49.156 27.54 48.652 27.54H48.351V27.025H53.195V27.54H52.593C52.293 27.54 51.991 27.617 51.991 27.928C51.991 28.015 52.05 28.228 52.156 28.53L53.885 33.054H53.923L55.681 28.617C55.768 28.365 55.817 28.17 55.817 28.015C55.817 27.715 55.516 27.539 55.195 27.539H54.768V27.025H57.564V27.54ZM63.66 33.49C63.66 35.024 62.737 35.325 62.28 35.325C61.378 35.325 61.057 34.499 61.057 33.703C61.057 32.131 61.688 31.169 63.125 31.169C63.281 31.169 63.426 31.189 63.649 31.237V33.49H63.66ZM67.222 33.451C67.222 34.267 67.222 35.199 66.65 35.199C66.368 35.199 66.203 35.014 66.203 34.539V29.247C66.203 27.179 64.271 26.742 62.572 26.742C61.319 26.742 59.009 27.112 59.009 28.781C59.009 29.587 59.533 30.101 60.339 30.101C61.029 30.101 61.669 29.655 61.669 28.907C61.669 28.402 61.281 28.082 61.281 27.887C61.281 27.422 62.086 27.354 62.475 27.354C63.407 27.354 63.649 28.014 63.649 28.801V30.674C63.387 30.654 63.135 30.654 62.873 30.654C60.941 30.654 58.397 31.431 58.397 33.714C58.397 35.344 59.649 36.179 61.174 36.179C62.144 36.179 63.242 35.879 63.756 35.004C64.057 35.82 64.98 36.179 65.688 36.179C67.863 36.179 67.882 34.626 67.882 33.451H67.222ZM68.533 35.383H69.135C69.669 35.383 69.843 35.15 69.843 34.189V28.752C69.843 27.772 69.669 27.548 69.135 27.548H68.533V27.034H70.387C71.047 27.034 71.678 26.907 72.29 26.742V28.315H72.32C73.028 27.315 73.873 26.742 75.183 26.742C76.921 26.742 77.775 27.781 77.775 29.257V34.189C77.775 35.159 77.95 35.393 78.485 35.393H78.873V35.907H74.125V35.393H74.513C75.038 35.393 75.222 35.16 75.222 34.189V29.713C75.222 28.849 75.222 27.83 74.086 27.83C72.387 27.83 72.387 29.781 72.387 30.888V34.188C72.387 35.16 72.562 35.383 73.096 35.383H73.484V35.898H68.523V35.383H68.533ZM91.096 31.21H87.038L89.145 26.151L91.096 31.21ZM91.067 35.899H96.737V35.384H96.368C95.678 35.384 95.398 34.675 95.184 34.112L91.912 25.646C91.5907 24.8279 91.3182 23.9914 91.096 23.141H89.523C89.315 23.8555 89.0621 24.5562 88.766 25.239L85.31 33.529C84.727 34.928 84.387 35.384 83.484 35.384V35.899H87.31V35.384H86.834C86.232 35.364 85.873 35.122 85.873 34.637C85.873 34.2 86.086 33.559 86.339 32.957L86.814 31.821H91.349L91.805 33.015C92.125 33.831 92.407 34.53 92.407 34.86C92.407 35.374 91.873 35.374 91.077 35.384V35.899H91.067ZM96.902 35.383H97.504C98.038 35.383 98.213 35.15 98.213 34.189V28.752C98.213 27.772 98.038 27.548 97.504 27.548H96.902V27.034H98.766C99.426 27.034 100.058 26.907 100.669 26.742V28.315H100.708C101.417 27.315 102.262 26.742 103.572 26.742C104.776 26.742 105.669 27.179 106 28.315C106.757 27.218 107.485 26.742 108.951 26.742C110.689 26.742 111.543 27.781 111.543 29.257V34.189C111.543 35.159 111.718 35.393 112.252 35.393H112.64V35.907H107.893V35.393H108.281C108.815 35.393 108.99 35.16 108.99 34.189V29.713C108.99 28.849 108.99 27.83 107.854 27.83C106.155 27.83 106.155 29.781 106.155 30.878V34.179C106.155 35.15 106.33 35.383 106.864 35.383H107.252V35.898H102.504V35.383H102.893C103.427 35.383 103.601 35.15 103.601 34.179V29.703C103.601 28.839 103.601 27.82 102.465 27.82C100.766 27.82 100.766 29.771 100.766 30.878V34.179C100.766 35.15 100.941 35.373 101.475 35.373H101.864V35.888H96.902V35.383ZM113.68 33.004H114.253C114.612 34.519 115.437 35.587 117.107 35.587C118.01 35.587 118.874 35.053 118.874 34.14C118.874 33.004 117.991 32.752 116.292 32.364C114.981 32.063 113.69 31.616 113.69 29.791C113.69 27.674 115.234 26.742 117.185 26.751C117.981 26.751 118.544 27.033 119.137 27.033C119.612 27.033 119.874 26.888 120.098 26.743H120.205V29.587H119.632C119.457 28.422 118.496 27.354 117.253 27.354C116.389 27.354 115.505 27.674 115.505 28.762C115.505 29.664 115.962 29.791 118.02 30.276C119.593 30.626 120.797 31.131 120.797 33.189C120.797 35.325 119.049 36.199 117.185 36.189C116.36 36.189 115.447 35.907 114.69 35.907C114.331 35.907 113.981 36.072 113.806 36.199H113.7V33.004H113.68ZM127.534 27.54H125.68V33.258C125.68 34.326 125.68 35.102 126.495 35.102C127.165 35.102 127.272 34.442 127.292 33.831V33.258H127.962V33.646C127.962 35.413 127.262 36.19 125.651 36.19C123.826 36.19 123.127 35.073 123.127 33.87V27.54H121.884V27.025C123.641 26.918 124.758 25.219 125.146 23.627H125.68V27.025H127.534V27.539V27.54ZM131.855 30.985C131.855 29.238 131.923 27.354 133.389 27.354C134.7 27.354 134.7 29.063 134.7 30.985H131.855ZM137.467 31.49C137.467 28.733 136.418 26.733 133.457 26.733C130.641 26.733 129.078 28.703 129.078 31.451C129.078 34.218 130.641 36.179 133.457 36.179C135.68 36.179 137.059 35.043 137.292 32.859L136.505 32.849C136.467 34.257 135.564 35.577 134.03 35.577C132.01 35.577 131.855 33.704 131.855 31.927V31.48H137.467V31.49ZM142.42 34.189C142.42 35.159 142.595 35.383 143.129 35.383H143.944V35.898H138.556V35.383H139.158C139.692 35.383 139.866 35.16 139.866 34.189V28.752C139.866 27.772 139.692 27.548 139.158 27.548H138.556V27.034H140.42C141.07 27.034 141.711 26.907 142.313 26.742V28.762H142.381C142.769 27.859 143.565 26.878 144.75 26.878C145.585 26.878 146.517 27.238 146.517 28.373C146.517 29.208 145.973 29.645 145.031 29.645C144.604 29.645 143.857 29.432 143.857 28.509C143.857 28.179 143.857 28.082 143.643 28.082C143.148 28.082 142.4 29.237 142.4 31.131V34.189H142.42ZM150.214 31.21C150.214 30.355 150.214 27.618 151.554 27.618C153.234 27.618 153.37 30.074 153.37 31.278C153.37 32.453 153.35 35.317 151.564 35.317C150.214 35.317 150.214 32.084 150.214 31.21ZM153.525 35.9H157.243V35.385H156.68C156.224 35.385 155.972 35.229 155.972 34.161V22.715H152.166V23.229H152.709C153.379 23.229 153.418 23.549 153.418 24.414V28.19H153.379C152.836 27.2 152.001 26.744 150.874 26.744C148.292 26.744 147.438 29.22 147.438 31.491C147.438 33.647 148.36 36.191 150.836 36.191C152.069 36.191 153.078 35.753 153.486 34.618H153.515V35.899H153.525V35.9ZM163.518 33.49C163.518 35.024 162.605 35.325 162.139 35.325C161.236 35.325 160.916 34.499 160.916 33.703C160.916 32.131 161.556 31.169 162.984 31.169C163.139 31.169 163.285 31.189 163.508 31.237V33.49H163.518ZM167.081 33.451C167.081 34.267 167.081 35.199 166.518 35.199C166.236 35.199 166.071 35.014 166.071 34.539V29.247C166.071 27.179 164.139 26.742 162.44 26.742C161.187 26.742 158.877 27.112 158.877 28.781C158.877 29.587 159.411 30.101 160.207 30.101C160.896 30.101 161.537 29.655 161.537 28.907C161.537 28.402 161.149 28.082 161.149 27.887C161.149 27.422 161.964 27.354 162.343 27.354C163.275 27.354 163.518 28.014 163.518 28.801V30.674C163.255 30.654 163.003 30.654 162.741 30.654C160.809 30.654 158.265 31.431 158.265 33.714C158.265 35.344 159.527 36.179 161.042 36.179C162.013 36.179 163.11 35.879 163.624 35.004C163.925 35.82 164.848 36.179 165.556 36.179C167.731 36.179 167.751 34.626 167.751 33.451H167.081ZM168.391 35.383H168.993C169.527 35.383 169.702 35.15 169.702 34.189V28.752C169.702 27.772 169.527 27.548 168.993 27.548H168.391V27.034H170.246C170.906 27.034 171.546 26.907 172.148 26.742V28.315H172.187C172.896 27.315 173.741 26.742 175.051 26.742C176.255 26.742 177.148 27.179 177.479 28.315C178.246 27.218 178.964 26.742 180.43 26.742C182.168 26.742 183.022 27.781 183.022 29.257V34.189C183.022 35.159 183.197 35.393 183.731 35.393H184.119V35.907H179.372V35.393H179.76C180.294 35.393 180.469 35.16 180.469 34.189V29.713C180.469 28.849 180.469 27.83 179.343 27.83C177.644 27.83 177.644 29.781 177.644 30.878V34.179C177.644 35.15 177.818 35.383 178.352 35.383H178.741V35.898H173.993V35.383H174.381C174.915 35.383 175.09 35.15 175.09 34.179V29.703C175.09 28.839 175.09 27.82 173.954 27.82C172.255 27.82 172.255 29.771 172.255 30.878V34.179C172.255 35.15 172.43 35.373 172.964 35.373H173.352V35.888H168.391V35.383ZM20.904 9.81C26.371 9.81 31.487 11.277 35.876 13.85L40.575 5.82C34.798 2.432 28.079 0.5 20.905 0.5C13.73 0.5 7.02002 2.432 1.24402 5.82L5.94202 13.85C10.4802 11.1948 15.6462 9.80009 20.904 9.81Z"
            fill="white" />
        <path
            d="M25.243 14.218C23.33 14.198 17.553 14.092 10.117 17.519C9.165 17.956 8.495 18.325 8.34 18.092C8.02 17.578 10.379 15.578 12.922 14.102C13.835 13.558 14.369 13.082 14.155 12.675C13.845 12.082 12.029 11.965 6.961 14.558C4.3701 16.0026 2.02133 17.8439 0 20.015L0.825 20.791C1.641 19.927 2.515 19.131 3.418 18.345C4.019 17.83 6.786 15.752 7.029 16.383C7.126 16.636 6.942 17.005 5.961 18.345C5.107 19.529 4.544 20.635 4.951 20.975C5.359 21.315 5.845 21.121 7.001 20.49C7.854 20.015 10.573 18.578 14.864 17.286C19.155 16.005 20.194 16.49 20.301 16.811C20.427 17.228 18.456 17.927 17.291 18.51C16.321 19.015 12.874 21.034 11.01 22.53C11.01 22.53 12.816 25.636 12.825 25.636C14.748 24.5 22.088 22.646 22.874 23.986C23.728 25.461 15.932 30.946 15.932 30.946L20.903 39.5C20.903 39.5 32.223 26.5 30.418 23.646C28.602 20.811 21.787 21.335 19.098 21.587C18.359 21.655 17.495 21.811 17.311 21.451C17.107 21.044 17.34 19.422 26.427 17.277C28.447 16.801 29.233 16.558 29.127 15.665C29.02 14.898 27.146 14.238 25.243 14.218Z"
            fill="white" />
    </g>
    <defs>
        <clipPath id="clip0_17_7">
            <rect width="185" height="39" fill="white" transform="translate(0 0.5)" />
        </clipPath>
    </defs>
</svg>