<svg id="Layer_1" data-name="Layer 1" xmlns="http://www.w3.org/2000/svg" viewBox="0 0 400.13 400.13"><defs><style>.cls-1{fill:#f25379;stroke:#f25379;stroke-miterlimit:5.33;stroke-width:0.13px;}.cls-2{fill:#fff;}</style></defs><title>image123</title><rect class="cls-1" x="0.07" y="0.07" width="400" height="400"/><path class="cls-2" d="M0,2.93c0,4.67,2,6.94,5.2,6,1.6-.4,2.8,0,2.8.67,0,1.07,6.67,1.2,21.07.67,11.46-.54,39.2-.94,61.6-1.07h40.66l.4,23.07c.27,12.66.67,23.2.8,23.33s3.07.8,6.4,1.2c5.6.8,6.4.53,11.34-4,4.4-3.87,6.4-4.8,10.8-4.8,10.13,0,17.6,9.73,17.6,23.07C178.67,88,162.53,98,151.07,88c-3.87-3.47-5.6-4-12-4H131.6l.93,24,.8,24h-44v-3.2c0-1.73,2.14-5.73,4.67-8.8,2.8-3.33,4.67-7.07,4.67-9.07,0-14.93-10.94-24.26-28.14-24.26-15.6,0-26.53,9.6-26.53,23.2,0,5.2.8,6.93,4.8,11.46,3.2,3.47,4.53,6.27,4.27,8.27-.4,3.07-.67,3.07-22,3.47l-21.74.26L9.07,90.4l-.4-43.07L8,90c-.67,46.4-1.73,42.8-3.47-12.67C4,62.27,3.47,48.8,3.33,47.33S2.8,37.2,2.53,28C1.6-10.53.4,104.93.13,247.6L0,400H400V0H259.33C135.2,0,118.67.27,118.67,2c0,1.2,1.2,2,3.33,2s3.33.8,3.33,2c0,1.73-5.6,2-42.93,1.73L39.33,7.6,64.67,6.53C106.8,4.8,108.4,4.53,82,4L56.67,3.6,78,2,99.33.4,49.73.27,0,0Zm391.73,68-.4,61.74H348.67l-.4-3.47c-.27-2.4,1.06-5.2,4.26-9.07,12.14-14.53-.4-33.33-22.26-33.46-16.54,0-27.6,9.33-27.6,23.2,0,5.2.8,6.93,4.8,11.46,3.2,3.47,4.53,6.27,4.26,8.27-.4,3.07-.53,3.07-21.73,3.07H268.67l-.4-23.47L268,85.6l-4.13-.8c-7.2-1.47-9.07-.93-14.4,3.87-6,5.46-11.74,6.13-18.4,2-6-3.6-8.8-9.74-8.94-19.34-.26-18.26,14.8-28.53,26.54-18.26,4.13,3.73,5.73,4.26,12,4.26H268v-48H392ZM264,32V53.33h-4.4a9.51,9.51,0,0,1-7.07-2.8C243.47,40.27,226.67,44.27,220,58c-2.4,5.07-2.8,7.87-2.4,15.87.8,16,8.93,25.06,22.53,25.33,5.34.13,6.94-.53,11.74-4.93,3.46-3.07,6.53-4.8,7.73-4.4a12.37,12.37,0,0,0,3.2.8c.67,0,1.2,9.33,1.2,21.33v21.33H216.4l-.93,4.14c-1.47,7.2-.94,9.06,3.86,14.4,11.07,12.26,1.2,28.13-17.46,28.13-13.2-.13-21.74-7.07-22.14-18-.13-3.73.8-5.73,4-9.07,3.74-3.86,4.27-5.33,4.27-12v-7.6H140V90.67h4c2.53,0,5.6,1.46,8.8,4.26,4.13,3.74,6,4.4,11.33,4.27,12.67-.13,21.07-9.6,22.27-24.67,1.2-16.8-8.53-29.33-23.2-29.46-4.8-.14-6.67.66-11.2,4.66-5.6,5.07-6.4,5.47-9.87,4.14-1.86-.67-2.13-3.87-2.13-22V10.67H264V32ZM86.67,96c4.4,3.2,8,9.73,8,14.8,0,1.6-1.74,4.93-4,7.33-4.67,5.47-6,9.6-4.8,15.87l.93,4.67h46.53v42.66H129.6a10.3,10.3,0,0,1-6.93-3.33c-10.94-11.73-30.94-3.33-34.67,14.67-2.27,10.93.13,21.06,6.53,27.46,8.54,8.67,21.07,9.6,27.6,2.4,3.47-3.86,6.67-5.33,9.07-4.4,1.87.67,2.13,4,2.13,22v21.2h-23.2c-22.93,0-23.2,0-24,2.94-1.73,6.93-.8,11.2,3.87,16.66,5.47,6.4,5.87,10.94,2,17.47-3.47,5.6-12,9.47-20.67,9.6-11.6,0-19.86-6.27-21.6-16.27-.66-4.26-.13-5.73,3.47-9.73,4.8-5.6,6.13-9.6,4.93-16l-.93-4.67H10.67V138.67h23.2c25.73,0,24.8.4,24.8-9.47,0-4.13-1.07-6.27-4.8-10.53-4.27-4.67-4.8-6-4.14-10.14,1.2-6.93,4.27-11.06,10.67-14C68,90.93,80.67,91.73,86.67,96Zm256.66-.8a19.08,19.08,0,0,1,8.27,13.33c.67,4,.13,5.47-3.47,9.47-4.66,5.33-5.86,8.93-5.2,15.47l.54,4.53,23.6.4,23.6.27V261.33l-23.6.27-23.74.4-.4,6.67c-.4,6,0,7.2,4.54,12.4,4.13,4.93,4.8,6.4,4.13,10.53-1.2,6.8-4.4,10.93-10.67,13.87-15.06,6.8-31.6,0-33.86-13.74-.67-4.26-.14-5.73,3.46-9.73,4.8-5.6,6.14-9.6,4.94-16l-.94-4.67H268V218.67h3.73a10.34,10.34,0,0,1,6.94,3.33c7.46,7.87,19.6,7.07,28.26-2.13,10-10.4,10-29.34,0-39.74-8.4-8.93-21.06-10-27.73-2.66-3.47,3.86-6.67,5.33-9.07,4.4-1.86-.67-2.13-4-2.13-22v-21.2h23.2c22.93,0,23.2,0,24-3.07,1.87-7.07.8-11.6-3.87-16.8-5.06-5.6-5.6-8.53-2.8-15.2,3.47-8.4,10.54-11.73,23.07-11.07,4.8.27,9.87,1.47,11.73,2.67Zm-159.6,46.93c.27,1.74-1.6,5.07-4.53,8.67-4.4,5.33-4.8,6.27-4.27,12.67,1.07,13.2,10.8,20.93,26.4,21.06,11.87.14,20.54-4.13,24.94-12.4,4.53-8.66,4.13-14.93-1.6-21.33-2.8-3.07-4.67-6.53-4.67-8.67v-3.46h44v23.2c0,25.6-.27,24.8,8.8,24.8,3.33,0,5.87-1.2,9.87-4.8,4.8-4.4,6-4.8,10.8-4.14,11.73,1.6,18.8,14.54,15.73,29.07-1.73,8.13-8.13,14.53-15.73,15.47-4.8.66-6,.26-10.8-4.14-4-3.6-6.54-4.8-9.87-4.8-9.07,0-8.8-.8-8.8,24.8v23.2H220v-3.2c0-1.73,2.13-5.73,4.67-8.8,5.73-6.8,6.13-12.8,1.6-21.46-8.8-16.67-39.2-16.94-48.54-.54-4.66,8.14-4.13,15.2,1.6,22,2.54,3.07,4.67,7.07,4.67,8.8v3.2H140v-23.2c0-25.6.27-24.8-8.93-24.8-3.6,0-6,1.2-9.87,4.67-6,5.33-10.27,5.87-17.2,2.27-13.2-7.2-13.2-33.34,0-40.54,6.8-3.6,10.93-3.06,17.33,2.27,3.87,3.33,6.94,4.67,10,4.67,8.94,0,8.67.8,8.67-24.8v-23.2l21.73.26c20.8.4,21.6.54,22,3.2Zm30.94,81.2c8.66,4.4,12.4,17.6,6.53,22.8a17.88,17.88,0,0,0-5.6,15.74l.8,4.8,18.13.13c10,0,20.67,0,23.87-.13l5.6-.27v21.33c0,18.27-.27,21.47-2.13,22.14-3.34,1.33-4,1.06-9.87-3.87-15.07-12.67-34.67.4-34.67,22.93.14,12.67,4.94,20.8,15.07,25.07,7.73,3.2,12,2.53,18.4-2.8,3.87-3.2,6.67-4.53,9.07-4.27l3.46.4.4,20.94.4,21.06H140V346.67h3.73a9.42,9.42,0,0,1,6.4,2.8c6.14,6.8,13.6,8.13,22.8,4,8-3.74,12.54-11.07,13.34-21.87,1.46-18.13-8-30.27-23.6-30.27-4.27,0-6.4.94-10.67,4.8-3.47,3.2-6.27,4.54-8.27,4.27-3.06-.4-3.06-.67-3.46-22.13L140,266.53l20.27.14c11.2.13,22,.13,23.86,0,3.07,0,3.6-.67,4.4-5.34.94-5.86-.93-10.93-5.73-15.2-4.27-3.86-3.87-12.93.93-18.13,6.94-7.73,20.8-9.87,30.94-4.67Zm-160,46.8c0,2.14-1.87,5.6-4.67,8.67-10.4,11.47-1.87,29.47,15.73,33.07,8.4,1.86,14,1.06,21.87-2.67s11.47-9.33,12.13-18.4c.4-7.07.27-7.73-4.26-12.53-2.94-2.94-4.8-6.27-4.8-8.27v-3.33h44v23.2c0,22.93,0,23.2,3.06,24,6.27,1.6,10.14.8,15.6-3.87,6.54-5.47,11.6-6,18.27-1.87,6.4,4,8.93,9.6,9.07,19.87s-3.47,17.2-10.54,20.53c-6.8,3.2-10.66,2.67-16.8-2.53-4.66-4-6.66-4.67-12.13-4.67h-6.53v48H12L11.73,328l-.4-61.33H54.67Zm256,.27a10.31,10.31,0,0,1-3.34,6.93,17.19,17.19,0,0,0-4.8,17.07c3.2,11.73,12.8,18.13,26.8,18s23.6-6.4,26.8-18c1.74-6.53.27-11.47-5.46-18-7.47-8.4-6.27-9.07,18.4-9.47l21.6-.26V389.33H268v-48h-7.33c-6.54,0-7.87.54-12.67,4.8s-6,4.8-10.13,4.14a24.53,24.53,0,0,1-8.14-2.94c-7.46-4.93-10.8-21.86-6-31.33,4.54-9.2,16.67-13.6,22.4-8.27,6.27,5.87,9.74,7.2,15.87,6.4l6-.93V266.67h42.67v3.73Z" transform="translate(0.07 0.07)"/><path class="cls-2" d="M8.64,122.64V7c0-3.86-6-3.87-6,0V65.27c0,3.86,6,3.86,6,0V7c0-3.86-6-3.87-6,0V122.64c0,3.86,6,3.87,6,0Z" transform="translate(0.07 0.07)"/><path class="cls-2" d="M6.25,35.73V5.05c0-3.86-6-3.86-6,0V135.58c0,3.86,6,3.87,6,0V5.05c0-3.86-6-3.86-6,0V35.73c0,3.87,6,3.87,6,0Z" transform="translate(0.07 0.07)"/><path class="cls-2" d="M.53,130.09v58.53c0,3.86,6,3.87,6,0V135.3c0-3.86-6-3.87-6,0v59.55c0,3.86,6,3.87,6,0V103c0-3.87-6-3.87-6,0v18.21c0,3.86,6,3.87,6,0V98.31c0-3.86-6-3.86-6,0v22.85c0,3.86,6,3.87,6,0V103c0-3.87-6-3.87-6,0v91.9c0,3.86,6,3.87,6,0V135.3c0-3.86-6-3.87-6,0v53.32c0,3.86,6,3.87,6,0V130.09c0-3.86-6-3.86-6,0Z" transform="translate(0.07 0.07)"/><path class="cls-2" d="M44.13,9.34H167.31c5.79,0,5.8-9,0-9H44.13c-5.8,0-5.81,9,0,9Z" transform="translate(0.07 0.07)"/></svg>