<svg width="25" height="23" viewBox="0 0 25 23" fill="none" xmlns="http://www.w3.org/2000/svg">
<path d="M24.0941 10.8415C24.6554 11.4507 24.6166 12.3996 24.0074 12.961L14.0792 22.1091C13.47 22.6705 12.521 22.6317 11.9597 22.0225C11.3983 21.4133 11.4371 20.4643 12.0464 19.9029L20.8714 11.7713L12.74 2.94656C12.1787 2.33734 12.2175 1.38838 12.8268 0.827009C13.436 0.265635 14.3849 0.304422 14.9463 0.913642L24.0941 10.8415ZM1.93813 12.4987C1.1104 12.4648 0.466834 11.7664 0.500695 10.9387C0.534557 10.1109 1.23302 9.46734 2.06076 9.50118L1.93813 12.4987ZM22.9297 13.3567L1.93813 12.4987L2.06076 9.50118L23.0523 10.3592L22.9297 13.3567Z" fill="white"/>
</svg>
