<svg width="16" height="22" viewBox="0 0 16 22" fill="none" xmlns="http://www.w3.org/2000/svg">
    <path
        d="M7.25481 15.2098C7.64533 15.6003 8.2785 15.6003 8.66902 15.2098L15.033 8.84583C15.4235 8.45531 15.4235 7.82214 15.033 7.43162C14.6425 7.04109 14.0093 7.04109 13.6188 7.43162L7.96191 13.0885L2.30506 7.43162C1.91454 7.04109 1.28137 7.04109 0.890846 7.43162C0.500322 7.82214 0.500322 8.45531 0.890846 8.84583L7.25481 15.2098ZM8.96191 1.1633C8.96191 0.611017 8.5142 0.163302 7.96191 0.163302C7.40963 0.163302 6.96191 0.611017 6.96191 1.1633L8.96191 1.1633ZM8.96191 14.5027L8.96191 1.1633L6.96191 1.1633L6.96191 14.5027L8.96191 14.5027Z"
        fill="white" />
    <path d="M1.64087 20.2505H14.345" stroke="white" stroke-width="2" stroke-linecap="round" />
    <path
        d="M2.64087 16.4392C2.64087 15.887 2.19315 15.4392 1.64087 15.4392C1.08858 15.4392 0.640869 15.887 0.640869 16.4392H2.64087ZM2.64087 20.2505V16.4392H0.640869L0.640869 20.2505H2.64087Z"
        fill="white" />
    <path
        d="M15.345 16.4392C15.345 15.887 14.8973 15.4392 14.345 15.4392C13.7927 15.4392 13.345 15.887 13.345 16.4392H15.345ZM15.345 20.2505V16.4392H13.345V20.2505H15.345Z"
        fill="white" />
</svg>