<svg width="15" height="19" viewBox="0 0 15 19" fill="none" xmlns="http://www.w3.org/2000/svg">
    <path
        d="M8.35066 0.855149C7.96014 0.464625 7.32697 0.464625 6.93645 0.855149L0.572487 7.21911C0.181962 7.60963 0.181962 8.2428 0.572487 8.63332C0.963011 9.02385 1.59618 9.02385 1.9867 8.63332L7.64355 2.97647L13.3004 8.63332C13.6909 9.02385 14.3241 9.02385 14.7146 8.63332C15.1051 8.2428 15.1051 7.60963 14.7146 7.21911L8.35066 0.855149ZM6.64355 13.8468C6.64355 14.3991 7.09127 14.8468 7.64355 14.8468C8.19584 14.8468 8.64355 14.3991 8.64355 13.8468L6.64355 13.8468ZM6.64355 1.56226L6.64355 13.8468L8.64355 13.8468L8.64355 1.56226L6.64355 1.56226Z"
        fill="white" />
    <path d="M1.69971 17.9417H13.5872" stroke="white" stroke-width="2" stroke-linecap="round" />
    <path
        d="M2.69971 14.4318C2.69971 13.8795 2.25199 13.4318 1.69971 13.4318C1.14742 13.4318 0.699707 13.8795 0.699707 14.4318H2.69971ZM2.69971 17.9417V14.4318H0.699707L0.699707 17.9417H2.69971Z"
        fill="white" />
    <path
        d="M14.5872 14.4318C14.5872 13.8795 14.1394 13.4318 13.5872 13.4318C13.0349 13.4318 12.5872 13.8795 12.5872 14.4318H14.5872ZM14.5872 17.9417V14.4318H12.5872V17.9417H14.5872Z"
        fill="white" />
</svg>