<?xml version="1.0" encoding="utf-8"?>
<!-- Generator: Adobe Illustrator 26.3.1, SVG Export Plug-In . SVG Version: 6.00 Build 0)  -->
<svg version="1.1" id="Laag_1" xmlns="http://www.w3.org/2000/svg" xmlns:xlink="http://www.w3.org/1999/xlink" x="0px" y="0px"
	 viewBox="0 0 173.1 202.4" style="enable-background:new 0 0 173.1 202.4;" xml:space="preserve">
<style type="text/css">
	.st0{clip-path:url(#SVGID_00000019661669186154049670000017839385487374009774_);}
	.st1{clip-path:url(#SVGID_00000088113515673722375310000011898888493401512576_);}
	.st2{fill:none;stroke:#090A0B;stroke-width:2.073;stroke-miterlimit:10;}
	.st3{clip-path:url(#SVGID_00000054237128804496219840000008527618827272293254_);}
	.st4{fill:none;stroke:#232322;stroke-width:2.073;stroke-miterlimit:10;}
	.st5{clip-path:url(#SVGID_00000040557223940226614790000014371762594166946959_);}
	.st6{fill:#090A0B;}
	.st7{fill:none;stroke:#020203;stroke-width:0.1344;stroke-miterlimit:10;}
</style>
<g>
	<g>
		<g>
			<defs>
				<rect id="SVGID_1_" x="11.2" y="5.2" width="853.1" height="197.2"/>
			</defs>
			<clipPath id="SVGID_00000020358910814838994580000011702841947513087645_">
				<use xlink:href="#SVGID_1_"  style="overflow:visible;"/>
			</clipPath>
			<g id="Group_2149" style="clip-path:url(#SVGID_00000020358910814838994580000011702841947513087645_);">
				<g id="Group_2107" transform="translate(0.804 11.93)">
					<g>
						<g>
							<defs>
								<rect id="SVGID_00000034085401160470772830000010346081459392199813_" x="11.5" y="7.4" width="152.5" height="171.7"/>
							</defs>
							<clipPath id="SVGID_00000097462323180979516200000001685418666639388317_">
								<use xlink:href="#SVGID_00000034085401160470772830000010346081459392199813_"  style="overflow:visible;"/>
							</clipPath>
							<g id="Group_2106" style="clip-path:url(#SVGID_00000097462323180979516200000001685418666639388317_);">
								<path id="Path_3615" class="st2" d="M12.9,177.6v-99h149.7v74H72.7v25H12.9z"/>
								<rect id="Rectangle_2009" x="12.9" y="78.7" class="st2" width="149.7" height="16.7"/>
								<rect id="Rectangle_2010" x="72.7" y="95.4" class="st2" width="89.9" height="57.3"/>
								<rect id="Rectangle_2011" x="12.9" y="95.4" class="st2" width="60.1" height="82.3"/>
							</g>
						</g>
					</g>
				</g>
				<rect id="Rectangle_2013" x="65" y="82.3" class="st2" width="45.8" height="8.5"/>
				<rect id="Rectangle_2014" x="87.5" y="73.8" class="st2" width="0.5" height="8.2"/>
				<g id="Group_2109" transform="translate(0.804 11.93)">
					<g>
						<g>
							<defs>
								<rect id="SVGID_00000115503534892297545800000004700610011212600992_" x="11.5" y="7.4" width="152.5" height="171.7"/>
							</defs>
							<clipPath id="SVGID_00000132050660392008629200000008298349618296605618_">
								<use xlink:href="#SVGID_00000115503534892297545800000004700610011212600992_"  style="overflow:visible;"/>
							</clipPath>
							<g id="Group_2108" style="clip-path:url(#SVGID_00000132050660392008629200000008298349618296605618_);">
								<path id="Path_3616" class="st4" d="M162.6,95.4"/>
								<rect id="Rectangle_2015" x="12.9" y="116.8" class="st2" width="60.1" height="60.1"/>
							</g>
						</g>
					</g>
				</g>
				<rect id="Rectangle_2017" x="34.8" y="116.6" class="st2" width="14.5" height="0.8"/>
				<rect id="Rectangle_2018" x="61.1" y="151.1" class="st2" width="0.8" height="14.5"/>
				<g id="Group_2111" transform="translate(0.804 11.93)">
					<g>
						<g>
							<defs>
								<rect id="SVGID_00000114788417347887225480000002521175855554761135_" x="11.5" y="7.4" width="152.5" height="171.7"/>
							</defs>
							<clipPath id="SVGID_00000099632603394958983260000015893160700842789292_">
								<use xlink:href="#SVGID_00000114788417347887225480000002521175855554761135_"  style="overflow:visible;"/>
							</clipPath>
							<g id="Group_2110" style="clip-path:url(#SVGID_00000099632603394958983260000015893160700842789292_);">
								<path id="Path_3617" class="st6" d="M24.4,144.7c1.1,0,2.2,1.1,2.2,2.2s-1.1,2.2-2.2,2.2c-1.1,0-2.2-1.1-2.2-2.2
									C22.2,145.6,23.3,144.7,24.4,144.7"/>
								<path id="Path_3618" class="st7" d="M24.4,144.7c1.1,0,2.2,1.1,2.2,2.2s-1.1,2.2-2.2,2.2c-1.1,0-2.2-1.1-2.2-2.2
									C22.2,145.6,23.3,144.7,24.4,144.7L24.4,144.7z"/>
								<path id="Path_3619" class="st6" d="M24.4,154.1c1.1,0,2.2,1.1,2.2,2.2s-1.1,2.2-2.2,2.2c-1.1,0-2.2-1.1-2.2-2.2
									S23.3,154.1,24.4,154.1"/>
								<path id="Path_3620" class="st7" d="M24.4,154.1c1.1,0,2.2,1.1,2.2,2.2s-1.1,2.2-2.2,2.2c-1.1,0-2.2-1.1-2.2-2.2
									S23.3,154.1,24.4,154.1L24.4,154.1z"/>
								<path id="Path_3621" class="st6" d="M24.4,125.8c1.1,0,2.2,1.1,2.2,2.2s-1.1,2.2-2.2,2.2c-1.1,0-2.2-1.1-2.2-2.2
									C22.2,126.9,23.3,125.8,24.4,125.8"/>
								<path id="Path_3622" class="st7" d="M24.4,125.8c1.1,0,2.2,1.1,2.2,2.2s-1.1,2.2-2.2,2.2c-1.1,0-2.2-1.1-2.2-2.2
									C22.2,126.9,23.3,125.8,24.4,125.8L24.4,125.8z"/>
								<path id="Path_3623" class="st6" d="M24.4,135.4c1.1,0,2.2,1.1,2.2,2.2s-1.1,2.2-2.2,2.2c-1.1,0-2.2-1.1-2.2-2.2
									C22.2,136.2,23.3,135.4,24.4,135.4"/>
								<path id="Path_3624" class="st7" d="M24.4,135.4c1.1,0,2.2,1.1,2.2,2.2s-1.1,2.2-2.2,2.2c-1.1,0-2.2-1.1-2.2-2.2
									C22.2,136.2,23.3,135.4,24.4,135.4L24.4,135.4z"/>
								<path id="Path_3625" class="st6" d="M24.4,163.7c1.1,0,2.2,1.1,2.2,2.2s-1.1,2.2-2.2,2.2c-1.1,0-2.2-1.1-2.2-2.2
									C22.2,164.5,23.3,163.7,24.4,163.7"/>
								<path id="Path_3626" class="st7" d="M24.4,163.7c1.1,0,2.2,1.1,2.2,2.2s-1.1,2.2-2.2,2.2c-1.1,0-2.2-1.1-2.2-2.2
									C22.2,164.5,23.3,163.7,24.4,163.7L24.4,163.7z"/>
								<path id="Path_3627" class="st6" d="M24.4,173c1.1,0,2.2,1.1,2.2,2.2s-1.1,2.2-2.2,2.2c-1.1,0-2.2-1.1-2.2-2.2
									C22.2,173.8,23.3,173,24.4,173"/>
								<path id="Path_3628" class="st7" d="M24.4,173c1.1,0,2.2,1.1,2.2,2.2s-1.1,2.2-2.2,2.2c-1.1,0-2.2-1.1-2.2-2.2
									C22.2,173.8,23.3,173,24.4,173L24.4,173z"/>
								<path id="Path_3629" class="st6" d="M15.1,144.7c1.1,0,2.2,0.8,2.2,2.2c0,1.1-0.8,2.2-2.2,2.2l0,0h-0.3
									c-1.1,0-2.2-0.8-2.2-2.2C12.6,145.8,13.7,144.7,15.1,144.7L15.1,144.7"/>
								<path id="Path_3630" class="st7" d="M15.1,144.7c1.1,0,2.2,0.8,2.2,2.2c0,1.1-0.8,2.2-2.2,2.2c0,0,0,0-0.3,0
									c-1.1,0-2.2-0.8-2.2-2.2S13.7,144.7,15.1,144.7L15.1,144.7z"/>
								<path id="Path_3631" class="st6" d="M15.1,154.1c1.1,0,2.2,0.8,2.2,2.2c0,1.1-0.8,2.2-2.2,2.2h-0.3c-1.1,0-2.2-0.8-2.2-2.2
									C12.6,155.2,13.7,154.1,15.1,154.1L15.1,154.1"/>
								<path id="Path_3632" class="st7" d="M15.1,154.1c1.1,0,2.2,0.8,2.2,2.2c0,1.1-0.8,2.2-2.2,2.2c0,0,0,0-0.3,0
									c-1.1,0-2.2-0.8-2.2-2.2C12.6,155.2,13.7,154.1,15.1,154.1L15.1,154.1z"/>
								<path id="Path_3633" class="st6" d="M15.1,125.8c1.1,0,2.2,0.8,2.2,2.2c0,1.1-0.8,2.2-2.2,2.2l0,0h-0.3
									c-1.1,0-2.2-0.8-2.2-2.2C12.6,126.9,13.7,125.8,15.1,125.8L15.1,125.8"/>
								<path id="Path_3634" class="st7" d="M15.1,125.8c1.1,0,2.2,0.8,2.2,2.2c0,1.1-0.8,2.2-2.2,2.2c0,0,0,0-0.3,0
									c-1.1,0-2.2-0.8-2.2-2.2C12.6,126.9,13.7,125.8,15.1,125.8L15.1,125.8z"/>
								<path id="Path_3635" class="st6" d="M15.1,135.4c1.1,0,2.2,0.8,2.2,2.2c0,1.1-0.8,2.2-2.2,2.2h-0.3c-1.1,0-2.2-0.8-2.2-2.2
									C12.6,136.2,13.7,135.4,15.1,135.4L15.1,135.4"/>
								<path id="Path_3636" class="st7" d="M15.1,135.4c1.1,0,2.2,0.8,2.2,2.2c0,1.1-0.8,2.2-2.2,2.2c0,0,0,0-0.3,0
									c-1.1,0-2.2-0.8-2.2-2.2C12.6,136.2,13.7,135.4,15.1,135.4L15.1,135.4z"/>
								<path id="Path_3637" class="st6" d="M15.1,163.7c1.1,0,2.2,0.8,2.2,2.2c0,1.1-0.8,2.2-2.2,2.2l0,0h-0.3
									c-1.1,0-2.2-0.8-2.2-2.2S13.7,163.7,15.1,163.7C14.8,163.7,15.1,163.7,15.1,163.7"/>
								<path id="Path_3638" class="st7" d="M15.1,163.7c1.1,0,2.2,0.8,2.2,2.2c0,1.1-0.8,2.2-2.2,2.2c0,0,0,0-0.3,0
									c-1.1,0-2.2-0.8-2.2-2.2S13.7,163.7,15.1,163.7L15.1,163.7z"/>
								<path id="Path_3639" class="st6" d="M15.1,173c1.1,0,2.2,0.8,2.2,2.2c0,1.1-0.8,2.2-2.2,2.2l0,0h-0.3
									c-1.1,0-2.2-0.8-2.2-2.2S13.7,173,15.1,173C14.8,173,15.1,173,15.1,173"/>
								<path id="Path_3640" class="st7" d="M15.1,173c1.1,0,2.2,0.8,2.2,2.2c0,1.1-0.8,2.2-2.2,2.2c0,0,0,0-0.3,0
									c-1.1,0-2.2-0.8-2.2-2.2S13.7,173,15.1,173C14.8,173,15.1,173,15.1,173z"/>
								<path id="Path_3641" class="st6" d="M15.1,116.5c1.1,0,2.2,0.8,2.2,2.2c0,1.1-0.8,2.2-2.2,2.2l0,0h-0.3
									c-1.1,0-2.2-0.8-2.2-2.2C12.6,117.6,13.7,116.5,15.1,116.5L15.1,116.5"/>
								<path id="Path_3642" class="st7" d="M15.1,116.5c1.1,0,2.2,0.8,2.2,2.2c0,1.1-0.8,2.2-2.2,2.2c0,0,0,0-0.3,0
									c-1.1,0-2.2-0.8-2.2-2.2C12.6,117.3,13.7,116.5,15.1,116.5L15.1,116.5z"/>
								<path id="Path_3643" class="st6" d="M33.7,144.7c1.1,0,2.2,1.1,2.2,2.2s-1.1,2.2-2.2,2.2s-2.2-1.1-2.2-2.2
									C31.5,145.6,32.6,144.7,33.7,144.7"/>
								<path id="Path_3644" class="st7" d="M33.7,144.7c1.1,0,2.2,1.1,2.2,2.2s-1.1,2.2-2.2,2.2s-2.2-1.1-2.2-2.2
									C31.5,145.6,32.6,144.7,33.7,144.7L33.7,144.7z"/>
								<path id="Path_3645" class="st6" d="M33.7,154.1c1.1,0,2.2,1.1,2.2,2.2s-1.1,2.2-2.2,2.2s-2.2-1.1-2.2-2.2
									C31.5,155.2,32.6,154.1,33.7,154.1"/>
								<path id="Path_3646" class="st7" d="M33.7,154.1c1.1,0,2.2,1.1,2.2,2.2s-1.1,2.2-2.2,2.2s-2.2-1.1-2.2-2.2
									C31.5,155.2,32.6,154.1,33.7,154.1L33.7,154.1z"/>
								<path id="Path_3647" class="st6" d="M33.7,135.4c1.1,0,2.2,1.1,2.2,2.2s-1.1,2.2-2.2,2.2s-2.2-1.1-2.2-2.2
									C31.5,136.2,32.6,135.4,33.7,135.4"/>
								<path id="Path_3648" class="st7" d="M33.7,135.4c1.1,0,2.2,1.1,2.2,2.2s-1.1,2.2-2.2,2.2s-2.2-1.1-2.2-2.2
									C31.5,136.2,32.6,135.4,33.7,135.4L33.7,135.4z"/>
								<path id="Path_3649" class="st6" d="M33.7,163.7c1.1,0,2.2,1.1,2.2,2.2s-1.1,2.2-2.2,2.2s-2.2-1.1-2.2-2.2
									C31.5,164.5,32.6,163.7,33.7,163.7"/>
								<path id="Path_3650" class="st7" d="M33.7,163.7c1.1,0,2.2,1.1,2.2,2.2s-1.1,2.2-2.2,2.2s-2.2-1.1-2.2-2.2
									C31.5,164.5,32.6,163.7,33.7,163.7L33.7,163.7z"/>
								<path id="Path_3651" class="st6" d="M33.7,173c1.1,0,2.2,1.1,2.2,2.2s-1.1,2.2-2.2,2.2s-2.2-1.1-2.2-2.2
									C31.5,173.8,32.6,173,33.7,173"/>
								<path id="Path_3652" class="st7" d="M33.7,173c1.1,0,2.2,1.1,2.2,2.2s-1.1,2.2-2.2,2.2s-2.2-1.1-2.2-2.2
									C31.5,173.8,32.6,173,33.7,173L33.7,173z"/>
								<path id="Path_3653" class="st2" d="M123.4,60.8H50.7c-1.4,0-2.7-1.1-2.7-2.7V11.5c0-1.4,1.1-2.7,2.7-2.7l0,0h72.7
									c1.4,0,2.7,1.1,2.7,2.7l0,0v46.6C126.1,59.5,125,60.8,123.4,60.8L123.4,60.8z"/>
								<path id="Path_3654" class="st6" d="M120.9,57.3H53.2c-1.4,0-2.5-1.1-2.5-2.5V14.2c0-1.4,1.1-2.5,2.5-2.5l0,0h67.7
									c1.4,0,2.5,1.1,2.5,2.5l0,0v40.3C123.4,56.2,122.3,57.3,120.9,57.3L120.9,57.3L120.9,57.3"/>
							</g>
						</g>
					</g>
				</g>
				<line class="st2" x1="163.4" y1="141" x2="163.4" y2="190.9"/>
			</g>
		</g>
	</g>
</g>
</svg>
