<?xml version="1.0" encoding="utf-8"?>
<!-- Generator: Adobe Illustrator 26.3.1, SVG Export Plug-In . SVG Version: 6.00 Build 0)  -->
<svg version="1.1" id="Laag_1" xmlns="http://www.w3.org/2000/svg" xmlns:xlink="http://www.w3.org/1999/xlink" x="0px" y="0px"
	 viewBox="0 0 134.8 135.5" style="enable-background:new 0 0 134.8 135.5;" xml:space="preserve">
<style type="text/css">
	.st0{clip-path:url(#SVGID_00000078735449102344910680000009135332164650760109_);fill:#1F1E1B;}
	.st1{fill:#1F1E1B;}
	.st2{fill:#191713;}
	.st3{clip-path:url(#SVGID_00000062192226405496806410000002846248755947515564_);fill:#191713;}
</style>
<g>
	<g>
		<defs>
			
				<rect id="SVGID_1_" x="66.5" y="46.9" transform="matrix(0.3206 -0.9472 0.9472 0.3206 -10.3909 158.1307)" width="77.2" height="78.8"/>
		</defs>
		<clipPath id="SVGID_00000145042732054666382630000010345419925806434970_">
			<use xlink:href="#SVGID_1_"  style="overflow:visible;"/>
		</clipPath>
		<path style="clip-path:url(#SVGID_00000145042732054666382630000010345419925806434970_);fill:#1F1E1B;" d="M77.1,52.2l1.2,2.6
			c1.3-1.4,3.8-3.6,7.5-5.4c3.9-1.9,7.3-2.7,9.2-3L93.9,44c-0.3-0.6-1.2-1-2.2-0.8c-1.6,0.2-4.1,0.7-7.2,2.2
			c-3.3,1.6-5.4,3.4-6.6,4.6C77.1,50.7,76.8,51.6,77.1,52.2L77.1,52.2z M120.5,126.7l1.3,2.7l5.7-2.8l-1.2-2.6l1.2-10.8l0,0
			c0,0,0-0.1,0-0.1c-1.3-0.1-5.2-0.3-9.5,1.8c-4.4,2.2-6.5,5.1-7.1,6.2c0.1,0.1,0.1,0.1,0.2,0.2L120.5,126.7L120.5,126.7z
			 M80.3,56.1c0.6,0.2,0.9,0.9,0.7,1.5c-0.1,0.4-0.5,0.7-0.9,0.8l1.2,2.4c0.3-0.3,0.7-0.4,1.1-0.2c0.6,0.2,0.9,0.9,0.7,1.5
			c-0.1,0.4-0.5,0.7-0.9,0.8l1.2,2.5c0.3-0.3,0.7-0.4,1.2-0.2c0.6,0.2,0.9,0.9,0.7,1.5c-0.1,0.4-0.5,0.7-0.9,0.8l1.2,2.5
			c0.3-0.3,0.8-0.4,1.2-0.3c0.6,0.2,0.9,0.9,0.7,1.5c-0.1,0.4-0.5,0.7-0.9,0.8l1.2,2.5c0.3-0.3,0.8-0.4,1.2-0.3
			c0.6,0.2,0.9,0.9,0.7,1.5c-0.1,0.4-0.5,0.7-0.9,0.8l1.2,2.5c0.3-0.3,0.8-0.4,1.2-0.3c0.6,0.2,0.9,0.9,0.7,1.5
			c-0.1,0.4-0.5,0.7-1,0.8l1.2,2.5c0.3-0.3,0.8-0.4,1.2-0.3c0.6,0.2,0.9,0.9,0.7,1.5c-0.2,0.4-0.5,0.7-1,0.8l1.2,2.5
			c0.3-0.3,0.8-0.5,1.2-0.3c0.6,0.2,0.9,0.9,0.7,1.5c-0.2,0.5-0.6,0.7-1,0.8l1.2,2.5c0.3-0.3,0.8-0.5,1.2-0.3
			c0.6,0.2,0.9,0.9,0.7,1.5c-0.2,0.5-0.6,0.8-1,0.8l1.2,2.5c0.3-0.3,0.8-0.5,1.3-0.3c0.6,0.2,0.9,0.9,0.7,1.5
			c-0.2,0.5-0.6,0.8-1,0.8l1.2,2.5c0.3-0.4,0.8-0.5,1.3-0.4c0.6,0.2,0.9,0.9,0.7,1.5c-0.2,0.5-0.6,0.8-1.1,0.8l1.3,2.6
			c0.3-0.4,0.8-0.5,1.3-0.4c0.6,0.2,0.9,0.9,0.7,1.5c-0.2,0.5-0.6,0.8-1.1,0.8l1.3,2.6c0.3-0.4,0.8-0.5,1.3-0.4
			c0.6,0.2,0.9,0.9,0.7,1.5c-0.2,0.5-0.6,0.8-1.1,0.8l1.3,2.6c0.3-0.4,0.8-0.6,1.3-0.4c0.6,0.2,0.9,0.9,0.7,1.5
			c-0.2,0.5-0.6,0.8-1.1,0.8l1.4,2.9c1.1-1.6,3.3-4.1,7.3-6.1c4-1.9,7.6-2.1,9.5-2L95.8,47.9c-1.6,0.2-5.2,0.9-9.2,2.9
			c-3.8,1.9-6.2,4.2-7.3,5.4C79.6,56.1,79.9,56,80.3,56.1L80.3,56.1z M76.7,48.7c1.3-1.3,3.6-3.2,7.1-4.9c3.2-1.6,6-2.1,7.7-2.3
			c1.8-0.2,3.2,0.5,3.9,1.8l33.6,68.6c0.2,0.5,0.3,1,0.3,1.6l-1.1,10.3l1.3,2.7c0.2,0.5,0,1.1-0.5,1.4l-0.5,0.2l2.3,4.8
			c0.2,0.5-0.1,1-0.6,1l-6.1-0.3c-0.2,0-0.5-0.2-0.6-0.4l-1-2.1l-0.4,0.2c-0.3,0.1-0.5,0.1-0.8,0c-0.2-0.1-0.5-0.3-0.6-0.5l-1.4-2.8
			l-9-5.2c-0.5-0.3-0.9-0.7-1.1-1.2L75.6,53C75,51.7,75.4,50,76.7,48.7L76.7,48.7z"/>
	</g>
	<path class="st1" d="M85.5,55.4c-0.2,0.6-0.9,0.9-1.5,0.7c-0.6-0.2-0.9-0.9-0.7-1.5c0.2-0.6,0.9-0.9,1.5-0.7
		C85.3,54.1,85.7,54.8,85.5,55.4L85.5,55.4z"/>
	<path class="st1" d="M86.9,58.4c0.6,0.2,0.9,0.9,0.7,1.5c-0.2,0.6-0.9,0.9-1.5,0.7c-0.6-0.2-0.9-0.9-0.7-1.5
		C85.7,58.5,86.3,58.2,86.9,58.4L86.9,58.4z"/>
	<path class="st1" d="M91.4,67.3c0.6,0.2,0.9,0.9,0.7,1.5c-0.2,0.6-0.9,0.9-1.5,0.7c-0.6-0.2-0.9-0.9-0.7-1.5
		C90.1,67.5,90.7,67.1,91.4,67.3L91.4,67.3z"/>
	<path class="st1" d="M89.2,62.9c0.6,0.2,0.9,0.9,0.7,1.5c-0.2,0.6-0.9,0.9-1.5,0.7c-0.6-0.2-0.9-0.9-0.7-1.5
		C87.9,63,88.5,62.7,89.2,62.9L89.2,62.9z"/>
	<path class="st1" d="M93.6,71.8c0.6,0.2,0.9,0.9,0.7,1.5c-0.2,0.6-0.9,0.9-1.5,0.7c-0.6-0.2-0.9-0.9-0.7-1.5
		C92.3,71.9,93,71.6,93.6,71.8L93.6,71.8z"/>
	<path class="st1" d="M95.8,76.3c0.6,0.2,0.9,0.9,0.7,1.5c-0.2,0.6-0.9,0.9-1.5,0.7c-0.6-0.2-0.9-0.9-0.7-1.5
		C94.5,76.4,95.2,76.1,95.8,76.3L95.8,76.3z"/>
	<path class="st1" d="M100.2,85.2c0.6,0.2,0.9,0.9,0.7,1.5c-0.2,0.6-0.9,0.9-1.5,0.7c-0.6-0.2-0.9-0.9-0.7-1.5
		C98.9,85.3,99.6,85,100.2,85.2L100.2,85.2z"/>
	<path class="st1" d="M98,80.7c0.6,0.2,0.9,0.9,0.7,1.5c-0.2,0.6-0.9,0.9-1.5,0.7c-0.6-0.2-0.9-0.9-0.7-1.5
		C96.7,80.9,97.4,80.5,98,80.7L98,80.7z"/>
	<path class="st1" d="M102.4,89.7c0.6,0.2,0.9,0.9,0.7,1.5c-0.2,0.6-0.9,0.9-1.5,0.7c-0.6-0.2-0.9-0.9-0.7-1.5
		C101.1,89.8,101.8,89.5,102.4,89.7L102.4,89.7z"/>
	<path class="st1" d="M104.6,94.2c0.6,0.2,0.9,0.9,0.7,1.5c-0.2,0.6-0.9,0.9-1.5,0.7c-0.6-0.2-0.9-0.9-0.7-1.5
		C103.3,94.3,104,93.9,104.6,94.2L104.6,94.2z"/>
	<path class="st1" d="M109,103.1c0.6,0.2,0.9,0.9,0.7,1.5c-0.2,0.6-0.9,0.9-1.5,0.7c-0.6-0.2-0.9-0.9-0.7-1.5
		C107.8,103.2,108.4,102.9,109,103.1L109,103.1z"/>
	<path class="st1" d="M106.8,98.6c0.6,0.2,0.9,0.9,0.7,1.5c-0.2,0.6-0.9,0.9-1.5,0.7c-0.6-0.2-0.9-0.9-0.7-1.5
		C105.5,98.7,106.2,98.4,106.8,98.6L106.8,98.6z"/>
	<path class="st1" d="M111.2,107.6c0.6,0.2,0.9,0.9,0.7,1.5s-0.9,0.9-1.5,0.7c-0.6-0.2-0.9-0.9-0.7-1.5S110.6,107.4,111.2,107.6
		L111.2,107.6z"/>
	<path class="st1" d="M113.5,112c0.6,0.2,0.9,0.9,0.7,1.5c-0.2,0.6-0.9,0.9-1.5,0.7c-0.6-0.2-0.9-0.9-0.7-1.5
		C112.2,112.2,112.8,111.8,113.5,112L113.5,112z"/>
</g>
<g>
	<path class="st2" d="M19.5,36.6c-1.1,0-1.9,0.9-1.9,1.9c0,1.1,0.9,1.9,1.9,1.9c1.1,0,1.9-0.9,1.9-1.9
		C21.5,37.4,20.6,36.6,19.5,36.6L19.5,36.6z"/>
	<path class="st2" d="M54.3,36.6c-1.1,0-1.9,0.9-1.9,1.9c0,1.1,0.9,1.9,1.9,1.9c1.1,0,1.9-0.9,1.9-1.9
		C56.2,37.4,55.4,36.6,54.3,36.6L54.3,36.6z"/>
	<path class="st2" d="M13.8,30.8c-1.1,0-1.9,0.9-1.9,1.9s0.9,1.9,1.9,1.9c1.1,0,1.9-0.9,1.9-1.9S14.8,30.8,13.8,30.8L13.8,30.8z"/>
	<path class="st2" d="M48.5,34.6c1.1,0,1.9-0.9,1.9-1.9s-0.9-1.9-1.9-1.9c-1.1,0-1.9,0.9-1.9,1.9S47.4,34.6,48.5,34.6L48.5,34.6z"/>
	<path class="st2" d="M13.8,42.3c-1.1,0-1.9,0.9-1.9,1.9c0,1.1,0.9,1.9,1.9,1.9c1.1,0,1.9-0.9,1.9-1.9
		C15.7,43.2,14.8,42.3,13.8,42.3L13.8,42.3z"/>
	<path class="st2" d="M25.3,42.3c-1.1,0-1.9,0.9-1.9,1.9c0,1.1,0.9,1.9,1.9,1.9c1.1,0,1.9-0.9,1.9-1.9
		C27.3,43.2,26.4,42.3,25.3,42.3L25.3,42.3z"/>
	<path class="st2" d="M48.5,46.2c1.1,0,1.9-0.9,1.9-1.9c0-1.1-0.9-1.9-1.9-1.9c-1.1,0-1.9,0.9-1.9,1.9
		C46.6,45.3,47.4,46.2,48.5,46.2L48.5,46.2z"/>
	<path class="st2" d="M60.1,42.3c-1.1,0-1.9,0.9-1.9,1.9c0,1.1,0.9,1.9,1.9,1.9c1.1,0,1.9-0.9,1.9-1.9C62,43.2,61.2,42.3,60.1,42.3
		L60.1,42.3z"/>
	<path class="st2" d="M19.5,48.1c-1.1,0-1.9,0.9-1.9,1.9c0,1.1,0.9,1.9,1.9,1.9c1.1,0,1.9-0.9,1.9-1.9C21.5,49,20.6,48.1,19.5,48.1
		L19.5,48.1z"/>
	<path class="st2" d="M31.1,52c1.1,0,1.9-0.9,1.9-1.9c0-1.1-0.9-1.9-1.9-1.9c-1.1,0-1.9,0.9-1.9,1.9C29.2,51.1,30.1,52,31.1,52
		L31.1,52z"/>
	<path class="st2" d="M54.3,48.1c-1.1,0-1.9,0.9-1.9,1.9c0,1.1,0.9,1.9,1.9,1.9c1.1,0,1.9-0.9,1.9-1.9C56.2,49,55.4,48.1,54.3,48.1
		L54.3,48.1z"/>
	<path class="st2" d="M65.9,48.1c-1.1,0-1.9,0.9-1.9,1.9c0,1.1,0.9,1.9,1.9,1.9s1.9-0.9,1.9-1.9C67.8,49,67,48.1,65.9,48.1
		L65.9,48.1z"/>
	<path class="st2" d="M31.1,63.6c1.1,0,1.9-0.9,1.9-1.9c0-1.1-0.9-1.9-1.9-1.9c-1.1,0-1.9,0.9-1.9,1.9
		C29.2,62.7,30.1,63.6,31.1,63.6L31.1,63.6z"/>
	<path class="st2" d="M42.7,63.6c1.1,0,1.9-0.9,1.9-1.9c0-1.1-0.9-1.9-1.9-1.9c-1.1,0-1.9,0.9-1.9,1.9
		C40.8,62.7,41.7,63.6,42.7,63.6L42.7,63.6z"/>
	<path class="st2" d="M65.9,59.7c-1.1,0-1.9,0.9-1.9,1.9c0,1.1,0.9,1.9,1.9,1.9s1.9-0.9,1.9-1.9C67.8,60.6,67,59.7,65.9,59.7
		L65.9,59.7z"/>
	<path class="st2" d="M25.3,53.9c-1.1,0-1.9,0.9-1.9,1.9c0,1.1,0.9,1.9,1.9,1.9c1.1,0,1.9-0.9,1.9-1.9
		C27.3,54.8,26.4,53.9,25.3,53.9L25.3,53.9z"/>
	<path class="st2" d="M36.9,57.8c1.1,0,1.9-0.9,1.9-1.9c0-1.1-0.9-1.9-1.9-1.9c-1.1,0-1.9,0.9-1.9,1.9C35,56.9,35.9,57.8,36.9,57.8
		L36.9,57.8z"/>
	<path class="st2" d="M60.1,53.9c-1.1,0-1.9,0.9-1.9,1.9c0,1.1,0.9,1.9,1.9,1.9c1.1,0,1.9-0.9,1.9-1.9C62,54.8,61.2,53.9,60.1,53.9
		L60.1,53.9z"/>
	<path class="st2" d="M69.8,55.9c0,1.1,0.9,1.9,1.9,1.9c1.1,0,1.9-0.9,1.9-1.9c0-1.1-0.9-1.9-1.9-1.9C70.6,53.9,69.8,54.8,69.8,55.9
		L69.8,55.9z"/>
	<path class="st2" d="M36.9,69.4c1.1,0,1.9-0.9,1.9-1.9c0-1.1-0.9-1.9-1.9-1.9c-1.1,0-1.9,0.9-1.9,1.9C35,68.5,35.9,69.4,36.9,69.4
		L36.9,69.4z"/>
	<path class="st2" d="M48.5,69.4c1.1,0,1.9-0.9,1.9-1.9c0-1.1-0.9-1.9-1.9-1.9c-1.1,0-1.9,0.9-1.9,1.9
		C46.6,68.5,47.4,69.4,48.5,69.4L48.5,69.4z"/>
	<path class="st2" d="M71.7,65.5c-1.1,0-1.9,0.9-1.9,1.9c0,1.1,0.9,1.9,1.9,1.9c1.1,0,1.9-0.9,1.9-1.9
		C73.6,66.4,72.7,65.5,71.7,65.5L71.7,65.5z"/>
	<path class="st2" d="M42.7,75.2c1.1,0,1.9-0.9,1.9-1.9c0-1.1-0.9-1.9-1.9-1.9c-1.1,0-1.9,0.9-1.9,1.9
		C40.8,74.3,41.7,75.2,42.7,75.2L42.7,75.2z"/>
	<path class="st2" d="M54.3,71.3c-1.1,0-1.9,0.9-1.9,1.9c0,1.1,0.9,1.9,1.9,1.9c1.1,0,1.9-0.9,1.9-1.9
		C56.2,72.2,55.4,71.3,54.3,71.3L54.3,71.3z"/>
	<path class="st2" d="M54.3,82.9c-1.1,0-1.9,0.9-1.9,1.9c0,1.1,0.9,1.9,1.9,1.9c1.1,0,1.9-0.9,1.9-1.9
		C56.2,83.8,55.4,82.9,54.3,82.9L54.3,82.9z"/>
	<path class="st2" d="M65.9,82.9c-1.1,0-1.9,0.9-1.9,1.9c0,1.1,0.9,1.9,1.9,1.9s1.9-0.9,1.9-1.9C67.8,83.8,67,82.9,65.9,82.9
		L65.9,82.9z"/>
	<path class="st2" d="M48.5,81c1.1,0,1.9-0.9,1.9-1.9c0-1.1-0.9-1.9-1.9-1.9c-1.1,0-1.9,0.9-1.9,1.9C46.6,80.1,47.4,81,48.5,81
		L48.5,81z"/>
	<path class="st2" d="M60.1,77.1c-1.1,0-1.9,0.9-1.9,1.9c0,1.1,0.9,1.9,1.9,1.9c1.1,0,1.9-0.9,1.9-1.9C62,78,61.2,77.1,60.1,77.1
		L60.1,77.1z"/>
	<path class="st2" d="M60.1,88.7c-1.1,0-1.9,0.9-1.9,1.9c0,1.1,0.9,1.9,1.9,1.9c1.1,0,1.9-0.9,1.9-1.9C62,89.6,61.2,88.7,60.1,88.7
		L60.1,88.7z"/>
	<path class="st2" d="M71.7,88.7c-1.1,0-1.9,0.9-1.9,1.9c0,1.1,0.9,1.9,1.9,1.9c1.1,0,1.9-0.9,1.9-1.9
		C73.6,89.6,72.7,88.7,71.7,88.7L71.7,88.7z"/>
	<path class="st2" d="M65.9,94.5c-1.1,0-1.9,0.9-1.9,1.9c0,1.1,0.9,1.9,1.9,1.9s1.9-0.9,1.9-1.9C67.8,95.3,67,94.5,65.9,94.5
		L65.9,94.5z"/>
	<g>
		<defs>
			<rect id="SVGID_00000020388159610351638050000010645533003110741947_" x="5.1" y="3.5" width="71.2" height="129.6"/>
		</defs>
		<clipPath id="SVGID_00000170962127731177531570000008678501384824338347_">
			<use xlink:href="#SVGID_00000020388159610351638050000010645533003110741947_"  style="overflow:visible;"/>
		</clipPath>
		<path style="clip-path:url(#SVGID_00000170962127731177531570000008678501384824338347_);fill:#191713;" d="M71.7,100.3
			c-1.1,0-1.9,0.9-1.9,1.9c0,1.1,0.9,1.9,1.9,1.9c1.1,0,1.9-0.9,1.9-1.9C73.6,101.1,72.7,100.3,71.7,100.3L71.7,100.3z"/>
		<path style="clip-path:url(#SVGID_00000170962127731177531570000008678501384824338347_);fill:#191713;" d="M73.6,123.7
			c0,3.6-3,6.6-6.6,6.6H14.5c-3.6,0-6.6-3-6.6-6.6V40.4c0,0,0.1,0,0.1,0c1.1,0,1.9-0.9,1.9-1.9c0-1.1-0.9-1.9-1.9-1.9
			c0,0-0.1,0-0.1,0v-7.7c0,0,0.1,0,0.1,0c1.1,0,1.9-0.9,1.9-1.9C9.9,25.8,9,25,8,25c0,0-0.1,0-0.1,0V12.8c0-3.6,3-6.6,6.6-6.6h10.9
			c0.9,0.2,1.5,0.9,1.5,1.8c0,1.3,1.1,2.4,2.4,2.4h22.9c1.3,0,2.4-1.1,2.4-2.4c0-0.9,0.7-1.7,1.5-1.8H67c3.6,0,6.6,3,6.6,6.6V123.7
			L73.6,123.7z M67,3.5H14.5c-5.1,0-9.3,4.2-9.3,9.3v110.9c0,5.1,4.2,9.3,9.3,9.3H67c5.1,0,9.3-4.2,9.3-9.3V12.8
			C76.4,7.7,72.2,3.5,67,3.5L67,3.5z"/>
	</g>
	<polygon class="st2" points="29.2,126.2 52.3,126.2 52.3,123.4 29.2,123.4 29.2,126.2 	"/>
</g>
</svg>
