<svg id="Layer_1" data-name="Layer 1" xmlns="http://www.w3.org/2000/svg" viewBox="0 0 226.83 242.52"><defs><style>.cls-1,.cls-7,.cls-8{fill:#cb2026;}.cls-2,.cls-9{opacity:0.7;}.cls-2,.cls-7{font-size:10px;}.cls-2,.cls-4,.cls-5,.cls-6{fill:#fff;}.cls-2,.cls-7,.cls-8{font-family:OpenSans, Open Sans;}.cls-3{fill:#2bace2;}.cls-3,.cls-6{opacity:0.5;}.cls-4{opacity:0.68;}.cls-5{opacity:0.8;}.cls-8{font-size:9px;}.cls-10{fill:none;stroke:#fff;stroke-linecap:round;stroke-linejoin:round;stroke-width:1px;stroke-dasharray:0 2.98;}</style></defs><path class="cls-1" d="M257.15,177.63A113.38,113.38,0,1,1,177,38.76,113.38,113.38,0,0,1,257.15,177.63Z" transform="translate(-34.22 -25.15)"/><text class="cls-2" transform="matrix(0.8, 0.6, -0.6, 0.8, 46.05, 209.08)">c</text><text class="cls-2" transform="translate(50.05 212.1) rotate(33.9)">o</text><text class="cls-2" transform="translate(55.27 215.6) rotate(30.54)">n</text><text class="cls-2" transform="translate(60.77 218.8) rotate(27.86)">t</text><text class="cls-2" transform="translate(64.05 220.56) rotate(25.35)">e</text><text class="cls-2" transform="translate(69.33 223.05) rotate(22.38)">x</text><text class="cls-2" transform="translate(74.36 225.09) rotate(19.99)">t</text><text class="cls-2" transform="matrix(0.95, 0.31, -0.31, 0.95, 77.83, 226.34)"> </text><text class="cls-2" transform="matrix(0.96, 0.29, -0.29, 0.96, 80.43, 227.21)">/</text><text class="cls-2" transform="translate(84.06 228.31) rotate(14.07)"> </text><text class="cls-2" transform="translate(86.67 229) rotate(12.98)">s</text><text class="cls-2" transform="translate(91.5 230.1) rotate(10.73)">t</text><text class="cls-2" transform="translate(95.15 230.79) rotate(8.65)">r</text><text class="cls-2" transform="translate(99.38 231.45) rotate(6.01)">a</text><text class="cls-2" transform="translate(105.12 232.02) rotate(3.5)">t</text><text class="cls-2" transform="translate(108.82 232.27) rotate(0.99)">e</text><text class="cls-2" transform="translate(114.7 232.36) rotate(-2.08)">g</text><text class="cls-2" transform="translate(120.35 232.12) rotate(-4.29)">i</text><text class="cls-2" transform="translate(123.04 231.95) rotate(-6.53)">e</text><text class="cls-2" transform="matrix(0.96, -0.27, 0.27, 0.96, 82.2, 24.97)">o</text><text class="cls-2" transform="translate(87.89 23.36) rotate(-12.45)">n</text><text class="cls-2" transform="translate(93.82 22.08) rotate(-9.81)">t</text><text class="cls-2" transform="matrix(0.99, -0.12, 0.12, 0.99, 97.21, 21.43)">w</text><text class="cls-2" transform="translate(104.81 20.57) rotate(-3.06)">e</text><text class="cls-2" transform="translate(110.34 20.29) rotate(-0.41)">r</text><text class="cls-2" transform="matrix(1, 0.04, -0.04, 1, 114.32, 20.23)">p</text><text class="cls-2" transform="matrix(1, 0.09, -0.09, 1, 120.36, 20.5)">v</text><text class="cls-2" transform="translate(125.25 20.97) rotate(7.87)">r</text><text class="cls-2" transform="translate(129.24 21.5) rotate(10.49)">a</text><text class="cls-2" transform="translate(134.61 22.49) rotate(13.47)">a</text><text class="cls-2" transform="matrix(0.96, 0.28, -0.28, 0.96, 139.93, 23.76)">g</text><text class="cls-2" transform="matrix(0.95, 0.32, -0.32, 0.95, 145.11, 25.32)"> </text><text class="cls-2" transform="matrix(0.94, 0.35, -0.35, 0.94, 147.52, 26.12)">/</text><text class="cls-2" transform="translate(150.92 27.38) rotate(21.95)"> </text><text class="cls-2" transform="matrix(0.91, 0.41, -0.41, 0.91, 153.27, 28.29)">p</text><text class="cls-2" transform="translate(158.77 30.8) rotate(27.1)">r</text><text class="cls-2" transform="translate(162.35 32.6) rotate(29.87)">o</text><text class="cls-2" transform="matrix(0.84, 0.55, -0.55, 0.84, 167.48, 35.54)">b</text><text class="cls-2" transform="matrix(0.81, 0.58, -0.58, 0.81, 172.54, 38.89)">l</text><text class="cls-2" transform="translate(174.56 40.3) rotate(37.78)">e</text><text class="cls-2" transform="translate(178.91 43.67) rotate(40.84)">e</text><text class="cls-2" transform="translate(183.12 47.21) rotate(44.9)">m</text><path class="cls-3" d="M114.67,163.34q-.63-.63-1.23-1.29Q114,162.71,114.67,163.34Z" transform="translate(-34.22 -25.15)"/><path class="cls-3" d="M114.67,163.34q-.63-.63-1.23-1.29Q114,162.71,114.67,163.34Z" transform="translate(-34.22 -25.15)"/><path class="cls-3" d="M167.05,122.34c.33.42.65.83,1,1.26C167.7,123.17,167.38,122.76,167.05,122.34Z" transform="translate(-34.22 -25.15)"/><path class="cls-3" d="M167.05,122.34c.33.42.65.83,1,1.26C167.7,123.17,167.38,122.76,167.05,122.34Z" transform="translate(-34.22 -25.15)"/><path class="cls-3" d="M161.86,116.79a51.19,51.19,0,0,1,4.9,5.2A51.19,51.19,0,0,0,161.86,116.79Z" transform="translate(-34.22 -25.15)"/><path class="cls-3" d="M161.86,116.79a51.19,51.19,0,0,1,4.9,5.2A51.19,51.19,0,0,0,161.86,116.79Z" transform="translate(-34.22 -25.15)"/><path class="cls-3" d="M154.23,110.94c.51.32,1,.66,1.52,1C155.25,111.6,154.74,111.26,154.23,110.94Z" transform="translate(-34.22 -25.15)"/><path class="cls-3" d="M154.23,110.94c.51.32,1,.66,1.52,1C155.25,111.6,154.74,111.26,154.23,110.94Z" transform="translate(-34.22 -25.15)"/><path class="cls-3" d="M155.92,112.05a50.75,50.75,0,0,1,5.74,4.55A50.75,50.75,0,0,0,155.92,112.05Z" transform="translate(-34.22 -25.15)"/><path class="cls-3" d="M155.92,112.05a50.75,50.75,0,0,1,5.74,4.55A50.75,50.75,0,0,0,155.92,112.05Z" transform="translate(-34.22 -25.15)"/><path class="cls-3" d="M116.19,164.83c-.41-.39-.82-.78-1.22-1.19C115.37,164.05,115.78,164.44,116.19,164.83Z" transform="translate(-34.22 -25.15)"/><path class="cls-3" d="M116.19,164.83c-.41-.39-.82-.78-1.22-1.19C115.37,164.05,115.78,164.44,116.19,164.83Z" transform="translate(-34.22 -25.15)"/><path class="cls-3" d="M173.85,133.38c.16.36.31.71.46,1.08C174.16,134.09,174,133.74,173.85,133.38Z" transform="translate(-34.22 -25.15)"/><path class="cls-3" d="M173.85,133.38c.16.36.31.71.46,1.08C174.16,134.09,174,133.74,173.85,133.38Z" transform="translate(-34.22 -25.15)"/><path class="cls-3" d="M170.23,126.75c.26.4.51.81.75,1.22C170.74,127.56,170.49,127.15,170.23,126.75Z" transform="translate(-34.22 -25.15)"/><path class="cls-3" d="M170.23,126.75c.26.4.51.81.75,1.22C170.74,127.56,170.49,127.15,170.23,126.75Z" transform="translate(-34.22 -25.15)"/><path class="cls-3" d="M174.72,135.43c.14.35.28.7.41,1C175,136.13,174.86,135.78,174.72,135.43Z" transform="translate(-34.22 -25.15)"/><path class="cls-3" d="M174.72,135.43c.14.35.28.7.41,1C175,136.13,174.86,135.78,174.72,135.43Z" transform="translate(-34.22 -25.15)"/><path class="cls-3" d="M171.36,128.6c.23.39.46.78.67,1.18C171.82,129.38,171.59,129,171.36,128.6Z" transform="translate(-34.22 -25.15)"/><path class="cls-3" d="M171.36,128.6c.23.39.46.78.67,1.18C171.82,129.38,171.59,129,171.36,128.6Z" transform="translate(-34.22 -25.15)"/><path class="cls-3" d="M172.42,130.5c.35.66.69,1.34,1,2C173.11,131.84,172.77,131.16,172.42,130.5Z" transform="translate(-34.22 -25.15)"/><path class="cls-3" d="M172.42,130.5c.35.66.69,1.34,1,2C173.11,131.84,172.77,131.16,172.42,130.5Z" transform="translate(-34.22 -25.15)"/><path class="cls-3" d="M128,173.13l-1.08-.57Z" transform="translate(-34.22 -25.15)"/><path class="cls-3" d="M128,173.13l-1.08-.57Z" transform="translate(-34.22 -25.15)"/><path class="cls-3" d="M130.35,174.23l-1.12-.52Z" transform="translate(-34.22 -25.15)"/><path class="cls-3" d="M130.35,174.23l-1.12-.52Z" transform="translate(-34.22 -25.15)"/><path class="cls-3" d="M133,175.33l-.86-.33Z" transform="translate(-34.22 -25.15)"/><path class="cls-3" d="M133,175.33l-.86-.33Z" transform="translate(-34.22 -25.15)"/><path class="cls-3" d="M135.34,176.14c-.31-.09-.61-.19-.91-.3C134.73,176,135,176.05,135.34,176.14Z" transform="translate(-34.22 -25.15)"/><path class="cls-3" d="M135.34,176.14c-.31-.09-.61-.19-.91-.3C134.73,176,135,176.05,135.34,176.14Z" transform="translate(-34.22 -25.15)"/><path class="cls-3" d="M117.82,166.29c-.43-.37-.86-.76-1.28-1.14C117,165.53,117.39,165.92,117.82,166.29Z" transform="translate(-34.22 -25.15)"/><path class="cls-3" d="M117.82,166.29c-.43-.37-.86-.76-1.28-1.14C117,165.53,117.39,165.92,117.82,166.29Z" transform="translate(-34.22 -25.15)"/><path class="cls-3" d="M140,177.44l-.77-.19Z" transform="translate(-34.22 -25.15)"/><path class="cls-3" d="M140,177.44l-.77-.19Z" transform="translate(-34.22 -25.15)"/><path class="cls-3" d="M137.66,176.84l-.9-.25Z" transform="translate(-34.22 -25.15)"/><path class="cls-3" d="M137.66,176.84l-.9-.25Z" transform="translate(-34.22 -25.15)"/><path class="cls-3" d="M124.11,170.91l-1.17-.75Z" transform="translate(-34.22 -25.15)"/><path class="cls-3" d="M124.11,170.91l-1.17-.75Z" transform="translate(-34.22 -25.15)"/><path class="cls-3" d="M122.35,169.76a49.5,49.5,0,0,1-4.31-3.29A49.5,49.5,0,0,0,122.35,169.76Z" transform="translate(-34.22 -25.15)"/><path class="cls-3" d="M122.35,169.76a49.5,49.5,0,0,1-4.31-3.29A49.5,49.5,0,0,0,122.35,169.76Z" transform="translate(-34.22 -25.15)"/><path class="cls-3" d="M175.53,137.59c.11.31.23.63.33.95C175.76,138.22,175.64,137.9,175.53,137.59Z" transform="translate(-34.22 -25.15)"/><path class="cls-3" d="M175.53,137.59c.11.31.23.63.33.95C175.76,138.22,175.64,137.9,175.53,137.59Z" transform="translate(-34.22 -25.15)"/><path class="cls-3" d="M126,172.05c-.38-.21-.75-.43-1.13-.66C125.28,171.62,125.65,171.84,126,172.05Z" transform="translate(-34.22 -25.15)"/><path class="cls-3" d="M126,172.05c-.38-.21-.75-.43-1.13-.66C125.28,171.62,125.65,171.84,126,172.05Z" transform="translate(-34.22 -25.15)"/><path class="cls-3" d="M178.09,160.51c0,.23-.05.47-.08.71C178,161,178.06,160.74,178.09,160.51Z" transform="translate(-34.22 -25.15)"/><path class="cls-3" d="M178.09,160.51c0,.23-.05.47-.08.71C178,161,178.06,160.74,178.09,160.51Z" transform="translate(-34.22 -25.15)"/><path class="cls-3" d="M178.25,150.26c0,.27.05.54.07.81C178.3,150.8,178.28,150.53,178.25,150.26Z" transform="translate(-34.22 -25.15)"/><path class="cls-3" d="M178.25,150.26c0,.27.05.54.07.81C178.3,150.8,178.28,150.53,178.25,150.26Z" transform="translate(-34.22 -25.15)"/><path class="cls-3" d="M178,148c0,.2.05.4.07.6C178.06,148.37,178,148.17,178,148Z" transform="translate(-34.22 -25.15)"/><path class="cls-3" d="M178,148c0,.2.05.4.07.6C178.06,148.37,178,148.17,178,148Z" transform="translate(-34.22 -25.15)"/><path class="cls-3" d="M177.53,145c.05.26.11.53.15.79C177.64,145.55,177.58,145.28,177.53,145Z" transform="translate(-34.22 -25.15)"/><path class="cls-3" d="M177.53,145c.05.26.11.53.15.79C177.64,145.55,177.58,145.28,177.53,145Z" transform="translate(-34.22 -25.15)"/><path class="cls-3" d="M178.4,152.68l0,.73Z" transform="translate(-34.22 -25.15)"/><path class="cls-3" d="M178.4,152.68l0,.73Z" transform="translate(-34.22 -25.15)"/><path class="cls-3" d="M178.32,158.05l-.06.74Z" transform="translate(-34.22 -25.15)"/><path class="cls-3" d="M178.32,158.05l-.06.74Z" transform="translate(-34.22 -25.15)"/><path class="cls-4" d="M154.23,110.94a51.51,51.51,0,0,0-51-2,51.51,51.51,0,0,0,10.25,53.16,51.55,51.55,0,0,1,40.8-51.11Z" transform="translate(-34.22 -25.15)"/><path class="cls-3" d="M170.13,126.6c-.61-.93-1.24-1.84-1.9-2.73C168.89,124.76,169.52,125.67,170.13,126.6Z" transform="translate(-34.22 -25.15)"/><path class="cls-3" d="M170.13,126.6c-.61-.93-1.24-1.84-1.9-2.73C168.89,124.76,169.52,125.67,170.13,126.6Z" transform="translate(-34.22 -25.15)"/><path class="cls-3" d="M178.43,155.7c0,.11,0,.21,0,.32C178.42,155.91,178.43,155.81,178.43,155.7Z" transform="translate(-34.22 -25.15)"/><path class="cls-3" d="M178.43,155.7c0,.11,0,.21,0,.32C178.42,155.91,178.43,155.81,178.43,155.7Z" transform="translate(-34.22 -25.15)"/><path class="cls-3" d="M177,142.69c.08.3.15.61.21.91C177.18,143.3,177.11,143,177,142.69Z" transform="translate(-34.22 -25.15)"/><path class="cls-3" d="M177,142.69c.08.3.15.61.21.91C177.18,143.3,177.11,143,177,142.69Z" transform="translate(-34.22 -25.15)"/><path class="cls-3" d="M176.46,140.49c.09.29.16.57.23.86C176.62,141.06,176.55,140.78,176.46,140.49Z" transform="translate(-34.22 -25.15)"/><path class="cls-3" d="M176.46,140.49c.09.29.16.57.23.86C176.62,141.06,176.55,140.78,176.46,140.49Z" transform="translate(-34.22 -25.15)"/><path class="cls-3" d="M127,172.56l-.93-.51Z" transform="translate(-34.22 -25.15)"/><path class="cls-3" d="M178.42,156c0,.67,0,1.35-.1,2C178.37,157.37,178.4,156.69,178.42,156Z" transform="translate(-34.22 -25.15)"/><path class="cls-3" d="M129.23,173.71l-1.19-.58Z" transform="translate(-34.22 -25.15)"/><path class="cls-3" d="M175.13,136.48c.14.37.27.74.4,1.11C175.4,137.22,175.27,136.85,175.13,136.48Z" transform="translate(-34.22 -25.15)"/><path class="cls-3" d="M124.9,171.39l-.79-.48Z" transform="translate(-34.22 -25.15)"/><path class="cls-3" d="M122.94,170.16l-.59-.4Z" transform="translate(-34.22 -25.15)"/><path class="cls-3" d="M178.26,158.79c0,.57-.1,1.14-.17,1.72C178.16,159.93,178.21,159.36,178.26,158.79Z" transform="translate(-34.22 -25.15)"/><path class="cls-3" d="M174.31,134.46c.14.32.28.64.41,1C174.59,135.1,174.45,134.78,174.31,134.46Z" transform="translate(-34.22 -25.15)"/><path class="cls-3" d="M139.24,177.25c-.53-.13-1.06-.26-1.58-.41C138.18,177,138.71,177.12,139.24,177.25Z" transform="translate(-34.22 -25.15)"/><path class="cls-3" d="M136.76,176.59c-.48-.14-.95-.29-1.42-.45C135.81,176.3,136.28,176.45,136.76,176.59Z" transform="translate(-34.22 -25.15)"/><path class="cls-3" d="M132.17,175c-.61-.24-1.22-.5-1.82-.77C131,174.5,131.56,174.76,132.17,175Z" transform="translate(-34.22 -25.15)"/><path class="cls-3" d="M142.42,177.92c-.81-.14-1.61-.31-2.41-.48C140.81,177.61,141.61,177.78,142.42,177.92Z" transform="translate(-34.22 -25.15)"/><path class="cls-3" d="M171,128c.13.21.26.42.38.63C171.24,128.39,171.11,128.18,171,128Z" transform="translate(-34.22 -25.15)"/><path class="cls-3" d="M178,161.22q-.15,1.18-.36,2.37Q177.86,162.41,178,161.22Z" transform="translate(-34.22 -25.15)"/><path class="cls-3" d="M178.43,153.41c0,.76,0,1.53,0,2.29C178.45,154.94,178.44,154.17,178.43,153.41Z" transform="translate(-34.22 -25.15)"/><path class="cls-3" d="M134.43,175.84c-.47-.16-.94-.34-1.4-.51C133.49,175.5,134,175.68,134.43,175.84Z" transform="translate(-34.22 -25.15)"/><path class="cls-3" d="M175.86,138.54q.33,1,.6,2Q176.19,139.51,175.86,138.54Z" transform="translate(-34.22 -25.15)"/><path class="cls-3" d="M155.75,111.94l.17.11Z" transform="translate(-34.22 -25.15)"/><path class="cls-3" d="M166.76,122c.09.12.19.23.29.35C167,122.22,166.85,122.11,166.76,122Z" transform="translate(-34.22 -25.15)"/><path class="cls-3" d="M177.68,145.81q.19,1.08.33,2.16Q177.88,146.89,177.68,145.81Z" transform="translate(-34.22 -25.15)"/><path class="cls-3" d="M172,129.78c.14.24.26.48.39.72C172.29,130.26,172.17,130,172,129.78Z" transform="translate(-34.22 -25.15)"/><path class="cls-3" d="M161.66,116.6l.2.19Z" transform="translate(-34.22 -25.15)"/><path class="cls-3" d="M168,123.6l.21.27Z" transform="translate(-34.22 -25.15)"/><path class="cls-3" d="M118,166.47l-.22-.18Z" transform="translate(-34.22 -25.15)"/><path class="cls-3" d="M170.13,126.6l.1.15Z" transform="translate(-34.22 -25.15)"/><polygon class="cls-3" points="120.01 85.79 120.01 85.79 120.01 85.79 120.01 85.79"/><path class="cls-3" d="M116.54,165.15l-.35-.32Z" transform="translate(-34.22 -25.15)"/><path class="cls-3" d="M178.08,148.57c.07.56.13,1.13.17,1.69C178.21,149.7,178.15,149.13,178.08,148.57Z" transform="translate(-34.22 -25.15)"/><path class="cls-3" d="M115,163.64c-.1-.09-.2-.2-.3-.3C114.77,163.44,114.87,163.55,115,163.64Z" transform="translate(-34.22 -25.15)"/><path class="cls-3" d="M173.43,132.52l.42.86Z" transform="translate(-34.22 -25.15)"/><path class="cls-3" d="M178.32,151.07c0,.54.06,1.07.08,1.61C178.38,152.14,178.35,151.61,178.32,151.07Z" transform="translate(-34.22 -25.15)"/><path class="cls-3" d="M177.24,143.6c.11.47.2.94.29,1.42C177.44,144.54,177.35,144.07,177.24,143.6Z" transform="translate(-34.22 -25.15)"/><polygon class="cls-3" points="79.22 136.9 79.22 136.9 79.22 136.9 79.22 136.9"/><path class="cls-3" d="M176.69,141.35c.12.44.24.89.34,1.34C176.93,142.24,176.81,141.79,176.69,141.35Z" transform="translate(-34.22 -25.15)"/><path class="cls-5" d="M178,161.22c0-.24.05-.48.08-.71.07-.58.12-1.15.17-1.72l.06-.74c.05-.68.08-1.36.1-2,0-.11,0-.21,0-.32,0-.76,0-1.53,0-2.29l0-.73c0-.54-.05-1.07-.08-1.61,0-.27,0-.54-.07-.81,0-.56-.1-1.13-.17-1.69,0-.2,0-.4-.07-.6q-.13-1.08-.33-2.16c0-.26-.1-.53-.15-.79-.09-.48-.18-1-.29-1.42-.06-.3-.13-.61-.21-.91s-.22-.9-.34-1.34c-.07-.29-.14-.57-.23-.86q-.27-1-.6-2c-.1-.32-.22-.64-.33-.95s-.26-.74-.4-1.11-.27-.7-.41-1-.27-.65-.41-1-.3-.72-.46-1.08l-.42-.86c-.32-.68-.66-1.36-1-2-.13-.24-.25-.48-.39-.72-.21-.4-.44-.79-.67-1.18-.12-.21-.25-.42-.38-.63-.24-.41-.49-.82-.75-1.22l-.1-.15c-.61-.93-1.24-1.84-1.9-2.73l-.21-.27c-.32-.43-.64-.84-1-1.26-.1-.12-.2-.23-.29-.35a51.19,51.19,0,0,0-4.9-5.2l-.2-.19a50.75,50.75,0,0,0-5.74-4.55l-.17-.11c-.5-.34-1-.68-1.52-1h0a51.55,51.55,0,0,0-40.8,51.11h0q.6.66,1.23,1.29c.1.1.2.21.3.3.4.41.81.8,1.22,1.19l.35.32c.42.38.85.77,1.28,1.14l.22.18a49.5,49.5,0,0,0,4.31,3.29l.59.4,1.17.75.79.48c.38.23.75.45,1.13.66l.93.51,1.08.57,1.19.58,1.12.52c.6.27,1.21.53,1.82.77l.86.33c.46.17.93.35,1.4.51.3.11.6.21.91.3.47.16.94.31,1.42.45l.9.25c.52.15,1.05.28,1.58.41l.77.19c.8.17,1.6.34,2.41.48a51.3,51.3,0,0,0,32.66-5,52.2,52.2,0,0,0,2.57-9.33Q177.86,162.41,178,161.22Z" transform="translate(-34.22 -25.15)"/><path class="cls-6" d="M202.9,126.47a51.54,51.54,0,0,0-99.72-17.58,51.51,51.51,0,0,1,51,2,51.51,51.51,0,0,1,48.67,15.53Z" transform="translate(-34.22 -25.15)"/><path class="cls-6" d="M202.9,126.47a52,52,0,0,1-.78,9.65,51.46,51.46,0,0,1-27,36.8,51.62,51.62,0,0,1-37.44,32.13,51.54,51.54,0,0,0,65.26-78.58Z" transform="translate(-34.22 -25.15)"/><path class="cls-4" d="M202.12,136.12a52,52,0,0,0,.78-9.65,51.51,51.51,0,0,0-48.67-15.53,51.54,51.54,0,0,1,23.42,52.65,52.2,52.2,0,0,1-2.57,9.33A51.46,51.46,0,0,0,202.12,136.12Z" transform="translate(-34.22 -25.15)"/><path class="cls-6" d="M113.43,162.05a51.51,51.51,0,0,1-10.25-53.16,51.54,51.54,0,0,0,34.46,96.16A51.63,51.63,0,0,1,113.43,162.05Z" transform="translate(-34.22 -25.15)"/><path class="cls-4" d="M175.08,172.92a51.53,51.53,0,0,1-61.65-10.87,51.63,51.63,0,0,0,24.21,43A51.62,51.62,0,0,0,175.08,172.92Z" transform="translate(-34.22 -25.15)"/><text class="cls-7" transform="translate(137.34 183.69) rotate(-10.58)">v</text><text class="cls-7" transform="translate(142.83 182.66) rotate(-17.9)">o</text><text class="cls-7" transform="translate(149.08 180.54) rotate(-24.68)">r</text><text class="cls-7" transform="translate(153.51 178.67) rotate(-33.66)">m</text><text class="cls-7" transform="translate(161.79 172.87) rotate(-43.62)">g</text><text class="cls-7" transform="translate(166.17 168.66) rotate(-50.98)">e</text><text class="cls-7" transform="matrix(0.53, -0.85, 0.85, 0.53, 170.01, 163.83)">v</text><text class="cls-7" transform="translate(172.81 159.22) rotate(-62.97)">i</text><text class="cls-7" transform="translate(174.25 156.56) rotate(-68.83)">n</text><text class="cls-7" transform="translate(176.63 150.22) rotate(-76.65)">g</text><text class="cls-8" transform="matrix(0.01, 1, -1, 0.01, 45.3, 128.52)">t</text><text class="cls-8" transform="translate(45.32 132.11) rotate(83.86)">e</text><text class="cls-8" transform="matrix(0.21, 0.98, -0.98, 0.21, 45.95, 137.56)">c</text><text class="cls-8" transform="translate(46.95 142.19) rotate(71.16)">h</text><text class="cls-8" transform="translate(48.94 147.91) rotate(63.84)">n</text><text class="cls-8" transform="matrix(0.53, 0.85, -0.85, 0.53, 51.63, 153.22)">i</text><text class="cls-8" transform="translate(52.95 155.43) rotate(53.98)">e</text><text class="cls-8" transform="matrix(0.68, 0.74, -0.74, 0.68, 56.21, 159.87)">k</text><text class="cls-7" transform="matrix(0.97, -0.26, 0.26, 0.97, 104.55, 61.24)"> </text><text class="cls-7" transform="matrix(0.98, -0.2, 0.2, 0.98, 106.95, 60.59)">i</text><text class="cls-7" transform="translate(109.24 60.01) rotate(-6.32)">n</text><text class="cls-7" transform="translate(115.17 59.42) rotate(-0.25)">t</text><text class="cls-7" transform="matrix(1, 0.1, -0.1, 1, 118.53, 59.34)">e</text><text class="cls-7" transform="translate(123.91 59.89) rotate(11.74)">r</text><text class="cls-7" transform="translate(127.76 60.64) rotate(17.96)">a</text><text class="cls-7" transform="matrix(0.91, 0.42, -0.42, 0.91, 132.83, 62.29)">c</text><text class="cls-7" transform="translate(137 64.22) rotate(29.83)">t</text><text class="cls-7" transform="matrix(0.83, 0.55, -0.55, 0.83, 139.96, 65.94)">i</text><text class="cls-7" transform="matrix(0.78, 0.63, -0.63, 0.78, 141.99, 67.2)">e</text><g class="cls-9"><path class="cls-10" d="M227,169.55a82.18,82.18,0,0,1-100.65,58.11C22.18,195.26,62.51,44.86,168.9,68.89A82.19,82.19,0,0,1,227,169.55Z" transform="translate(-34.22 -25.15)"/></g></svg>