<svg xmlns="http://www.w3.org/2000/svg" viewBox="0 0 1203.97 677.02">
  <defs>
    <style>
      .cls-1{fill:#f0ebf0}.cls-2{fill:#e0f5df}.cls-3{mix-blend-mode:multiply}.cls-5{font-family:OpenSans,&apos;Open Sans&apos;;font-size:21px}
    </style>
  </defs>
  <g style="isolation:isolate">
    <g id="Layer_1">
      <g class="cls-3">
        <circle class="cls-1" cx="338.19" cy="338.19" r="338.19"/>
      </g>
      <g class="cls-3">
        <circle class="cls-1" cx="338.26" cy="265.45" r="139.87"/>
      </g>
      <g class="cls-3">
        <circle class="cls-1" cx="421.06" cy="388.29" r="139.87"/>
      </g>
      <g class="cls-3">
        <circle class="cls-1" cx="253.26" cy="388.29" r="139.87"/>
      </g>
      <path d="M222.87 49.55c.42 1.78.28 3.28-.41 4.5-.69 1.22-1.83 2.02-3.45 2.42-1 .25-1.94.24-2.84-.02s-1.66-.77-2.3-1.51-1.11-1.69-1.41-2.84c-.46-1.77-.35-3.28.33-4.5s1.85-2.05 3.51-2.46c1.6-.39 3-.19 4.18.6 1.18.79 1.98 2.06 2.38 3.8Zm-8.63 2.1c.35 1.39.91 2.38 1.67 2.96s1.69.74 2.8.47 1.87-.84 2.27-1.71c.4-.87.44-2 .11-3.4-.33-1.39-.87-2.38-1.63-2.96-.76-.58-1.71-.73-2.86-.45-1.13.28-1.9.85-2.29 1.7s-.41 1.98-.06 3.39ZM234.83 52.65c-.6-2.85-.9-4.27-1.51-7.11-.19-.9-.54-1.52-1.06-1.87-.52-.35-1.23-.43-2.14-.23-1.2.26-2.01.77-2.43 1.51-.42.74-.47 1.83-.15 3.26.52 2.3.77 3.45 1.29 5.75-.68.15-1.02.23-1.7.38-1-4.38-1.5-6.57-2.5-10.96.57-.13.85-.19 1.41-.32.25.57.37.86.62 1.44.03 0 .05-.01.08-.02.23-.62.64-1.15 1.22-1.59.58-.44 1.26-.74 2.05-.92 1.39-.3 2.5-.2 3.33.29.83.49 1.39 1.44 1.69 2.85.6 2.87.9 4.31 1.49 7.18-.68.14-1.02.21-1.71.36ZM243.46 49.68c.3-.06.59-.14.86-.23.27-.1.49-.19.65-.26.1.51.15.77.24 1.28-.17.12-.43.25-.78.37-.35.13-.67.22-.96.27-2.18.42-3.5-.48-3.95-2.72-.53-2.62-.79-3.93-1.31-6.56-.66.13-.99.2-1.65.33-.07-.32-.1-.48-.16-.8.6-.41.9-.62 1.51-1.03.11-1 .16-1.5.27-2.5l1.02-.2c.2 1.02.3 1.53.5 2.56l3.35-.65.25 1.3c-1.34.25-2 .38-3.34.65.51 2.6.77 3.89 1.28 6.49.13.66.39 1.14.79 1.43.39.29.87.38 1.44.27ZM256.72 48.52a899.4 899.4 0 0 0-3.18-6.15c-.2-.38-.6-1.24-1.21-2.58-.03 0-.05 0-.08.01-.08 1.23-.17 2.18-.26 2.85-.42 2.74-.62 4.11-1.01 6.85-.79.14-1.19.21-1.98.36-2.04-4.2-3.07-6.29-5.16-10.47.73-.14 1.1-.21 1.83-.34 1.26 2.64 2.2 4.65 2.85 6.04.65 1.38 1.04 2.32 1.19 2.82.03 0 .05 0 .08-.01 0-.4.04-.92.1-1.55.06-.64.12-1.15.18-1.53.39-2.69.58-4.03.99-6.72.76-.13 1.14-.2 1.9-.33 1.26 2.4 1.88 3.61 3.12 6.02.58 1.1 1 2.03 1.27 2.79.03 0 .05 0 .08-.01-.01-.25 0-.63.04-1.16.04-.53.31-3.37.87-8.52.73-.12 1.09-.17 1.82-.29-.59 4.64-.88 6.96-1.41 11.6-.81.13-1.22.2-2.04.33ZM268.77 46.88c-1.68.24-3.07-.07-4.19-.93-1.12-.86-1.82-2.17-2.09-3.95-.27-1.79-.03-3.28.73-4.48.76-1.19 1.92-1.9 3.48-2.12 1.46-.21 2.67.09 3.64.9.97.8 1.55 1.96 1.75 3.46.06.43.08.64.14 1.07-3.17.42-4.75.64-7.91 1.11.23 1.3.71 2.24 1.46 2.82.74.58 1.69.79 2.85.63 1.23-.17 2.4-.59 3.54-1.25l.2 1.5c-.57.34-1.13.6-1.65.79-.53.19-1.17.33-1.94.44Zm-1.9-10.06c-.93.13-1.63.53-2.1 1.19-.47.66-.67 1.52-.62 2.56 2.4-.36 3.61-.53 6.02-.86-.14-1.06-.5-1.84-1.07-2.34-.57-.5-1.32-.68-2.23-.55ZM279.73 33.73c.52-.06.99-.07 1.41-.04-.03.64-.04.96-.07 1.6-.49-.05-.92-.05-1.29 0-.94.11-1.7.57-2.28 1.39-.58.81-.8 1.77-.66 2.86.29 2.39.44 3.59.74 5.98-.69.08-1.03.13-1.72.21-.56-4.46-.85-6.69-1.41-11.15.58-.07.87-.11 1.45-.18.18.82.27 1.22.46 2.04.03 0 .05 0 .08-.01.34-.78.79-1.4 1.35-1.87s1.21-.74 1.94-.83ZM289.86 44.36c-.74.07-1.43 0-2.07-.2-.64-.21-1.2-.56-1.67-1.08-.05 0-.08 0-.13.01.15.64.26 1.26.32 1.84l.48 4.6c-.68.07-1.03.11-1.71.18-.7-6.48-1.06-9.71-1.76-16.19l1.43-.15c.16.6.24.9.41 1.5h.08c.39-.66.87-1.16 1.44-1.49s1.25-.54 2.03-.62c1.55-.15 2.79.24 3.72 1.18.93.94 1.47 2.32 1.64 4.16.16 1.84-.13 3.3-.88 4.4-.75 1.09-1.86 1.71-3.34 1.86Zm-1.25-10.13c-1.19.12-2.02.52-2.48 1.21-.46.69-.63 1.72-.5 3.1.02.15.02.23.04.38.17 1.57.55 2.67 1.16 3.29.61.62 1.5.87 2.68.75.99-.1 1.72-.56 2.21-1.4.49-.84.67-1.94.54-3.32-.13-1.4-.51-2.44-1.15-3.13-.64-.69-1.48-.99-2.51-.89ZM300.09 43.26c-2.08-4.35-3.14-6.52-5.3-10.84.76-.07 1.14-.1 1.89-.16 1.22 2.57 1.83 3.86 3.03 6.44.68 1.51 1.08 2.49 1.22 2.95h.08c.05-.37.23-1.13.56-2.3.32-1.16 1.06-3.71 2.25-7.63.76-.05 1.14-.08 1.9-.13-1.48 4.6-2.2 6.9-3.61 11.51l-2.02.15ZM312.92 30.97c.52-.03.99 0 1.4.05-.07.64-.1.95-.17 1.59-.49-.08-.92-.11-1.28-.09-.94.05-1.73.46-2.36 1.23-.63.77-.91 1.71-.84 2.81l.35 6.02-1.73.1c-.27-4.49-.41-6.73-.69-11.22.58-.04.88-.05 1.46-.09.13.83.19 1.24.32 2.07h.08c.39-.76.88-1.35 1.47-1.78.59-.43 1.25-.66 1.98-.7ZM324.04 41.98c-.16-.64-.24-.95-.39-1.59h-.08c-.55.72-1.1 1.22-1.66 1.48-.56.27-1.26.42-2.11.45-1.13.04-2.03-.21-2.7-.75s-1.03-1.35-1.08-2.41c-.1-2.27 1.71-3.55 5.45-3.79.79-.05 1.18-.08 1.97-.13 0-.28-.01-.42-.02-.7-.03-.88-.24-1.53-.65-1.93-.41-.41-1.04-.6-1.91-.57-.97.03-2.06.36-3.26.99l-.6-1.28c.56-.33 1.18-.59 1.86-.78s1.37-.31 2.06-.33c1.39-.05 2.44.22 3.13.79.69.57 1.05 1.52 1.08 2.83.08 3.07.12 4.6.21 7.67-.51.01-.77.02-1.28.04Zm-3.96-1.07c1.08-.04 1.92-.36 2.52-.96.6-.6.89-1.42.85-2.47-.01-.41-.02-.61-.03-1.01-.7.05-1.05.08-1.75.13-1.39.1-2.39.34-2.99.74-.6.4-.88.99-.85 1.77.03.61.24 1.07.63 1.38.39.31.93.44 1.61.42ZM335.93 41.77c-.14-.64-.21-.96-.36-1.6h-.08c-.57.71-1.13 1.19-1.7 1.45-.57.25-1.27.39-2.12.4-1.13.02-2.03-.25-2.68-.82-.66-.56-1-1.37-1.02-2.43-.05-2.27 1.8-3.51 5.54-3.66.79-.03 1.18-.05 1.97-.08v-.7c0-.88-.21-1.53-.6-1.95s-1.03-.62-1.9-.61c-.97.01-2.07.31-3.29.91-.23-.52-.34-.78-.57-1.29.57-.31 1.2-.56 1.88-.74a8.05 8.05 0 0 1 2.06-.28c1.4-.02 2.43.27 3.11.87.68.59 1.01 1.54 1.02 2.86.01 3.07.02 4.6.03 7.67h-1.28ZM332 40.61c1.08-.01 1.93-.31 2.54-.9.61-.59.92-1.4.91-2.45v-1.02c-.7.03-1.05.05-1.75.09-1.39.06-2.39.29-3 .67-.61.38-.91.97-.89 1.75.01.62.21 1.08.6 1.39s.92.47 1.6.46ZM350.4 30.65c0 .43-.01.65-.02 1.08l-2.17.2c.19.24.37.56.51.95.15.39.22.83.21 1.31-.02 1.1-.43 1.97-1.21 2.61s-1.85.95-3.2.94c-.34 0-.67-.03-.97-.09-.75.38-1.12.86-1.13 1.44 0 .31.13.54.38.68.26.15.7.23 1.33.23.81 0 1.22.01 2.03.02 1.24.02 2.19.29 2.85.82.66.53.97 1.28.95 2.26-.03 1.24-.55 2.18-1.57 2.81s-2.49.93-4.42.92c-1.48-.01-2.62-.29-3.42-.84-.8-.55-1.21-1.32-1.2-2.32 0-.68.22-1.27.67-1.77.45-.5 1.07-.83 1.88-1.01-.29-.13-.54-.33-.73-.61-.2-.27-.3-.59-.29-.95 0-.41.11-.77.34-1.08.23-.31.58-.6 1.07-.89-.6-.24-1.08-.65-1.45-1.23s-.56-1.23-.56-1.97c0-1.23.39-2.18 1.16-2.84.77-.66 1.86-.99 3.27-.97.61 0 1.16.08 1.65.23 1.62.02 2.43.04 4.04.07Zm-9.38 13c0 .61.26 1.07.77 1.39s1.26.48 2.23.49c1.44.01 2.52-.18 3.22-.6.7-.42 1.06-.99 1.08-1.72.01-.61-.17-1.03-.55-1.28-.38-.24-1.1-.37-2.16-.39-.83-.01-1.25-.02-2.08-.02-.79 0-1.4.17-1.84.54s-.66.9-.66 1.59Zm.99-9.52c0 .79.22 1.38.68 1.79.45.41 1.09.61 1.9.62 1.71.02 2.58-.77 2.6-2.38.03-1.69-.83-2.55-2.58-2.57-.83 0-1.47.2-1.92.63-.45.43-.68 1.07-.68 1.91ZM364.58 27.4c-2.64 5.87-3.92 8.82-6.43 14.72-.69-.03-1.04-.04-1.73-.06 2.48-5.91 3.76-8.86 6.38-14.75.71.03 1.07.05 1.78.09ZM376.74 43.38c-.74-.06-1.41-.24-2.01-.55a3.78 3.78 0 0 1-1.46-1.35h-.13c.04.66.04 1.28 0 1.87-.13 1.85-.19 2.77-.31 4.61-.69-.05-1.03-.07-1.71-.11l1.05-16.25 1.44.1c.06.62.08.93.14 1.55h.08c.5-.58 1.05-.99 1.68-1.22.62-.23 1.33-.32 2.11-.26 1.55.12 2.7.72 3.46 1.81.76 1.08 1.05 2.54.9 4.38-.16 1.84-.7 3.23-1.62 4.18-.92.95-2.12 1.37-3.61 1.25Zm.51-10.19c-1.19-.09-2.07.17-2.65.76-.57.6-.91 1.59-1.02 2.97-.01.15-.02.23-.03.38-.11 1.58.09 2.72.58 3.44.49.72 1.33 1.12 2.51 1.2.99.07 1.79-.26 2.42-1 .62-.74.99-1.8 1.11-3.17.11-1.4-.08-2.49-.59-3.28-.51-.79-1.28-1.23-2.32-1.3ZM390.87 32.94c.52.05.98.14 1.38.27-.16.62-.24.93-.41 1.55-.47-.15-.89-.25-1.26-.28-.94-.1-1.78.19-2.52.86-.74.67-1.16 1.55-1.26 2.65-.23 2.4-.34 3.6-.57 6-.69-.07-1.04-.1-1.73-.16.41-4.48.61-6.72 1.02-11.19.58.05.87.08 1.46.13v2.09h.08c.5-.69 1.07-1.2 1.72-1.53a3.54 3.54 0 0 1 2.07-.39ZM403.75 40.27c-.23 1.82-.89 3.17-1.95 4.08-1.06.9-2.42 1.25-4.06 1.06-1.02-.12-1.89-.46-2.63-1.01s-1.28-1.3-1.61-2.22c-.34-.92-.44-1.97-.32-3.15.2-1.82.82-3.19 1.88-4.1 1.06-.91 2.44-1.27 4.12-1.07 1.63.19 2.86.87 3.69 2.03.83 1.16 1.12 2.62.89 4.39Zm-8.77-1.05c-.16 1.43.02 2.55.52 3.36s1.31 1.28 2.45 1.42 2.03-.13 2.71-.8c.68-.67 1.11-1.72 1.29-3.15.18-1.42.01-2.53-.49-3.34-.51-.81-1.34-1.29-2.51-1.42-1.15-.14-2.06.13-2.73.79s-1.08 1.71-1.24 3.15ZM412.98 35.69c1.53.22 2.64.9 3.32 2.02.69 1.12.89 2.6.6 4.42-.28 1.82-.92 3.18-1.91 4.06-.99.88-2.22 1.21-3.69 1-.74-.11-1.39-.34-1.97-.69a3.9 3.9 0 0 1-1.37-1.45c-.05 0-.07-.01-.12-.02-.22.55-.34.83-.56 1.38-.49-.07-.74-.1-1.23-.17.85-6.32 1.28-9.49 2.13-15.81.71.1 1.07.14 1.78.24-.21 1.54-.32 2.3-.53 3.84-.12.86-.25 1.63-.4 2.3.03 0 .05 0 .08.01.97-1 2.27-1.38 3.88-1.15Zm-.46 1.37c-1.2-.17-2.11.04-2.73.62-.62.59-1.04 1.66-1.25 3.23-.22 1.56-.1 2.72.34 3.47s1.25 1.2 2.42 1.38c1.06.15 1.9-.11 2.54-.78s1.06-1.72 1.27-3.13c.22-1.45.12-2.56-.3-3.35s-1.19-1.27-2.29-1.43ZM420.76 48.45c-.69-.11-1.03-.17-1.72-.28 1.02-6.3 1.52-9.45 2.54-15.75.71.11 1.06.17 1.77.29l-2.6 15.74ZM429.14 50.12c-1.67-.3-2.9-1.03-3.69-2.2-.8-1.17-1.05-2.63-.74-4.41.31-1.79 1-3.13 2.1-4.02 1.1-.89 2.43-1.2 3.97-.92 1.45.26 2.51.93 3.18 2s.86 2.35.57 3.84c-.08.42-.12.63-.2 1.06-3.14-.6-4.72-.89-7.87-1.44-.19 1.31-.03 2.35.49 3.14s1.36 1.28 2.52 1.49c1.22.22 2.47.2 3.76-.07-.11.6-.17.89-.28 1.49-.65.14-1.26.22-1.82.23-.56 0-1.22-.05-1.98-.19Zm1.36-10.14c-.93-.17-1.72-.01-2.37.47-.65.48-1.12 1.23-1.39 2.23 2.4.42 3.6.64 5.99 1.08.2-1.05.1-1.91-.28-2.56-.39-.65-1.04-1.06-1.95-1.23ZM440.96 52.42c-1.66-.34-2.88-1.1-3.65-2.29-.77-1.18-.99-2.66-.64-4.42.35-1.78 1.08-3.1 2.2-3.97 1.12-.86 2.46-1.14 4-.82 1.44.3 2.49.99 3.13 2.08.64 1.08.8 2.37.48 3.85-.09.42-.14.63-.23 1.05-3.13-.68-4.7-1-7.84-1.63-.22 1.3-.08 2.35.42 3.15.5.8 1.33 1.32 2.48 1.55a9.7 9.7 0 0 0 3.76.02c-.13.59-.19.89-.32 1.48-.66.12-1.27.18-1.83.18s-1.22-.08-1.98-.24Zm1.6-10.11c-.92-.19-1.72-.05-2.38.41-.66.47-1.15 1.2-1.45 2.2 2.39.48 3.58.72 5.97 1.23.22-1.05.15-1.91-.22-2.57-.37-.66-1.01-1.09-1.92-1.27ZM462.33 57.13c.72-2.84 1.08-4.25 1.79-7.09.22-.87.19-1.57-.09-2.1s-.83-.9-1.65-1.1c-1.08-.27-1.94-.17-2.6.3-.66.47-1.13 1.32-1.43 2.54-.59 2.44-.88 3.66-1.47 6.1-.68-.16-1.02-.24-1.7-.41.68-2.85 1.01-4.27 1.69-7.11.21-.87.17-1.57-.12-2.1-.29-.53-.84-.89-1.67-1.08-1.09-.25-1.95-.12-2.6.39-.65.51-1.13 1.47-1.45 2.89l-1.3 5.75c-.68-.15-1.02-.23-1.7-.38.98-4.39 1.46-6.58 2.44-10.97.57.13.85.19 1.41.32-.02.63-.03.94-.06 1.56.03 0 .05.01.08.02.45-.46 1-.77 1.67-.93a4.56 4.56 0 0 1 2.11.01c1.79.42 2.82 1.32 3.07 2.69.03 0 .05.01.08.02.48-.49 1.08-.82 1.81-1s1.51-.16 2.34.05c1.29.32 2.18.88 2.66 1.68.48.8.54 1.89.18 3.28-.73 2.84-1.09 4.26-1.82 7.1-.68-.17-1.02-.26-1.69-.43Z"/>
      <g>
        <path d="M252.83 635.21c-1.68-.4-2.85-1.22-3.52-2.42-.67-1.2-.77-2.69-.31-4.47.47-1.82 1.28-3.11 2.44-3.87 1.16-.77 2.56-.94 4.24-.54.54.13 1.06.31 1.58.55s.91.47 1.18.7c-.34.51-.51.77-.85 1.29-.34-.23-.73-.45-1.15-.65-.42-.2-.81-.35-1.15-.43-2.29-.55-3.78.57-4.49 3.39-.34 1.34-.31 2.44.08 3.3.39.86 1.15 1.43 2.27 1.7.96.23 1.99.27 3.1.11-.14.59-.2.88-.34 1.47-.86.2-1.89.16-3.06-.12ZM269.68 632.91c-.35 1.8-1.1 3.11-2.25 3.93-1.15.82-2.58 1.06-4.27.7-1.04-.22-1.91-.65-2.62-1.29-.7-.64-1.18-1.44-1.42-2.39-.24-.96-.23-2.01.03-3.17.4-1.79 1.18-3.07 2.33-3.87 1.14-.79 2.52-1.01 4.15-.67 1.58.33 2.72 1.1 3.45 2.31s.93 2.69.59 4.44Zm-8.73-1.82c-.31 1.4-.25 2.53.18 3.4s1.22 1.42 2.37 1.66c1.15.24 2.1.05 2.84-.56.74-.61 1.25-1.63 1.54-3.04.28-1.4.2-2.52-.24-3.37-.44-.85-1.22-1.38-2.36-1.62-1.12-.24-2.04-.06-2.77.53-.73.59-1.25 1.59-1.56 3.01ZM279.7 640.43c.47-2.87.7-4.31 1.17-7.18.15-.9.05-1.61-.3-2.13-.35-.52-.97-.85-1.87-1-1.19-.2-2.12-.04-2.78.48-.67.53-1.13 1.51-1.39 2.95l-1.05 5.8c-.71-.13-1.06-.19-1.77-.33.82-4.42 1.23-6.63 2.06-11.05.56.1.84.16 1.39.26v1.56c.03 0 .05 0 .08.02.45-.48 1.02-.81 1.71-1 .69-.19 1.42-.21 2.2-.08 1.36.23 2.34.72 2.93 1.48.59.76.77 1.84.55 3.26l-1.15 7.24c-.71-.11-1.06-.17-1.77-.29ZM289.07 640.62c.31.04.62.06.92.06.3 0 .54-.02.71-.04-.07.52-.1.77-.17 1.29-.2.06-.5.1-.88.1s-.72-.01-1.02-.05c-2.27-.31-3.24-1.62-2.9-3.89.39-2.65.59-3.97.98-6.61l-1.63-.25c.05-.32.07-.49.12-.81l1.73-.45 1.07-2.27c.4.06.59.09.99.14-.15 1.03-.22 1.55-.37 2.58 1.32.19 1.98.28 3.3.46-.07.52-.1.79-.17 1.31-1.33-.18-1.99-.27-3.31-.46-.37 2.62-.56 3.93-.94 6.55-.1.67 0 1.21.28 1.61.28.41.72.65 1.3.73ZM297.81 643.13c-1.74-.2-3.05-.87-3.93-1.99-.88-1.13-1.19-2.59-.97-4.37.23-1.8.87-3.16 1.91-4.11 1.04-.95 2.32-1.33 3.84-1.15 1.43.16 2.51.74 3.25 1.75.74 1.01 1.04 2.27.89 3.78-.04.43-.06.64-.11 1.07-3.2-.32-4.8-.5-7.99-.89-.13 1.31.1 2.35.67 3.11.58.76 1.47 1.21 2.66 1.34 1.26.14 2.54.02 3.82-.35l-.15 1.51c-.66.19-1.27.32-1.85.37-.57.05-1.26.03-2.05-.06Zm.67-10.21c-.92-.1-1.69.1-2.3.62-.62.52-1.04 1.29-1.27 2.3 2.41.3 3.62.44 6.04.69.11-1.07-.05-1.91-.47-2.53-.43-.62-1.09-.98-2-1.08ZM308.53 638.2a320.92 320.92 0 0 1-3.51-5.82c.79.08 1.18.11 1.97.18 1.05 1.82 1.58 2.73 2.66 4.55 1.36-1.62 2.03-2.43 3.36-4.06.78.06 1.17.08 1.95.14a302.28 302.28 0 0 1-4.41 5.18c1.52 2.43 2.29 3.64 3.87 6.05-.81-.05-1.21-.08-2.02-.14-1.19-1.91-1.78-2.87-2.93-4.79-1.47 1.71-2.21 2.56-3.71 4.25-.81-.07-1.21-.11-2.02-.19 1.95-2.12 2.9-3.19 4.8-5.34ZM320.63 643.58c.32.02.62 0 .92-.02.3-.03.53-.07.7-.11-.02.52-.04.78-.06 1.3-.2.08-.49.14-.87.18-.38.04-.72.05-1.02.04-2.29-.12-3.36-1.33-3.22-3.62l.4-6.67-1.65-.1.05-.82 1.68-.6c.35-.94.52-1.41.87-2.35.4.02.6.03 1 .06-.06 1.04-.09 1.56-.14 2.6 1.33.07 1.99.11 3.32.17-.02.53-.04.79-.06 1.32-1.33-.06-2-.1-3.33-.17-.15 2.64-.22 3.96-.37 6.6-.04.68.1 1.2.42 1.58.32.38.77.58 1.36.61ZM336.38 630.24c-2.3 5.98-3.5 8.96-5.99 14.9l-1.79-.05c2.52-5.93 3.73-8.9 6.06-14.87.69 0 1.03.01 1.72.02ZM351.65 641.95c.04 1.05-.34 1.87-1.14 2.46-.8.59-1.94.91-3.43.94-1.57.03-2.8-.18-3.68-.65 0-.63-.01-.95-.02-1.58.57.27 1.18.47 1.83.62.65.15 1.28.21 1.88.2.93-.02 1.65-.18 2.14-.48.49-.3.73-.74.71-1.32-.01-.44-.22-.8-.63-1.1-.4-.3-1.19-.65-2.33-1.04-1.09-.37-1.87-.69-2.33-.98-.46-.28-.8-.61-1.03-.97-.23-.37-.34-.81-.35-1.32-.01-.92.36-1.64 1.12-2.18.75-.54 1.79-.82 3.11-.86 1.23-.03 2.44.18 3.64.63-.23.56-.34.84-.57 1.4-1.17-.43-2.22-.63-3.16-.61-.83.02-1.45.16-1.86.42-.42.26-.62.61-.61 1.06 0 .3.09.56.25.76.16.21.42.41.78.59.36.18 1.04.45 2.05.78 1.38.45 2.34.91 2.84 1.39s.77 1.08.79 1.83ZM358.42 643.52c.32-.02.62-.05.91-.12.29-.06.52-.12.69-.18.03.52.05.78.08 1.3-.19.1-.47.19-.84.27-.37.08-.71.13-1.01.14-2.29.12-3.48-.98-3.58-3.27-.12-2.67-.17-4.01-.29-6.68-.66.03-.99.04-1.65.07-.01-.33-.02-.49-.03-.82.65-.31.97-.46 1.61-.77.25-.97.38-1.46.62-2.43l1-.05c.05 1.04.08 1.56.13 2.6 1.33-.06 1.99-.1 3.32-.18.03.53.05.79.08 1.32-1.33.08-2 .11-3.33.18.13 2.64.19 3.96.32 6.61.03.68.23 1.19.58 1.53.35.35.83.5 1.41.47ZM366.94 632.69c.51-.04.97-.04 1.38.01-.04.64-.07.96-.11 1.59-.48-.06-.91-.08-1.27-.05-.93.07-1.69.5-2.3 1.28-.61.78-.88 1.72-.8 2.82.17 2.41.25 3.61.42 6.02-.72.05-1.07.07-1.79.12-.29-4.49-.43-6.73-.72-11.22.57-.04.86-.06 1.43-.09.14.83.2 1.24.34 2.06h.08c.38-.76.85-1.36 1.42-1.8.57-.44 1.21-.69 1.93-.74ZM378.7 643.08c-.21-.62-.32-.93-.53-1.55h-.09c-.51.76-1.05 1.3-1.6 1.61-.56.31-1.28.51-2.15.59-1.17.11-2.11-.09-2.83-.6-.71-.51-1.11-1.3-1.2-2.35-.2-2.26 1.57-3.59 5.3-4.08.78-.1 1.17-.16 1.96-.27-.03-.28-.04-.42-.07-.69-.09-.88-.36-1.5-.79-1.88s-1.07-.52-1.92-.44c-.95.1-2.01.49-3.16 1.17l-.65-1.25c.54-.35 1.13-.64 1.79-.88.65-.23 1.32-.38 1.99-.45 1.36-.14 2.4.05 3.12.57.72.52 1.16 1.43 1.31 2.73.34 3.05.51 4.57.86 7.62l-1.32.15Zm-4.15-.78c1.11-.11 1.95-.49 2.52-1.13.57-.64.8-1.49.68-2.53-.04-.4-.07-.61-.11-1.01-.7.1-1.05.16-1.75.26-1.39.19-2.38.5-2.96.93-.58.43-.84 1.03-.77 1.82.06.61.29 1.06.71 1.35.42.28.98.39 1.68.32ZM387.33 640.83c.31-.04.61-.1.9-.19.29-.08.51-.16.67-.23.07.52.11.77.18 1.29-.18.11-.45.23-.82.34-.37.11-.7.18-1 .22-2.27.3-3.55-.7-3.83-2.97-.33-2.65-.49-3.98-.82-6.64l-1.64.2-.1-.81 1.55-.9c.17-.99.26-1.48.43-2.47.4-.05.59-.07.99-.13.13 1.03.2 1.55.33 2.58 1.32-.17 1.98-.26 3.3-.44.07.52.11.79.18 1.31-1.33.18-1.99.27-3.32.44.34 2.62.5 3.94.84 6.56.09.67.32 1.17.7 1.48.38.32.86.44 1.45.36ZM396.43 640.92c-1.73.27-3.18-.02-4.32-.88-1.15-.85-1.84-2.18-2.09-3.96-.26-1.79 0-3.28.75-4.47s1.88-1.9 3.4-2.13c1.42-.22 2.62.05 3.6.82.98.77 1.61 1.91 1.86 3.4.07.42.11.64.18 1.06-3.18.54-4.77.79-7.95 1.27.23 1.3.72 2.24 1.48 2.82.76.58 1.74.77 2.93.58 1.26-.2 2.46-.65 3.6-1.36l.25 1.5c-.58.36-1.14.64-1.68.85-.54.2-1.21.37-2 .49Zm-2.07-10.02c-.92.14-1.6.55-2.06 1.21-.46.66-.66 1.52-.61 2.56 2.41-.36 3.61-.54 6.01-.94-.17-1.06-.55-1.83-1.13-2.31-.58-.48-1.32-.65-2.22-.51ZM410.99 626.64c.09.42.13.63.22 1.05-.82.27-1.23.4-2.05.67.24.2.47.47.7.82.23.35.39.76.49 1.24.22 1.08.01 2.02-.63 2.81-.64.8-1.64 1.33-2.99 1.58-.34.07-.67.1-.98.1-.67.52-.96 1.06-.85 1.63.06.3.23.5.52.6.29.1.75.09 1.39-.03.82-.16 1.23-.23 2.05-.39 1.26-.24 2.27-.19 3.05.18.78.37 1.27 1.02 1.46 1.98.25 1.22-.08 2.26-.99 3.11-.92.85-2.39 1.48-4.4 1.86-1.55.29-2.79.24-3.72-.15-.93-.39-1.48-1.08-1.66-2.06-.12-.67 0-1.3.38-1.87.37-.57.95-1.02 1.74-1.34-.32-.07-.61-.23-.86-.46s-.41-.53-.47-.88c-.07-.4-.02-.78.15-1.12.17-.34.47-.7.91-1.07-.64-.13-1.2-.44-1.67-.94-.48-.5-.78-1.11-.91-1.84-.22-1.21 0-2.21.62-3 .63-.79 1.62-1.31 2.98-1.57.59-.11 1.14-.15 1.64-.11 1.56-.3 2.34-.46 3.91-.78Zm-6.69 14.66c.11.6.46 1 1.05 1.22.59.21 1.39.22 2.4.04 1.5-.28 2.57-.71 3.2-1.27.64-.56.88-1.2.73-1.92-.12-.6-.4-.97-.83-1.12-.44-.15-1.19-.12-2.27.08l-2.12.4c-.8.15-1.39.45-1.77.89s-.51 1.01-.39 1.69Zm-.75-9.55c.14.77.47 1.32 1 1.63.53.31 1.2.39 2.01.24 1.7-.32 2.39-1.29 2.08-2.87-.33-1.66-1.34-2.31-3.04-1.99-.81.15-1.39.48-1.75.98-.36.5-.46 1.17-.31 2.01ZM412.53 623.2c-.08-.38-.05-.68.11-.9.15-.22.37-.36.65-.42.27-.06.52-.02.76.12.24.14.39.39.48.77.08.37.04.68-.11.9-.16.23-.37.37-.65.43-.29.06-.54.02-.77-.12-.23-.14-.38-.4-.46-.78Zm4.89 13.56c-.7.15-1.06.23-1.76.38l-2.35-10.99c.68-.15 1.02-.22 1.71-.37l2.4 10.98ZM426.08 634.96c-1.71.42-3.18.24-4.4-.51-1.22-.76-2.02-2.02-2.42-3.77-.4-1.77-.27-3.27.39-4.52.65-1.25 1.73-2.05 3.23-2.41 1.4-.34 2.63-.17 3.67.52 1.05.69 1.76 1.77 2.14 3.24.11.42.16.63.27 1.04-3.13.8-4.71 1.19-7.85 1.92.33 1.28.9 2.17 1.71 2.69.8.51 1.8.63 2.98.34 1.24-.3 2.41-.86 3.49-1.65.15.59.23.88.38 1.47-.55.41-1.09.74-1.62.99-.52.25-1.18.47-1.96.66Zm-2.89-9.82c-.9.22-1.56.68-1.96 1.38-.4.7-.54 1.57-.4 2.6 2.38-.55 3.57-.84 5.94-1.44-.26-1.04-.7-1.78-1.32-2.21-.62-.43-1.37-.54-2.26-.33Z"/>
      </g>
      <g>
        <path d="M241.1 186.59c-.23-.32-.3-.62-.21-.9.09-.29.28-.54.57-.75.28-.2.58-.3.88-.29.31 0 .57.17.79.48.22.31.28.62.19.91-.09.3-.28.54-.55.74-.29.21-.59.3-.89.29-.3-.01-.57-.17-.79-.48Zm10.11 10.33c-.63.45-.95.67-1.58 1.13l-6.6-9.1c.68-.49 1.02-.73 1.7-1.21l6.48 9.18ZM261.97 189.99c-1.47-2.51-2.21-3.76-3.68-6.27-.46-.79-1.02-1.26-1.68-1.39-.66-.13-1.45.07-2.36.63-1.21.74-1.92 1.57-2.13 2.46-.21.89.09 1.95.88 3.18l3.2 4.95c-.65.42-.97.63-1.61 1.06-2.49-3.74-3.74-5.61-6.23-9.36.56-.37.84-.56 1.41-.93.45.44.67.66 1.12 1.11.03-.02.05-.03.08-.05.05-.69.32-1.38.8-2.04.48-.66 1.13-1.25 1.93-1.73 1.4-.86 2.64-1.2 3.67-1.05 1.04.15 1.91.86 2.62 2.11 1.45 2.55 2.18 3.82 3.63 6.37-.67.38-1 .57-1.66.96ZM270.13 184.19c.3-.15.59-.32.85-.5s.47-.33.61-.45l.57 1.17c-.15.17-.39.37-.72.6-.33.23-.64.42-.93.56-2.17 1.09-3.77.67-4.85-1.35l-3.15-5.9c-.68.36-1.02.55-1.69.92l-.4-.72c.54-.62.81-.93 1.37-1.55-.15-1.01-.22-1.52-.36-2.53.43-.22.64-.34 1.07-.56.48.93.72 1.39 1.2 2.31 1.39-.72 2.09-1.07 3.49-1.76.23.48.35.71.58 1.19-1.39.68-2.09 1.03-3.47 1.74 1.22 2.35 1.83 3.52 3.04 5.87.31.6.71.98 1.2 1.13.49.16 1.01.09 1.58-.19ZM279.36 181.46c-1.69.72-3.22.86-4.62.39s-2.5-1.5-3.27-3.13c-.77-1.64-.92-3.16-.41-4.57.51-1.41 1.6-2.49 3.25-3.2 1.54-.66 2.95-.74 4.2-.24 1.24.5 2.13 1.47 2.68 2.88.16.4.23.6.39 1-3.3 1.29-4.94 1.98-8.18 3.46.58 1.18 1.35 1.94 2.28 2.27.93.33 1.98.24 3.16-.26 1.25-.53 2.38-1.27 3.43-2.23.22.56.33.85.56 1.41-.53.49-1.04.89-1.55 1.22-.51.33-1.15.66-1.92.98Zm-4.5-9.19c-.98.42-1.64 1.04-1.98 1.83-.34.8-.34 1.69 0 2.68 2.48-1.13 3.73-1.67 6.25-2.69-.4-.99-.97-1.65-1.71-1.97-.74-.31-1.59-.27-2.56.15ZM288.33 165.68c.56-.18 1.08-.3 1.55-.37.08.64.12.95.21 1.59-.55.07-1.02.16-1.42.29-1.01.33-1.76.97-2.24 1.92-.47.94-.52 1.94-.15 2.97.8 2.28 1.2 3.41 2 5.69-.71.25-1.06.38-1.77.63-1.55-4.22-2.32-6.33-3.86-10.55.63-.23.94-.34 1.57-.56.37.75.55 1.13.91 1.89.04-.01.05-.02.09-.03.22-.85.59-1.58 1.12-2.18.53-.6 1.19-1.03 1.99-1.29ZM302.8 173.47c-.3-.59-.44-.88-.74-1.47-.04 0-.05.01-.09.02-.43.83-.91 1.45-1.44 1.84-.53.39-1.23.71-2.12.95-1.18.32-2.18.32-3.01-.04s-1.41-1.03-1.71-2.04c-.66-2.17.98-3.95 4.97-5.11l2.1-.6c-.07-.27-.1-.41-.17-.68-.21-.86-.58-1.44-1.11-1.74-.53-.3-1.27-.33-2.21-.08-1.06.28-2.18.89-3.35 1.82-.38-.43-.57-.65-.95-1.08.54-.47 1.16-.9 1.86-1.27.7-.37 1.43-.66 2.19-.86 1.53-.4 2.74-.39 3.61 0 .88.4 1.46 1.25 1.76 2.52l1.75 7.47c-.54.13-.81.19-1.34.32Zm-4.4-.1c1.13-.31 1.95-.82 2.45-1.55.51-.73.64-1.6.39-2.61-.1-.39-.15-.59-.24-.99-.74.21-1.12.32-1.86.54-1.48.43-2.49.93-3.04 1.48-.55.54-.71 1.19-.49 1.95.17.59.5.98.99 1.18.49.2 1.08.19 1.8 0ZM312.75 171.61c-1.75.3-3.19.07-4.35-.71-1.16-.79-1.95-2.07-2.33-3.86-.39-1.84-.18-3.37.65-4.58.83-1.21 2.23-2.01 4.17-2.34.63-.11 1.26-.15 1.9-.14.64.01 1.16.07 1.53.18-.16.61-.23.91-.38 1.52-.45-.08-.94-.13-1.47-.14-.53-.01-.99.01-1.38.08-2.62.45-3.64 2.16-3.07 5.01.27 1.35.78 2.33 1.53 2.94.75.61 1.71.8 2.89.6 1.02-.18 2.03-.55 3.04-1.11.09.6.14.89.23 1.49-.75.51-1.74.86-2.97 1.08ZM322.46 168.83c.33-.03.64-.09.95-.16.3-.07.54-.14.72-.21.05.52.07.78.12 1.3-.19.11-.48.21-.86.31s-.73.16-1.04.2c-2.35.25-3.68-.71-3.98-2.98-.35-2.65-.53-3.98-.88-6.63-.74.1-1.11.15-1.85.26-.05-.32-.07-.49-.12-.81.7-.39 1.06-.58 1.77-.96.21-1 .31-1.49.53-2.49.46-.06.7-.09 1.16-.14.12 1.03.19 1.55.31 2.59 1.52-.18 2.28-.26 3.8-.41.05.53.08.79.13 1.32-1.51.14-2.26.23-3.77.41.31 2.63.47 3.94.79 6.57.08.67.32 1.17.71 1.49.39.32.9.44 1.51.38ZM325.4 155.42c-.03-.39.06-.68.27-.88s.49-.31.84-.34c.33-.02.62.05.87.22.25.17.39.44.41.83s-.07.67-.3.88c-.22.2-.49.32-.82.34-.34.02-.63-.05-.87-.22-.24-.17-.38-.44-.41-.83Zm3.15 14.09c-.74.05-1.11.08-1.85.13-.36-4.48-.53-6.72-.89-11.2.79-.06 1.19-.09 1.99-.14l.75 11.21ZM343.19 163.61c-.05 1.83-.61 3.24-1.64 4.25-1.03 1.01-2.42 1.51-4.19 1.52-1.09 0-2.07-.21-2.93-.65a5.02 5.02 0 0 1-2.05-1.96c-.5-.86-.79-1.88-.84-3.06-.08-1.83.37-3.28 1.4-4.34 1.03-1.06 2.51-1.61 4.41-1.63 1.84-.01 3.3.53 4.36 1.59 1.05 1.07 1.54 2.5 1.49 4.28Zm-9.67.02c.05 1.43.4 2.52 1.06 3.25.65.73 1.59 1.09 2.81 1.08s2.15-.38 2.8-1.12c.65-.74.99-1.83 1.01-3.27.02-1.43-.29-2.52-.95-3.27-.66-.75-1.65-1.13-2.96-1.11-1.29.01-2.26.4-2.9 1.15-.63.75-.92 1.85-.87 3.3ZM354.63 170.01c.31-2.89.46-4.34.76-7.23.1-.91-.07-1.62-.5-2.11s-1.17-.8-2.2-.89c-1.36-.12-2.38.13-3.06.72-.67.59-1.05 1.62-1.14 3.08l-.37 5.88c-.74-.05-1.11-.07-1.85-.1.23-4.49.34-6.73.56-11.22.65.03.97.05 1.62.09.09.62.14.93.23 1.55h.09c.44-.53 1.03-.92 1.79-1.17.76-.25 1.59-.34 2.49-.26 1.58.14 2.74.59 3.46 1.33s.99 1.82.82 3.25c-.34 2.91-.52 4.37-.86 7.28-.74-.09-1.11-.13-1.84-.21ZM374.68 171.95s-.06-.01-.1-.02c-1.11.91-2.49 1.17-4.16.81-1.57-.34-2.69-1.07-3.39-2.22s-.9-2.64-.57-4.46c.33-1.82 1.04-3.16 2.17-3.99s2.55-1.08 4.23-.72c1.75.38 2.97 1.23 3.64 2.53.06.01.09.02.15.04.04-.32.07-.48.11-.81.06-.31.08-.47.14-.78.43-1.78.64-2.67 1.07-4.45.8.19 1.2.29 2 .49-1.57 6.19-2.36 9.28-3.93 15.46-.59-.15-.88-.22-1.47-.37.05-.61.07-.91.11-1.52Zm-3.73-.56c1.25.27 2.23.17 2.94-.31s1.24-1.4 1.57-2.77c.03-.14.05-.21.08-.35.37-1.55.34-2.73-.1-3.53-.44-.8-1.33-1.36-2.66-1.64-1.14-.25-2.09-.04-2.84.6s-1.26 1.66-1.52 3.05c-.27 1.41-.19 2.53.25 3.36.43.83 1.19 1.36 2.29 1.59ZM384.8 176.56c-1.74-.56-2.97-1.45-3.71-2.71-.74-1.27-.89-2.76-.41-4.5.48-1.75 1.36-3 2.66-3.74 1.3-.74 2.81-.85 4.51-.31 1.59.5 2.7 1.36 3.31 2.55s.65 2.5.15 3.93c-.14.41-.22.61-.36 1.02-3.33-1.18-5.01-1.72-8.4-2.7-.33 1.28-.25 2.34.23 3.2.48.86 1.32 1.47 2.54 1.86 1.28.41 2.62.59 4.03.55l-.5 1.43c-.71.03-1.37 0-1.96-.08-.6-.08-1.29-.25-2.08-.5Zm2.6-9.9c-1.01-.32-1.9-.28-2.67.1s-1.35 1.06-1.74 2.03c2.59.75 3.88 1.16 6.44 2.02.34-1.02.35-1.88 0-2.6-.35-.72-1.03-1.24-2.02-1.55ZM400.85 179.14c-.42.96-1.15 1.52-2.17 1.7s-2.24-.03-3.69-.61c-1.53-.61-2.64-1.29-3.35-2.05l.55-1.48c.47.47 1 .9 1.59 1.29s1.18.71 1.77.95c.92.37 1.68.53 2.28.48s1.02-.35 1.25-.88c.17-.4.12-.83-.16-1.29-.28-.45-.92-1.13-1.93-1.98-.96-.81-1.64-1.43-2.01-1.88-.37-.45-.61-.89-.71-1.33-.1-.43-.07-.89.11-1.37.32-.86.98-1.39 1.99-1.57 1.01-.18 2.24 0 3.68.59 1.34.54 2.54 1.32 3.6 2.32-.49.39-.73.59-1.21.98-1.04-.95-2.06-1.63-3.07-2.04-.88-.36-1.6-.5-2.14-.44s-.89.3-1.05.72c-.11.28-.12.55-.03.81s.29.55.58.88c.3.32.91.86 1.8 1.62 1.23 1.03 2 1.89 2.29 2.56s.29 1.34 0 2.02ZM408.27 170.17c.16-.35.39-.56.68-.63.29-.07.59-.02.91.13.3.14.53.35.67.62s.13.58-.04.92c-.17.35-.4.55-.7.62-.3.07-.6.03-.9-.11-.31-.15-.54-.36-.67-.62-.13-.27-.12-.58.04-.92Zm-4.13 13.84c-.68-.33-1.03-.49-1.71-.81 1.89-4.08 2.83-6.12 4.72-10.2.74.34 1.11.52 1.84.87-1.94 4.06-2.91 6.08-4.85 10.14ZM422.56 181.18c-.22.37-.33.55-.55.92-.91-.43-1.36-.64-2.28-1.06.08.32.1.7.06 1.12-.04.42-.18.85-.43 1.26-.56.95-1.38 1.48-2.47 1.61-1.08.13-2.28-.17-3.61-.89-.34-.18-.64-.38-.92-.59-.92-.06-1.51.18-1.78.69-.14.27-.12.54.06.8s.58.56 1.2.89c.79.43 1.19.65 1.98 1.09 1.21.68 2 1.44 2.38 2.26.38.82.31 1.65-.19 2.49-.64 1.07-1.6 1.59-2.87 1.6-1.27.01-2.8-.49-4.63-1.48-1.4-.76-2.36-1.56-2.88-2.44-.52-.88-.57-1.77-.12-2.66.3-.61.79-1.03 1.45-1.26.66-.23 1.43-.21 2.3.04-.23-.26-.37-.57-.45-.91-.07-.34-.02-.68.14-1 .19-.37.46-.63.82-.79.36-.16.85-.24 1.47-.24-.48-.52-.78-1.13-.9-1.84-.12-.7-.01-1.39.32-2.04.56-1.1 1.37-1.75 2.46-1.94 1.09-.19 2.36.1 3.8.89.62.34 1.15.71 1.58 1.11 1.63.92 2.45 1.39 4.06 2.36Zm-15.44 6.42c-.28.54-.24 1.08.11 1.62s.99 1.05 1.91 1.55c1.37.74 2.49 1.13 3.35 1.14.87 0 1.49-.3 1.86-.93.31-.53.34-1 .09-1.41-.25-.42-.88-.92-1.9-1.49-.8-.45-1.2-.67-2.01-1.1-.76-.41-1.45-.56-2.04-.45-.6.11-1.05.47-1.37 1.08Zm5.31-7.98c-.36.7-.41 1.34-.14 1.94.27.6.8 1.11 1.61 1.55 1.69.92 2.93.71 3.73-.69.84-1.47.38-2.71-1.38-3.67-.84-.46-1.59-.62-2.25-.47s-1.18.59-1.57 1.34ZM426.27 197.02c1.68-2.37 2.52-3.56 4.2-5.94.53-.75.72-1.45.56-2.11s-.68-1.3-1.57-1.9c-1.18-.8-2.23-1.11-3.12-.93-.9.17-1.74.88-2.53 2.11l-3.18 4.96c-.65-.42-.97-.62-1.63-1.03 2.38-3.81 3.57-5.72 5.95-9.53.57.36.85.54 1.42.9l-.55 1.48c.03.02.05.03.08.05.65-.24 1.38-.28 2.19-.11.81.17 1.6.52 2.38 1.05 1.37.93 2.2 1.92 2.5 2.94.3 1.02.02 2.11-.82 3.27-1.72 2.37-2.59 3.56-4.31 5.93-.63-.46-.95-.68-1.58-1.13Z"/>
      </g>
      <g>
        <path d="M468.78 497.67c-4.15-2.56-6.19-3.88-10.19-6.6l1.58-1.08c2.35 1.61 3.54 2.41 5.94 3.97 1.39.92 2.27 1.54 2.62 1.85.03-.02.04-.03.07-.05-.15-.34-.37-1.1-.69-2.28-.32-1.18-.99-3.76-2.12-7.69.61-.46.91-.69 1.52-1.15 1.32 4.65 1.94 7 3.06 11.75-.71.52-1.07.78-1.79 1.29ZM480.47 481.26c1.2 1.38 1.77 2.79 1.68 4.23s-.84 2.75-2.22 3.89c-.86.71-1.77 1.14-2.74 1.31-.97.17-1.9.04-2.81-.36s-1.72-1.08-2.45-2.02c-1.12-1.45-1.61-2.87-1.49-4.27.12-1.4.83-2.62 2.14-3.7 1.26-1.04 2.59-1.48 4-1.32 1.42.16 2.72.9 3.89 2.24Zm-7.06 5.87c.89 1.12 1.82 1.79 2.77 1.98.96.2 1.92-.09 2.86-.87s1.41-1.66 1.41-2.64c0-.98-.48-2.01-1.42-3.11-.93-1.09-1.87-1.71-2.81-1.88-.94-.17-1.86.12-2.78.87-.9.74-1.36 1.58-1.37 2.52-.01.95.43 1.99 1.33 3.12ZM482.86 471.21c.37-.36.74-.65 1.09-.88.37.52.55.78.92 1.31-.42.26-.77.52-1.03.78-.69.66-1.03 1.48-1.02 2.48 0 1 .37 1.91 1.12 2.72 1.63 1.78 2.45 2.66 4.08 4.44-.55.51-.83.76-1.39 1.26-3.01-3.34-4.52-5.01-7.53-8.34l1.08-.98c.62.56.93.84 1.56 1.4.03-.02.04-.03.06-.06-.17-.83-.17-1.6 0-2.31.18-.71.53-1.31 1.06-1.81ZM504.2 465.34c-2.22-1.91-3.32-2.86-5.54-4.77-.68-.58-1.32-.87-1.92-.86-.6 0-1.18.33-1.73.96-.73.83-1.05 1.64-.96 2.44.09.8.6 1.63 1.54 2.48 1.85 1.69 2.78 2.54 4.63 4.24-.5.55-.76.83-1.27 1.37-2.14-1.99-3.21-2.99-5.35-4.99-.65-.61-1.28-.92-1.88-.94-.6-.01-1.19.29-1.78.9-.77.8-1.11 1.61-1.02 2.43.09.82.65 1.74 1.69 2.77 1.68 1.66 2.51 2.49 4.19 4.15-.53.53-.79.8-1.32 1.32-3.17-3.19-4.75-4.79-7.91-7.98.41-.4.61-.61 1.02-1.01.52.35.78.53 1.3.88l.06-.06c-.15-.62-.13-1.26.08-1.91.2-.65.56-1.24 1.08-1.79 1.26-1.32 2.52-1.76 3.84-1.31.02-.03.03-.04.06-.06-.2-.66-.2-1.34-.01-2.06s.56-1.39 1.12-2.02c.87-.99 1.76-1.52 2.68-1.59s1.93.34 3.03 1.27c2.24 1.89 3.36 2.84 5.6 4.73-.48.57-.72.85-1.21 1.42ZM504.97 446.33c.35.25.52.38.87.64-.43.76-.65 1.14-1.09 1.89.31-.02.67.03 1.07.13s.8.3 1.19.59c.88.66 1.35 1.5 1.39 2.54.04 1.04-.37 2.12-1.24 3.23-.22.28-.45.53-.69.75-.18.85-.05 1.45.4 1.82.24.19.5.23.79.1.29-.12.64-.45 1.05-.97.53-.68.8-1.02 1.32-1.71.8-1.05 1.62-1.71 2.45-1.98.84-.27 1.65-.12 2.44.46 1 .74 1.44 1.74 1.3 3.03-.15 1.29-.87 2.79-2.2 4.49-1.02 1.3-2.04 2.12-3.02 2.47-.99.35-1.87.19-2.64-.44-.53-.44-.83-1-.91-1.69-.08-.69.08-1.42.49-2.21-.3.16-.62.24-.97.23-.35 0-.66-.13-.94-.35-.32-.26-.52-.58-.61-.95s-.09-.85 0-1.43c-.58.34-1.21.48-1.9.42s-1.32-.33-1.89-.79c-.95-.78-1.44-1.68-1.48-2.69-.04-1.02.38-2.07 1.24-3.17.37-.48.76-.87 1.17-1.18.98-1.28 1.46-1.92 2.41-3.22Zm4.53 15.61c.47.38 1.01.45 1.61.2.6-.25 1.24-.79 1.9-1.63.99-1.26 1.53-2.33 1.65-3.2.12-.87-.12-1.52-.7-1.96-.49-.36-.95-.45-1.39-.26-.44.19-1 .74-1.69 1.64-.55.71-.82 1.06-1.37 1.76-.52.66-.79 1.29-.8 1.89 0 .6.25 1.12.79 1.55Zm-6.79-6.76c.61.49 1.22.68 1.83.56.61-.12 1.18-.51 1.7-1.18 1.09-1.4.98-2.6-.31-3.57-1.35-1.02-2.54-.83-3.62.55-.51.66-.74 1.29-.68 1.91.06.62.41 1.2 1.07 1.73ZM518.66 446.76c-1.02 1.51-2.26 2.41-3.69 2.68-1.43.27-2.87-.13-4.33-1.18-1.47-1.06-2.36-2.28-2.7-3.66-.33-1.38-.06-2.69.81-3.98.82-1.21 1.84-1.91 3.08-2.12 1.24-.21 2.5.08 3.78.9.36.23.54.35.91.58-1.79 2.78-2.71 4.16-4.62 6.86 1.1.73 2.13 1.01 3.08.84.95-.17 1.79-.78 2.49-1.82a9.93 9.93 0 0 0 1.52-3.68l1.27.82c-.14.69-.33 1.32-.56 1.87-.23.55-.58 1.18-1.04 1.87Zm-8.74-5.32c-.53.78-.71 1.56-.55 2.36.16.8.63 1.54 1.43 2.22 1.43-2.04 2.14-3.07 3.5-5.15-.9-.59-1.72-.83-2.48-.73-.75.1-1.38.54-1.9 1.3ZM524.09 437.85c-4.82-.71-7.21-1.12-11.95-2.03.41-.64.61-.96 1.01-1.6 2.79.55 4.2.81 7.02 1.3 1.64.3 2.69.52 3.14.66.02-.03.03-.05.05-.08-.27-.26-.78-.86-1.54-1.81-.76-.95-2.41-3.05-5.02-6.2.37-.66.56-.99.93-1.65 3.07 3.73 4.57 5.64 7.5 9.53-.44.75-.67 1.13-1.12 1.88ZM515.87 423.47c-.34-.19-.55-.41-.61-.67-.07-.26-.03-.51.11-.77.13-.24.33-.41.58-.5s.56-.05.89.13c.34.18.54.4.61.67.07.27.04.53-.09.77-.14.26-.34.43-.6.52-.26.08-.56.03-.89-.15Zm13.51 5.04c-.35.66-.53.99-.89 1.65-3.95-2.14-5.93-3.22-9.88-5.36.34-.62.5-.93.84-1.56 3.97 2.11 5.96 3.16 9.93 5.27ZM534.87 417.33l-6.62-3c-.83-.38-1.55-.46-2.14-.25s-1.08.74-1.48 1.58c-.53 1.12-.63 2.06-.31 2.86.32.8 1.13 1.52 2.44 2.17 2.11 1.04 3.17 1.57 5.29 2.61-.33.67-.5 1.01-.84 1.68-4.01-2.03-6.02-3.04-10.03-5.07.26-.51.39-.77.64-1.29.6.17.9.25 1.51.42.02-.03.02-.05.04-.08-.33-.57-.49-1.22-.48-1.94.01-.72.19-1.44.53-2.17.6-1.27 1.33-2.1 2.22-2.49.89-.39 1.99-.29 3.3.29 2.68 1.19 4.02 1.78 6.7 2.97-.3.69-.46 1.03-.77 1.72ZM530.3 398.75c.41.15.61.22 1.01.37-.21.86-.31 1.29-.53 2.14.29-.11.65-.17 1.07-.18.42-.02.85.06 1.31.23 1.03.38 1.72 1.06 2.05 2.06.33.99.23 2.16-.29 3.48-.13.34-.29.64-.46.92.06.87.36 1.42.9 1.64.28.12.55.07.79-.13s.49-.62.74-1.24l.8-2.03c.48-1.25 1.08-2.12 1.81-2.62s1.55-.59 2.47-.26c1.17.42 1.87 1.27 2.09 2.56.22 1.29-.06 2.96-.87 4.97-.62 1.55-1.37 2.63-2.22 3.25-.85.62-1.74.72-2.66.33-.63-.27-1.08-.73-1.35-1.37s-.32-1.4-.15-2.27c-.24.24-.53.41-.86.5-.33.09-.67.07-1-.07-.38-.16-.66-.41-.86-.75-.19-.34-.32-.8-.4-1.38-.46.49-1.03.81-1.71.95-.68.14-1.36.06-2.04-.22-1.13-.48-1.85-1.21-2.17-2.18-.32-.97-.21-2.1.31-3.42.23-.57.49-1.06.8-1.47.58-1.52.87-2.28 1.42-3.81Zm8.71 13.8c.56.23 1.1.15 1.61-.26.51-.41.97-1.12 1.37-2.12.6-1.5.82-2.69.7-3.57-.13-.88-.54-1.44-1.22-1.69-.57-.21-1.04-.16-1.41.14-.37.31-.75 1-1.17 2.07-.33.84-.49 1.26-.83 2.1-.32.79-.4 1.48-.24 2.06.16.58.55 1.01 1.19 1.27Zm-8.41-4.58c.73.3 1.37.31 1.92.02s.99-.83 1.31-1.63c.66-1.67.22-2.79-1.29-3.37-1.58-.6-2.68-.07-3.33 1.57-.31.78-.35 1.46-.13 2.04.23.58.73 1.04 1.51 1.36Z"/>
      </g>
      <g>
        <path d="M144.67 436.18a7.13 7.13 0 0 0 1 1.45c-.46.24-.69.37-1.15.61-.18-.14-.39-.38-.63-.72-.24-.34-.44-.65-.59-.94-1.14-2.21-.64-3.84 1.42-4.84 2.41-1.17 3.61-1.75 6.02-2.91-.3-.62-.45-.93-.74-1.56.3-.14.45-.21.74-.35.55.5.82.75 1.37 1.24 1-.14 1.49-.22 2.49-.37l.45.92c-.93.47-1.4.7-2.33 1.17.62 1.24.93 1.85 1.58 3.07l-1.17.62c-.65-1.23-.97-1.85-1.6-3.1-2.37 1.18-3.55 1.78-5.91 2.96-.61.3-.99.7-1.15 1.18-.16.49-.09 1.02.2 1.58ZM148.19 445.34c-.98-1.62-1.29-3.18-.94-4.62.35-1.44 1.33-2.59 2.9-3.45 1.59-.87 3.08-1.14 4.48-.83 1.4.31 2.48 1.13 3.29 2.49.76 1.27.99 2.51.67 3.74-.32 1.23-1.1 2.27-2.37 3.09-.36.23-.54.35-.9.58-1.85-2.85-2.73-4.31-4.41-7.28-1.13.68-1.82 1.5-2.06 2.46s-.02 2 .65 3.11a10.54 10.54 0 0 0 2.78 3.03c-.51.33-.77.49-1.28.82-.59-.43-1.09-.88-1.51-1.34-.42-.46-.86-1.06-1.3-1.8Zm8.5-5.7c-.49-.82-1.13-1.34-1.93-1.54-.8-.2-1.67-.1-2.63.32 1.26 2.23 1.92 3.33 3.28 5.49.91-.57 1.47-1.23 1.68-1.96.22-.74.08-1.5-.41-2.31ZM155.45 456.26c-1.09-1.49-1.5-2.96-1.25-4.36.26-1.4 1.16-2.6 2.68-3.62 1.56-1.05 3.04-1.45 4.43-1.24 1.39.21 2.58 1.02 3.62 2.44.33.46.62.95.87 1.47s.41.96.48 1.31c-.59.18-.89.26-1.49.44-.12-.41-.28-.83-.49-1.27-.2-.44-.41-.8-.62-1.09-1.43-1.95-3.3-2.13-5.7-.48-1.14.79-1.83 1.64-2.08 2.57-.25.93-.01 1.91.72 2.9.62.85 1.43 1.6 2.42 2.23-.48.37-.72.55-1.2.91-.83-.44-1.63-1.18-2.4-2.23ZM165.04 467.77c2.17-1.94 3.25-2.91 5.41-4.85.68-.61 1.04-1.23 1.08-1.86s-.24-1.3-.86-2.01c-.82-.95-1.65-1.44-2.51-1.48-.86-.04-1.86.4-3 1.33-1.82 1.49-2.73 2.23-4.55 3.72-.49-.6-.73-.9-1.21-1.5 4.99-3.98 7.49-5.96 12.48-9.94.43.54.65.81 1.08 1.34-1.5 1.22-2.24 1.83-3.74 3.06-.45.37-.84.65-1.17.85l.07.08c.64-.07 1.29.05 1.95.35.66.3 1.25.76 1.79 1.39.94 1.09 1.42 2.11 1.42 3.08 0 .97-.51 1.95-1.56 2.91-2.16 1.99-3.24 2.98-5.4 4.96-.52-.57-.78-.85-1.3-1.43ZM175.3 478.16c1.97-2.14 2.95-3.21 4.91-5.36.62-.67.92-1.33.9-1.96-.02-.63-.37-1.27-1.05-1.92-.9-.86-1.77-1.27-2.63-1.23-.86.04-1.81.57-2.85 1.6-1.67 1.66-2.51 2.5-4.18 4.16-.54-.55-.81-.82-1.35-1.38l8.07-7.82c.4.42.61.62 1.02 1.04-.36.52-.53.77-.89 1.29l.06.06c.65-.13 1.32-.07 2 .18.68.25 1.32.65 1.9 1.2 1.03.98 1.59 1.94 1.69 2.9.1.97-.33 1.99-1.28 3.06-1.95 2.19-2.93 3.28-4.89 5.47-.58-.51-.86-.77-1.43-1.3ZM188.85 471.07c.25-.3.51-.45.78-.46.27-.01.51.08.74.26.21.18.34.4.38.67.04.27-.06.55-.31.85-.24.3-.5.45-.78.47-.28.01-.53-.07-.74-.25a1.02 1.02 0 0 1-.39-.69c-.03-.27.08-.55.33-.84Zm-7.64 12.23c-.6-.49-.89-.74-1.48-1.24 2.91-3.43 4.36-5.14 7.26-8.57.55.46.82.69 1.37 1.15-2.86 3.47-4.29 5.2-7.15 8.67ZM188.61 489.28c-1.53-1.11-2.42-2.42-2.66-3.88-.24-1.46.21-2.9 1.33-4.31 1.12-1.42 2.39-2.25 3.79-2.52s2.72.07 4 1c1.2.87 1.89 1.92 2.08 3.18.19 1.26-.12 2.52-.97 3.77-.24.36-.36.53-.6.89-2.82-1.91-4.2-2.9-6.9-4.97-.77 1.07-1.09 2.09-.94 3.06s.76 1.85 1.81 2.61c1.11.8 2.36 1.37 3.75 1.7-.34.5-.51.75-.86 1.25-.71-.17-1.35-.39-1.92-.65-.57-.26-1.2-.64-1.9-1.15Zm5.6-8.57c-.77-.56-1.56-.79-2.37-.66-.81.12-1.58.56-2.29 1.32 2.03 1.55 3.06 2.31 5.16 3.77.61-.88.87-1.7.78-2.46-.09-.76-.51-1.41-1.28-1.97ZM200.02 489.79c.5-.18 1.2-.39 2.11-.62 2.15-.49 3.21-.75 5.31-1.32.74.43 1.12.64 1.87 1.05-2.62.74-3.95 1.08-6.64 1.69.5 3.31.8 4.97 1.51 8.31-.83-.46-1.24-.69-2.06-1.16-.52-2.75-.75-4.12-1.13-6.84-.71.08-1.07.12-1.79.19l-2.23 3.56c-.65-.41-.98-.61-1.62-1.03 3.46-5.36 5.19-8.05 8.65-13.41.58.37.87.56 1.45.92-1.8 2.87-2.7 4.3-4.49 7.17-.2.32-.53.8-1 1.43.03.02.05.03.08.05Z"/>
      </g>
      <g>
        <g class="cls-3">
          <circle class="cls-1" cx="861.09" cy="256.09" r="73.69"/>
        </g>
        <g class="cls-3">
          <circle class="cls-1" cx="861.1" cy="240.24" r="30.48"/>
        </g>
        <g class="cls-3">
          <circle class="cls-1" cx="879.14" cy="267.01" r="30.48"/>
        </g>
        <g class="cls-3">
          <circle class="cls-1" cx="842.58" cy="267.01" r="30.48"/>
        </g>
        <path class="cls-2" d="M891.53 238.06c-3.79-1.7-7.99-2.64-12.41-2.64-6.86 0-13.19 2.27-18.28 6.1a30.298 30.298 0 0 0-18.28-6.1c-4.23 0-8.26.86-11.92 2.42.67-16.23 14.04-29.18 30.44-29.18s29.9 13.07 30.45 29.4Z"/>
      </g>
      <g>
        <g class="cls-3">
          <circle class="cls-2" cx="861.09" cy="603.34" r="73.69"/>
        </g>
        <g class="cls-3">
          <circle class="cls-2" cx="861.1" cy="587.49" r="30.48"/>
        </g>
        <g class="cls-3">
          <circle class="cls-2" cx="879.14" cy="614.25" r="30.48"/>
        </g>
        <g class="cls-3">
          <circle class="cls-2" cx="842.58" cy="614.25" r="30.48"/>
        </g>
      </g>
      <g>
        <g class="cls-3">
          <circle class="cls-1" cx="861.09" cy="429.71" r="73.69"/>
        </g>
        <g class="cls-3">
          <circle class="cls-1" cx="861.1" cy="413.87" r="30.48"/>
        </g>
        <g class="cls-3">
          <circle class="cls-1" cx="879.14" cy="440.63" r="30.48"/>
        </g>
        <g class="cls-3">
          <circle class="cls-1" cx="842.58" cy="440.63" r="30.48"/>
        </g>
        <path class="cls-2" d="M872.97 440.15c0 .43-.01.86-.03 1.29-3.67 1.56-7.7 2.42-11.93 2.42s-8.61-.94-12.4-2.64c-.02-.35-.03-.71-.03-1.07 0-9.98 4.79-18.83 12.19-24.39 7.41 5.56 12.2 14.41 12.2 24.39Z"/>
      </g>
      <g>
        <g class="cls-3">
          <circle class="cls-1" cx="861.09" cy="82.47" r="73.69"/>
        </g>
        <g class="cls-3">
          <circle class="cls-1" cx="861.1" cy="66.62" r="30.48"/>
        </g>
        <g class="cls-3">
          <circle class="cls-1" cx="879.14" cy="93.38" r="30.48"/>
        </g>
        <g class="cls-3">
          <circle class="cls-1" cx="842.58" cy="93.38" r="30.48"/>
        </g>
        <path class="cls-2" d="M892.06 65.35c.02.35.03.71.03 1.07 0 12.6-7.65 23.42-18.55 28.05.02-.42.03-.85.03-1.28 0-9.97-4.79-18.82-12.19-24.38 5.09-3.84 11.41-6.1 18.27-6.1 4.42 0 8.62.94 12.41 2.64Z"/>
      </g>
      <text class="cls-5" transform="translate(970.51 57.38)"><tspan x="0" y="0">Uitgebalanceerde</tspan><tspan x="0" y="25.2">brede ambachtslieden</tspan></text>
      <text class="cls-5" transform="translate(970.51 236.16)"><tspan x="0" y="0">Specialisten</tspan><tspan x="0" y="25.2">(diepte en passie)</tspan></text>
      <text class="cls-5" transform="translate(970.51 414.95)"><tspan x="0" y="0">Eigen ontwerpbureau,</tspan><tspan x="0" y="25.2">MKB-duizendpoten en</tspan><tspan x="0" y="50.4">UX eenhoorns</tspan></text>
      <text class="cls-5" transform="translate(970.51 593.74)"><tspan x="0" y="0">Design researchers en </tspan><tspan x="0" y="25.2">product owners</tspan></text>
    </g>
  </g>
</svg>
