<svg id="Layer_1" xmlns="http://www.w3.org/2000/svg" viewBox="0 0 826 512">
  <defs>
    <style>
      .cls-1{fill:#fff}.cls-3{font-family:OpenSans-Bold,&apos;Open Sans&apos;;font-size:36px}.cls-6,.cls-7{stroke:#000;stroke-miterlimit:10}.cls-7{fill:none}.cls-6{fill:#fff021}
    </style>
  </defs>
  <path fill="#f0ebf0" stroke="#000" stroke-miterlimit="10" d="M37 26h760.5v460H37z"/>
  <path d="M37 26h760v53H37z"/>
  <rect class="cls-1" x="27.75" y="16.5" width="19" height="19" rx="2.73" ry="2.73"/>
  <path d="M44.02 17c1.23 0 2.23 1 2.23 2.23v13.53c0 1.23-1 2.23-2.23 2.23H30.49c-1.23 0-2.23-1-2.23-2.23V19.23c0-1.23 1-2.23 2.23-2.23h13.53m0-1H30.49c-1.78 0-3.23 1.45-3.23 3.23v13.53c0 1.78 1.45 3.23 3.23 3.23h13.53c1.78 0 3.23-1.45 3.23-3.23V19.23c0-1.78-1.45-3.23-3.23-3.23Z"/>
  <rect class="cls-1" x="788" y="16.5" width="19" height="19" rx="2.73" ry="2.73"/>
  <path d="M804.27 17c1.23 0 2.23 1 2.23 2.23v13.53c0 1.23-1 2.23-2.23 2.23h-13.53c-1.23 0-2.23-1-2.23-2.23V19.23c0-1.23 1-2.23 2.23-2.23h13.53m0-1h-13.53c-1.78 0-3.23 1.45-3.23 3.23v13.53c0 1.78 1.45 3.23 3.23 3.23h13.53c1.78 0 3.23-1.45 3.23-3.23V19.23c0-1.78-1.45-3.23-3.23-3.23Z"/>
  <rect class="cls-1" x="788" y="476.25" width="19" height="19" rx="2.73" ry="2.73"/>
  <path d="M804.27 476.75c1.23 0 2.23 1 2.23 2.23v13.53c0 1.23-1 2.23-2.23 2.23h-13.53c-1.23 0-2.23-1-2.23-2.23v-13.53c0-1.23 1-2.23 2.23-2.23h13.53m0-1h-13.53c-1.78 0-3.23 1.45-3.23 3.23v13.53c0 1.78 1.45 3.23 3.23 3.23h13.53c1.78 0 3.23-1.45 3.23-3.23v-13.53c0-1.78-1.45-3.23-3.23-3.23Z"/>
  <rect class="cls-1" x="27.75" y="476.25" width="19" height="19" rx="2.73" ry="2.73"/>
  <path d="M44.02 476.75c1.23 0 2.23 1 2.23 2.23v13.53c0 1.23-1 2.23-2.23 2.23H30.49c-1.23 0-2.23-1-2.23-2.23v-13.53c0-1.23 1-2.23 2.23-2.23h13.53m0-1H30.49c-1.78 0-3.23 1.45-3.23 3.23v13.53c0 1.78 1.45 3.23 3.23 3.23h13.53c1.78 0 3.23-1.45 3.23-3.23v-13.53c0-1.78-1.45-3.23-3.23-3.23Z"/>
  <path class="cls-6" d="M149.5 107.5h155v54h-155z"/>
  <text class="cls-3" transform="translate(163 146.37)"><tspan x="0" y="0">Huidig</tspan></text>
  <g>
    <path class="cls-6" d="M500.5 109.5h155v54h-155z"/>
    <text class="cls-3" transform="translate(520 149.37)"><tspan x="0" y="0">Nieuw</tspan></text>
  </g>
  <g>
    <path d="M90.16 212.03h-1.42v-9.16c0-.76.02-1.48.07-2.16-.12.12-.26.25-.41.39s-.85.71-2.09 1.71l-.77-1 3.4-2.63h1.23v12.85ZM95.5 211.1c0-.39.09-.69.27-.89.18-.2.44-.3.77-.3s.6.1.8.3c.19.2.29.5.29.89s-.1.67-.29.88-.46.31-.79.31c-.3 0-.55-.09-.74-.28-.2-.19-.29-.49-.29-.91ZM103.64 199.18h3.63c1.71 0 2.94.25 3.7.76s1.14 1.32 1.14 2.42c0 .76-.21 1.39-.64 1.88-.42.5-1.04.82-1.86.96v.09c1.95.33 2.93 1.36 2.93 3.08 0 1.15-.39 2.04-1.16 2.69s-1.86.97-3.26.97h-4.48v-12.85Zm1.49 5.5h2.46c1.05 0 1.81-.17 2.28-.5s.69-.89.69-1.67c0-.72-.26-1.24-.77-1.56s-1.34-.48-2.46-.48h-2.2v4.21Zm0 1.27v4.81h2.68c1.04 0 1.82-.2 2.34-.6.52-.4.79-1.03.79-1.88 0-.8-.27-1.38-.8-1.76s-1.35-.56-2.45-.56h-2.56ZM119.15 212.21c-1.42 0-2.55-.43-3.37-1.3s-1.23-2.07-1.23-3.61.38-2.79 1.15-3.7 1.79-1.37 3.08-1.37c1.21 0 2.16.4 2.87 1.19s1.05 1.84 1.05 3.14v.92h-6.64c.03 1.13.31 1.99.86 2.58s1.31.88 2.29.88c1.04 0 2.06-.22 3.08-.65v1.3c-.52.22-1 .38-1.46.48-.46.1-1.02.14-1.67.14Zm-.4-8.76c-.77 0-1.39.25-1.85.76s-.73 1.2-.81 2.09h5.04c0-.92-.21-1.62-.62-2.11-.41-.49-1-.73-1.76-.73ZM133.07 202.4v.92l-1.78.21c.16.21.31.47.44.8.13.33.19.71.19 1.12 0 .94-.32 1.7-.97 2.26s-1.53.84-2.65.84c-.29 0-.56-.02-.81-.07-.62.33-.93.74-.93 1.24 0 .26.11.46.33.58.22.13.59.19 1.12.19h1.71c1.04 0 1.84.22 2.4.66s.84 1.08.84 1.92c0 1.07-.43 1.88-1.28 2.44s-2.1.84-3.74.84c-1.26 0-2.23-.23-2.91-.7s-1.02-1.13-1.02-1.99c0-.59.19-1.09.56-1.52s.9-.72 1.58-.87c-.25-.11-.45-.28-.62-.52s-.25-.51-.25-.82c0-.35.09-.66.28-.92s.48-.52.89-.76c-.5-.21-.9-.55-1.22-1.05s-.47-1.05-.47-1.69c0-1.05.32-1.87.95-2.44.63-.57 1.53-.86 2.69-.86.5 0 .96.06 1.36.18h3.33Zm-7.68 11.25c0 .52.22.92.66 1.19s1.07.4 1.89.4c1.22 0 2.13-.18 2.72-.55s.88-.86.88-1.49c0-.52-.16-.88-.48-1.08-.32-.2-.93-.3-1.82-.3h-1.75c-.66 0-1.18.16-1.55.47s-.55.77-.55 1.36Zm.79-8.17c0 .67.19 1.18.57 1.53s.91.52 1.59.52c1.42 0 2.14-.69 2.14-2.07s-.72-2.17-2.16-2.17c-.69 0-1.21.18-1.58.55s-.55.92-.55 1.64ZM139.44 202.22c.43 0 .81.04 1.15.11l-.2 1.35c-.4-.09-.75-.13-1.05-.13-.78 0-1.45.32-2 .95s-.83 1.42-.83 2.36v5.17h-1.46v-9.63h1.2l.17 1.78h.07c.36-.63.79-1.11 1.29-1.45s1.06-.51 1.66-.51ZM142.27 199.79c0-.33.08-.58.25-.73s.37-.23.62-.23.44.08.61.24.25.4.25.73-.08.57-.25.73c-.17.16-.37.24-.61.24a.86.86 0 0 1-.62-.24c-.16-.16-.25-.41-.25-.73Zm1.58 12.24h-1.46v-9.63h1.46v9.63ZM145.77 216.35c-.56 0-1.01-.07-1.35-.22v-1.19c.4.12.8.18 1.2.18.46 0 .79-.12 1.01-.37.21-.25.32-.63.32-1.14V202.4h1.46v11.11c0 1.9-.88 2.85-2.63 2.85Zm1.05-16.57c0-.33.08-.58.25-.73s.37-.23.62-.23.44.08.61.24.25.4.25.73-.08.57-.25.73c-.17.16-.37.24-.61.24a.86.86 0 0 1-.62-.24c-.16-.16-.25-.41-.25-.73ZM155.98 212.21c-.63 0-1.2-.12-1.72-.35-.52-.23-.95-.59-1.31-1.07h-.11c.07.56.11 1.1.11 1.6v3.96h-1.46v-13.96h1.19l.2 1.32h.07c.38-.53.81-.91 1.31-1.14s1.07-.35 1.71-.35c1.28 0 2.26.44 2.96 1.31s1.04 2.1 1.04 3.67-.35 2.81-1.06 3.69c-.71.88-1.69 1.31-2.94 1.31Zm-.21-8.75c-.98 0-1.7.27-2.14.82s-.67 1.41-.68 2.6v.33c0 1.35.23 2.32.68 2.91s1.17.87 2.17.87c.83 0 1.48-.34 1.96-1.01s.71-1.6.71-2.79-.24-2.12-.71-2.76c-.47-.64-1.14-.96-1.99-.96ZM166.6 212.21c-1.42 0-2.55-.43-3.37-1.3s-1.23-2.07-1.23-3.61.38-2.79 1.15-3.7 1.79-1.37 3.08-1.37c1.21 0 2.16.4 2.87 1.19s1.05 1.84 1.05 3.14v.92h-6.64c.03 1.13.31 1.99.86 2.58s1.31.88 2.29.88c1.04 0 2.06-.22 3.08-.65v1.3c-.52.22-1 .38-1.46.48-.46.1-1.02.14-1.67.14Zm-.4-8.76c-.77 0-1.39.25-1.85.76s-.73 1.2-.81 2.09h5.04c0-.92-.21-1.62-.62-2.11-.41-.49-1-.73-1.76-.73ZM179.22 212.03v-6.23c0-.79-.18-1.37-.54-1.76s-.92-.58-1.68-.58c-1.01 0-1.75.27-2.21.82s-.7 1.44-.7 2.7v5.05h-1.46v-9.63h1.19l.24 1.32h.07c.3-.47.72-.84 1.26-1.1.54-.26 1.14-.39 1.8-.39 1.16 0 2.03.28 2.62.84s.88 1.45.88 2.68v6.28h-1.46ZM192.42 212.21c-1.42 0-2.55-.43-3.37-1.3s-1.23-2.07-1.23-3.61.38-2.79 1.15-3.7 1.79-1.37 3.08-1.37c1.21 0 2.16.4 2.87 1.19s1.05 1.84 1.05 3.14v.92h-6.64c.03 1.13.31 1.99.86 2.58s1.31.88 2.29.88c1.04 0 2.06-.22 3.08-.65v1.3c-.52.22-1 .38-1.46.48-.46.1-1.02.14-1.67.14Zm-.4-8.76c-.77 0-1.39.25-1.85.76s-.73 1.2-.81 2.09h5.04c0-.92-.21-1.62-.62-2.11-.41-.49-1-.73-1.76-.73ZM205.04 212.03v-6.23c0-.79-.18-1.37-.54-1.76s-.92-.58-1.68-.58c-1.01 0-1.75.27-2.21.82s-.7 1.44-.7 2.7v5.05h-1.46v-9.63h1.19l.24 1.32h.07c.3-.47.72-.84 1.26-1.1.54-.26 1.14-.39 1.8-.39 1.16 0 2.03.28 2.62.84s.88 1.45.88 2.68v6.28h-1.46ZM215.61 207.1c.25-.36.64-.83 1.15-1.41l3.11-3.3h1.73l-3.9 4.1 4.17 5.53h-1.77l-3.4-4.55-1.1.95v3.6h-1.44v-13.68h1.44v7.25c0 .32-.02.82-.07 1.49h.07ZM229.54 212.03l-.29-1.37h-.07c-.48.6-.96 1.01-1.44 1.23-.48.21-1.07.32-1.79.32-.96 0-1.7-.25-2.25-.74s-.81-1.19-.81-2.1c0-1.95 1.56-2.96 4.67-3.06l1.63-.05v-.6c0-.76-.16-1.31-.49-1.67-.33-.36-.85-.54-1.56-.54-.8 0-1.71.25-2.72.74l-.45-1.12c.47-.26.99-.46 1.56-.61s1.13-.22 1.7-.22c1.15 0 2 .25 2.55.76s.83 1.33.83 2.45v6.57h-1.08Zm-3.3-1.03c.91 0 1.62-.25 2.14-.75s.78-1.2.78-2.09v-.87l-1.46.06c-1.16.04-2 .22-2.51.54s-.77.82-.77 1.49c0 .53.16.93.48 1.2s.77.41 1.34.41ZM240.19 210.74h-.08c-.67.98-1.68 1.47-3.02 1.47-1.26 0-2.24-.43-2.94-1.29s-1.05-2.09-1.05-3.67.35-2.82 1.05-3.7 1.68-1.32 2.94-1.32 2.31.47 3.01 1.42h.11l-.06-.69-.04-.68v-3.92h1.46v13.68h-1.19l-.19-1.29Zm-2.92.25c1 0 1.72-.27 2.17-.81.45-.54.67-1.42.67-2.62v-.31c0-1.37-.23-2.34-.68-2.92-.45-.58-1.18-.87-2.18-.87-.86 0-1.51.33-1.96 1-.45.67-.68 1.6-.68 2.82s.23 2.16.68 2.79 1.11.94 1.99.94ZM248.73 212.21c-1.42 0-2.55-.43-3.37-1.3s-1.23-2.07-1.23-3.61.38-2.79 1.15-3.7 1.79-1.37 3.08-1.37c1.21 0 2.16.4 2.87 1.19s1.05 1.84 1.05 3.14v.92h-6.64c.03 1.13.31 1.99.86 2.58s1.31.88 2.29.88c1.04 0 2.06-.22 3.08-.65v1.3c-.52.22-1 .38-1.46.48-.46.1-1.02.14-1.67.14Zm-.4-8.76c-.77 0-1.39.25-1.85.76s-.73 1.2-.81 2.09h5.04c0-.92-.21-1.62-.62-2.11-.41-.49-1-.73-1.76-.73ZM259.15 202.22c.43 0 .81.04 1.15.11l-.2 1.35c-.4-.09-.75-.13-1.05-.13-.78 0-1.45.32-2 .95s-.83 1.42-.83 2.36v5.17h-1.46v-9.63h1.2l.17 1.78h.07c.36-.63.79-1.11 1.29-1.45s1.06-.51 1.66-.51ZM266.18 212.21c-1.42 0-2.55-.43-3.37-1.3s-1.23-2.07-1.23-3.61.38-2.79 1.15-3.7 1.79-1.37 3.08-1.37c1.21 0 2.16.4 2.87 1.19s1.05 1.84 1.05 3.14v.92h-6.64c.03 1.13.31 1.99.86 2.58s1.31.88 2.29.88c1.04 0 2.06-.22 3.08-.65v1.3c-.52.22-1 .38-1.46.48-.46.1-1.02.14-1.67.14Zm-.4-8.76c-.77 0-1.39.25-1.85.76s-.73 1.2-.81 2.09h5.04c0-.92-.21-1.62-.62-2.11-.41-.49-1-.73-1.76-.73ZM278.8 212.03v-6.23c0-.79-.18-1.37-.54-1.76s-.92-.58-1.68-.58c-1.01 0-1.75.27-2.21.82s-.7 1.44-.7 2.7v5.05h-1.46v-9.63h1.19l.24 1.32h.07c.3-.47.72-.84 1.26-1.1.54-.26 1.14-.39 1.8-.39 1.16 0 2.03.28 2.62.84s.88 1.45.88 2.68v6.28h-1.46ZM93.2 238.03h-8.45v-1.26l3.38-3.4c1.03-1.04 1.71-1.79 2.04-2.23s.57-.88.74-1.3.25-.88.25-1.36c0-.69-.21-1.23-.62-1.63s-.99-.6-1.73-.6c-.53 0-1.04.09-1.52.26s-1.01.5-1.6.96l-.77-.99c1.18-.98 2.47-1.48 3.87-1.48 1.21 0 2.15.31 2.84.93.69.62 1.03 1.45 1.03 2.49 0 .81-.23 1.62-.69 2.42s-1.31 1.8-2.57 3.02l-2.81 2.75v.07h6.61v1.35ZM95.5 237.1c0-.39.09-.69.27-.89.18-.2.44-.3.77-.3s.6.1.8.3c.19.2.29.5.29.89s-.1.67-.29.88-.46.31-.79.31c-.3 0-.55-.09-.74-.28-.2-.19-.29-.49-.29-.91ZM109.14 226.33c-1.41 0-2.53.47-3.34 1.41-.82.94-1.23 2.23-1.23 3.86s.39 2.98 1.18 3.9c.79.92 1.91 1.38 3.37 1.38.9 0 1.92-.16 3.07-.48v1.31c-.89.33-1.99.5-3.3.5-1.89 0-3.35-.57-4.38-1.72s-1.54-2.78-1.54-4.9c0-1.32.25-2.48.74-3.48s1.21-1.76 2.14-2.3 2.03-.81 3.3-.81c1.35 0 2.53.25 3.53.74l-.63 1.28c-.97-.46-1.95-.69-2.92-.69ZM123.09 233.21c0 1.57-.4 2.8-1.19 3.68s-1.88 1.32-3.28 1.32c-.86 0-1.63-.2-2.29-.61s-1.18-.98-1.55-1.74-.54-1.64-.54-2.65c0-1.57.39-2.79 1.18-3.67s1.88-1.31 3.27-1.31 2.42.45 3.21 1.34 1.19 2.11 1.19 3.64Zm-7.34 0c0 1.23.25 2.17.74 2.81s1.22.97 2.17.97 1.68-.32 2.18-.96c.5-.64.74-1.58.74-2.82s-.25-2.15-.74-2.79-1.23-.95-2.19-.95-1.68.31-2.16.94-.73 1.56-.73 2.8ZM132.24 238.03v-6.23c0-.79-.18-1.37-.54-1.76s-.92-.58-1.68-.58c-1.01 0-1.75.27-2.21.82s-.7 1.44-.7 2.7v5.05h-1.46v-9.63h1.19l.24 1.32h.07c.3-.47.72-.84 1.26-1.1.54-.26 1.14-.39 1.8-.39 1.16 0 2.03.28 2.62.84s.88 1.45.88 2.68v6.28h-1.46ZM140.55 238.21c-1.39 0-2.47-.43-3.24-1.29s-1.15-2.07-1.15-3.64.39-2.86 1.16-3.74 1.88-1.32 3.32-1.32c.46 0 .93.05 1.39.15s.83.22 1.09.35l-.45 1.24c-.32-.13-.67-.24-1.05-.32s-.72-.13-1.01-.13c-1.96 0-2.94 1.25-2.94 3.74 0 1.18.24 2.09.72 2.72s1.19.95 2.12.95c.8 0 1.63-.17 2.47-.52v1.29c-.64.33-1.46.5-2.43.5ZM149.33 238.21c-1.42 0-2.55-.43-3.37-1.3s-1.23-2.07-1.23-3.61.38-2.79 1.15-3.7 1.79-1.37 3.08-1.37c1.21 0 2.16.4 2.87 1.19s1.05 1.84 1.05 3.14v.92h-6.64c.03 1.13.31 1.99.86 2.58s1.31.88 2.29.88c1.04 0 2.06-.22 3.08-.65v1.3c-.52.22-1 .38-1.46.48-.46.1-1.02.14-1.67.14Zm-.4-8.76c-.77 0-1.39.25-1.85.76s-.73 1.2-.81 2.09h5.04c0-.92-.21-1.62-.62-2.11-.41-.49-1-.73-1.76-.73ZM159.85 238.21c-.63 0-1.2-.12-1.72-.35-.52-.23-.95-.59-1.31-1.07h-.11c.07.56.11 1.1.11 1.6v3.96h-1.46v-13.96h1.19l.2 1.32h.07c.38-.53.81-.91 1.31-1.14s1.07-.35 1.71-.35c1.28 0 2.26.44 2.96 1.31s1.04 2.1 1.04 3.67-.35 2.81-1.06 3.69c-.71.88-1.69 1.31-2.94 1.31Zm-.21-8.75c-.98 0-1.7.27-2.14.82s-.67 1.41-.68 2.6v.33c0 1.35.23 2.32.68 2.91s1.17.87 2.17.87c.83 0 1.48-.34 1.96-1.01s.71-1.6.71-2.79-.24-2.12-.71-2.76c-.47-.64-1.14-.96-1.99-.96ZM169.51 237c.26 0 .51-.02.75-.06.24-.04.43-.08.57-.12v1.12c-.16.08-.39.14-.7.19-.31.05-.58.07-.83.07-1.86 0-2.79-.98-2.79-2.94v-5.73h-1.38v-.7l1.38-.61.62-2.06h.84v2.23h2.79v1.13h-2.79v5.67c0 .58.14 1.03.41 1.34s.65.47 1.13.47ZM174.12 228.4v6.25c0 .79.18 1.37.54 1.76s.92.58 1.68.58c1.01 0 1.74-.28 2.21-.83s.7-1.45.7-2.7v-5.06h1.46v9.63h-1.2l-.21-1.29h-.08c-.3.47-.71.84-1.24 1.09s-1.14.38-1.81.38c-1.17 0-2.05-.28-2.63-.83s-.87-1.45-.87-2.67v-6.3h1.48ZM189.72 238.03l-.29-1.37h-.07c-.48.6-.96 1.01-1.44 1.23-.48.21-1.07.32-1.79.32-.96 0-1.7-.25-2.25-.74s-.81-1.19-.81-2.1c0-1.95 1.56-2.96 4.67-3.06l1.63-.05v-.6c0-.76-.16-1.31-.49-1.67-.33-.36-.85-.54-1.56-.54-.8 0-1.71.25-2.72.74l-.45-1.12c.47-.26.99-.46 1.56-.61s1.13-.22 1.7-.22c1.15 0 2 .25 2.55.76s.83 1.33.83 2.45v6.57h-1.08Zm-3.3-1.03c.91 0 1.62-.25 2.14-.75s.78-1.2.78-2.09v-.87l-1.46.06c-1.16.04-2 .22-2.51.54s-.77.82-.77 1.49c0 .53.16.93.48 1.2s.77.41 1.34.41ZM195.27 238.03h-1.46v-13.68h1.46v13.68ZM198.24 225.79c0-.33.08-.58.25-.73s.37-.23.62-.23.44.08.61.24.25.4.25.73-.08.57-.25.73c-.17.16-.37.24-.61.24a.86.86 0 0 1-.62-.24c-.16-.16-.25-.41-.25-.73Zm1.58 12.24h-1.46v-9.63h1.46v9.63ZM209.13 235.4c0 .9-.33 1.59-1 2.07s-1.61.73-2.81.73c-1.28 0-2.27-.2-2.99-.61v-1.35c.46.23.96.42 1.49.55s1.04.2 1.53.2c.76 0 1.35-.12 1.76-.36s.62-.61.62-1.11c0-.38-.16-.7-.49-.96s-.96-.58-1.9-.95c-.9-.33-1.53-.62-1.91-.88-.38-.25-.66-.53-.84-.85s-.28-.69-.28-1.13c0-.79.32-1.4.96-1.86s1.51-.68 2.63-.68c1.04 0 2.05.21 3.04.63l-.52 1.19c-.97-.4-1.84-.6-2.63-.6-.69 0-1.21.11-1.56.33s-.53.52-.53.9c0 .26.07.48.2.66s.34.35.64.52.86.4 1.69.71c1.14.42 1.91.83 2.32 1.26s.6.95.6 1.59ZM215.57 238.21c-1.42 0-2.55-.43-3.37-1.3s-1.23-2.07-1.23-3.61.38-2.79 1.15-3.7 1.79-1.37 3.08-1.37c1.21 0 2.16.4 2.87 1.19s1.05 1.84 1.05 3.14v.92h-6.64c.03 1.13.31 1.99.86 2.58s1.31.88 2.29.88c1.04 0 2.06-.22 3.08-.65v1.3c-.52.22-1 .38-1.46.48-.46.1-1.02.14-1.67.14Zm-.4-8.76c-.77 0-1.39.25-1.85.76s-.73 1.2-.81 2.09h5.04c0-.92-.21-1.62-.62-2.11-.41-.49-1-.73-1.76-.73ZM225.99 228.22c.43 0 .81.04 1.15.11l-.2 1.35c-.4-.09-.75-.13-1.05-.13-.78 0-1.45.32-2 .95s-.83 1.42-.83 2.36v5.17h-1.46v-9.63h1.2l.17 1.78h.07c.36-.63.79-1.11 1.29-1.45s1.06-.51 1.66-.51ZM233.02 238.21c-1.42 0-2.55-.43-3.37-1.3s-1.23-2.07-1.23-3.61.38-2.79 1.15-3.7 1.79-1.37 3.08-1.37c1.21 0 2.16.4 2.87 1.19s1.05 1.84 1.05 3.14v.92h-6.64c.03 1.13.31 1.99.86 2.58s1.31.88 2.29.88c1.04 0 2.06-.22 3.08-.65v1.3c-.52.22-1 .38-1.46.48-.46.1-1.02.14-1.67.14Zm-.4-8.76c-.77 0-1.39.25-1.85.76s-.73 1.2-.81 2.09H235c0-.92-.21-1.62-.62-2.11-.41-.49-1-.73-1.76-.73ZM245.64 238.03v-6.23c0-.79-.18-1.37-.54-1.76s-.92-.58-1.68-.58c-1.01 0-1.75.27-2.21.82s-.7 1.44-.7 2.7v5.05h-1.46v-9.63h1.19l.24 1.32h.07c.3-.47.72-.84 1.26-1.1.54-.26 1.14-.39 1.8-.39 1.16 0 2.03.28 2.62.84s.88 1.45.88 2.68v6.28h-1.46ZM92.72 254.2c0 .82-.23 1.49-.69 2.01s-1.11.87-1.96 1.05v.07c1.03.13 1.8.46 2.29.98s.75 1.22.75 2.07c0 1.22-.42 2.17-1.27 2.83-.85.66-2.06.99-3.62.99-.68 0-1.3-.05-1.87-.15-.57-.1-1.11-.28-1.65-.54v-1.39c.56.28 1.15.49 1.78.63.63.14 1.23.22 1.79.22 2.22 0 3.33-.87 3.33-2.61 0-1.56-1.22-2.34-3.67-2.34h-1.27v-1.26h1.28c1 0 1.8-.22 2.38-.66s.88-1.06.88-1.84c0-.63-.22-1.12-.65-1.48s-1.02-.54-1.75-.54c-.56 0-1.09.08-1.59.23s-1.07.43-1.71.84l-.74-.98c.53-.42 1.14-.74 1.82-.98a6.56 6.56 0 0 1 2.18-.36c1.25 0 2.22.29 2.91.86.69.57 1.04 1.36 1.04 2.35ZM95.5 263.1c0-.39.09-.69.27-.89.18-.2.44-.3.77-.3s.6.1.8.3c.19.2.29.5.29.89s-.1.67-.29.88-.46.31-.79.31c-.3 0-.55-.09-.74-.28-.2-.19-.29-.49-.29-.91ZM110.98 251.18h1.61l-4.63 12.85h-1.48l-4.61-12.85h1.58l2.95 8.31c.34.96.61 1.88.81 2.79.21-.95.49-1.9.83-2.84l2.94-8.26ZM118.2 264.21c-1.42 0-2.55-.43-3.37-1.3s-1.23-2.07-1.23-3.61.38-2.79 1.15-3.7 1.79-1.37 3.08-1.37c1.21 0 2.16.4 2.87 1.19s1.05 1.84 1.05 3.14v.92h-6.64c.03 1.13.31 1.99.86 2.58s1.31.88 2.29.88c1.04 0 2.06-.22 3.08-.65v1.3c-.52.22-1 .38-1.46.48-.46.1-1.02.14-1.67.14Zm-.4-8.76c-.77 0-1.39.25-1.85.76s-.73 1.2-.81 2.09h5.04c0-.92-.21-1.62-.62-2.11-.41-.49-1-.73-1.76-.73ZM128.63 254.22c.43 0 .81.04 1.15.11l-.2 1.35c-.4-.09-.75-.13-1.05-.13-.78 0-1.45.32-2 .95s-.83 1.42-.83 2.36v5.17h-1.46v-9.63h1.2l.17 1.78h.07c.36-.63.79-1.11 1.29-1.45s1.06-.51 1.66-.51ZM136.06 254.24c1.27 0 2.25.43 2.95 1.3s1.05 2.09 1.05 3.67-.35 2.81-1.06 3.69c-.71.88-1.69 1.31-2.94 1.31-.63 0-1.2-.12-1.72-.35-.52-.23-.95-.59-1.31-1.07h-.11l-.31 1.24h-1.05v-13.68h1.46v3.32c0 .74-.02 1.41-.07 2h.07c.68-.96 1.69-1.44 3.02-1.44Zm-.21 1.22c-1 0-1.71.29-2.15.86-.44.57-.66 1.53-.66 2.89s.23 2.32.68 2.91 1.17.87 2.17.87c.9 0 1.56-.33 2-.98s.66-1.59.66-2.82-.22-2.19-.66-2.8-1.12-.92-2.04-.92ZM146.68 264.21c-1.42 0-2.55-.43-3.37-1.3s-1.23-2.07-1.23-3.61.38-2.79 1.15-3.7 1.79-1.37 3.08-1.37c1.21 0 2.16.4 2.87 1.19s1.05 1.84 1.05 3.14v.92h-6.64c.03 1.13.31 1.99.86 2.58s1.31.88 2.29.88c1.04 0 2.06-.22 3.08-.65v1.3c-.52.22-1 .38-1.46.48-.46.1-1.02.14-1.67.14Zm-.4-8.76c-.77 0-1.39.25-1.85.76s-.73 1.2-.81 2.09h5.04c0-.92-.21-1.62-.62-2.11-.41-.49-1-.73-1.76-.73ZM156.78 264.21c-1.42 0-2.55-.43-3.37-1.3s-1.23-2.07-1.23-3.61.38-2.79 1.15-3.7 1.79-1.37 3.08-1.37c1.21 0 2.16.4 2.87 1.19s1.05 1.84 1.05 3.14v.92h-6.64c.03 1.13.31 1.99.86 2.58s1.31.88 2.29.88c1.04 0 2.06-.22 3.08-.65v1.3c-.52.22-1 .38-1.46.48-.46.1-1.02.14-1.67.14Zm-.4-8.76c-.77 0-1.39.25-1.85.76s-.73 1.2-.81 2.09h5.04c0-.92-.21-1.62-.62-2.11-.41-.49-1-.73-1.76-.73ZM164.27 264.03h-1.46v-13.68h1.46v13.68ZM173.92 262.74h-.08c-.67.98-1.68 1.47-3.02 1.47-1.26 0-2.24-.43-2.94-1.29s-1.05-2.09-1.05-3.67.35-2.82 1.05-3.7 1.68-1.32 2.94-1.32 2.31.47 3.01 1.42h.11l-.06-.69-.04-.68v-3.92h1.46v13.68h-1.19l-.19-1.29Zm-2.92.25c1 0 1.72-.27 2.17-.81.45-.54.67-1.42.67-2.62v-.31c0-1.37-.23-2.34-.68-2.92-.45-.58-1.18-.87-2.18-.87-.86 0-1.51.33-1.96 1-.45.67-.68 1.6-.68 2.82s.23 2.16.68 2.79 1.11.94 1.99.94ZM182.46 264.21c-1.42 0-2.55-.43-3.37-1.3s-1.23-2.07-1.23-3.61.38-2.79 1.15-3.7 1.79-1.37 3.08-1.37c1.21 0 2.16.4 2.87 1.19s1.05 1.84 1.05 3.14v.92h-6.64c.03 1.13.31 1.99.86 2.58s1.31.88 2.29.88c1.04 0 2.06-.22 3.08-.65v1.3c-.52.22-1 .38-1.46.48-.46.1-1.02.14-1.67.14Zm-.4-8.76c-.77 0-1.39.25-1.85.76s-.73 1.2-.81 2.09h5.04c0-.92-.21-1.62-.62-2.11-.41-.49-1-.73-1.76-.73ZM195.08 264.03v-6.23c0-.79-.18-1.37-.54-1.76s-.92-.58-1.68-.58c-1.01 0-1.75.27-2.21.82s-.7 1.44-.7 2.7v5.05h-1.46v-9.63h1.19l.24 1.32h.07c.3-.47.72-.84 1.26-1.1.54-.26 1.14-.39 1.8-.39 1.16 0 2.03.28 2.62.84s.88 1.45.88 2.68v6.28h-1.46ZM208.28 264.21c-1.42 0-2.55-.43-3.37-1.3s-1.23-2.07-1.23-3.61.38-2.79 1.15-3.7 1.79-1.37 3.08-1.37c1.21 0 2.16.4 2.87 1.19s1.05 1.84 1.05 3.14v.92h-6.64c.03 1.13.31 1.99.86 2.58s1.31.88 2.29.88c1.04 0 2.06-.22 3.08-.65v1.3c-.52.22-1 .38-1.46.48-.46.1-1.02.14-1.67.14Zm-.4-8.76c-.77 0-1.39.25-1.85.76s-.73 1.2-.81 2.09h5.04c0-.92-.21-1.62-.62-2.11-.41-.49-1-.73-1.76-.73ZM220.9 264.03v-6.23c0-.79-.18-1.37-.54-1.76s-.92-.58-1.68-.58c-1.01 0-1.75.27-2.21.82s-.7 1.44-.7 2.7v5.05h-1.46v-9.63h1.19l.24 1.32h.07c.3-.47.72-.84 1.26-1.1.54-.26 1.14-.39 1.8-.39 1.16 0 2.03.28 2.62.84s.88 1.45.88 2.68v6.28h-1.46ZM242.31 264.03v-6.27c0-.77-.16-1.34-.49-1.73-.33-.38-.84-.58-1.53-.58-.91 0-1.58.26-2.01.78s-.65 1.32-.65 2.41v5.38h-1.46v-6.27c0-.77-.16-1.34-.49-1.73-.33-.38-.84-.58-1.54-.58-.91 0-1.58.27-2.01.82-.42.55-.64 1.45-.64 2.69V264h-1.46v-9.63h1.19l.24 1.32h.07c.28-.47.66-.83 1.16-1.1s1.06-.4 1.68-.4c1.51 0 2.49.54 2.95 1.63h.07c.29-.5.7-.9 1.25-1.2s1.17-.44 1.86-.44c1.09 0 1.91.28 2.45.84s.81 1.45.81 2.68v6.28h-1.46ZM252.7 264.03l-.29-1.37h-.07c-.48.6-.96 1.01-1.44 1.23-.48.21-1.07.32-1.79.32-.96 0-1.7-.25-2.25-.74s-.81-1.19-.81-2.1c0-1.95 1.56-2.96 4.67-3.06l1.63-.05v-.6c0-.76-.16-1.31-.49-1.67-.33-.36-.85-.54-1.56-.54-.8 0-1.71.25-2.72.74l-.45-1.12c.47-.26.99-.46 1.56-.61s1.13-.22 1.7-.22c1.15 0 2 .25 2.55.76s.83 1.33.83 2.45v6.57h-1.08Zm-3.3-1.03c.91 0 1.62-.25 2.14-.75s.78-1.2.78-2.09v-.87l-1.46.06c-1.16.04-2 .22-2.51.54s-.77.82-.77 1.49c0 .53.16.93.48 1.2s.77.41 1.34.41ZM258.23 259.1c.25-.36.64-.83 1.15-1.41l3.11-3.3h1.73l-3.9 4.1 4.17 5.53h-1.77l-3.4-4.55-1.1.95v3.6h-1.44v-13.68h1.44v7.25c0 .32-.02.82-.07 1.49h.07ZM270.31 264.21c-1.42 0-2.55-.43-3.37-1.3s-1.23-2.07-1.23-3.61.38-2.79 1.15-3.7 1.79-1.37 3.08-1.37c1.21 0 2.16.4 2.87 1.19s1.05 1.84 1.05 3.14v.92h-6.64c.03 1.13.31 1.99.86 2.58s1.31.88 2.29.88c1.04 0 2.06-.22 3.08-.65v1.3c-.52.22-1 .38-1.46.48-.46.1-1.02.14-1.67.14Zm-.4-8.76c-.77 0-1.39.25-1.85.76s-.73 1.2-.81 2.09h5.04c0-.92-.21-1.62-.62-2.11-.41-.49-1-.73-1.76-.73ZM282.93 264.03v-6.23c0-.79-.18-1.37-.54-1.76s-.92-.58-1.68-.58c-1.01 0-1.75.27-2.21.82s-.7 1.44-.7 2.7v5.05h-1.46v-9.63h1.19l.24 1.32h.07c.3-.47.72-.84 1.26-1.1.54-.26 1.14-.39 1.8-.39 1.16 0 2.03.28 2.62.84s.88 1.45.88 2.68v6.28h-1.46ZM93.81 287.08H91.9v2.95h-1.4v-2.95h-6.25v-1.27l6.1-8.69h1.55v8.64h1.91v1.33Zm-3.3-1.33v-4.27c0-.84.03-1.78.09-2.84h-.07c-.28.56-.54 1.03-.79 1.4l-4.02 5.71h4.79ZM95.5 289.1c0-.39.09-.69.27-.89.18-.2.44-.3.77-.3s.6.1.8.3c.19.2.29.5.29.89s-.1.67-.29.88-.46.31-.79.31c-.3 0-.55-.09-.74-.28-.2-.19-.29-.49-.29-.91ZM110.8 290.03h-7.16v-12.85h7.16v1.33h-5.67v4.14h5.33v1.32h-5.33v4.73h5.67v1.34ZM115.54 290.03l-3.66-9.63h1.56l2.07 5.71c.47 1.34.74 2.2.83 2.6h.07c.06-.31.27-.95.61-1.93.34-.97 1.11-3.1 2.31-6.38h1.56l-3.66 9.63h-1.71ZM128.37 290.03l-.29-1.37h-.07c-.48.6-.96 1.01-1.44 1.23-.48.21-1.07.32-1.79.32-.96 0-1.7-.25-2.25-.74s-.81-1.19-.81-2.1c0-1.95 1.56-2.96 4.67-3.06l1.63-.05v-.6c0-.76-.16-1.31-.49-1.67-.33-.36-.85-.54-1.56-.54-.8 0-1.71.25-2.72.74l-.45-1.12c.47-.26.99-.46 1.56-.61s1.13-.22 1.7-.22c1.15 0 2 .25 2.55.76s.83 1.33.83 2.45v6.57h-1.08Zm-3.3-1.03c.91 0 1.62-.25 2.14-.75s.78-1.2.78-2.09v-.87l-1.46.06c-1.16.04-2 .22-2.51.54s-.77.82-.77 1.49c0 .53.16.93.48 1.2s.77.41 1.34.41ZM133.92 290.03h-1.46v-13.68h1.46v13.68ZM138.38 280.4v6.25c0 .79.18 1.37.54 1.76s.92.58 1.68.58c1.01 0 1.74-.28 2.21-.83s.7-1.45.7-2.7v-5.06h1.46v9.63h-1.2l-.21-1.29h-.08c-.3.47-.71.84-1.24 1.09s-1.14.38-1.81.38c-1.17 0-2.05-.28-2.63-.83s-.87-1.45-.87-2.67v-6.3h1.48ZM152.13 290.21c-1.42 0-2.55-.43-3.37-1.3s-1.23-2.07-1.23-3.61.38-2.79 1.15-3.7 1.79-1.37 3.08-1.37c1.21 0 2.16.4 2.87 1.19s1.05 1.84 1.05 3.14v.92h-6.64c.03 1.13.31 1.99.86 2.58s1.31.88 2.29.88c1.04 0 2.06-.22 3.08-.65v1.3c-.52.22-1 .38-1.46.48-.46.1-1.02.14-1.67.14Zm-.4-8.76c-.77 0-1.39.25-1.85.76s-.73 1.2-.81 2.09h5.04c0-.92-.21-1.62-.62-2.11-.41-.49-1-.73-1.76-.73ZM162.55 280.22c.43 0 .81.04 1.15.11l-.2 1.35c-.4-.09-.75-.13-1.05-.13-.78 0-1.45.32-2 .95s-.83 1.42-.83 2.36v5.17h-1.46v-9.63h1.2l.17 1.78h.07c.36-.63.79-1.11 1.29-1.45s1.06-.51 1.66-.51ZM169.58 290.21c-1.42 0-2.55-.43-3.37-1.3s-1.23-2.07-1.23-3.61.38-2.79 1.15-3.7 1.79-1.37 3.08-1.37c1.21 0 2.16.4 2.87 1.19s1.05 1.84 1.05 3.14v.92h-6.64c.03 1.13.31 1.99.86 2.58s1.31.88 2.29.88c1.04 0 2.06-.22 3.08-.65v1.3c-.52.22-1 .38-1.46.48-.46.1-1.02.14-1.67.14Zm-.4-8.76c-.77 0-1.39.25-1.85.76s-.73 1.2-.81 2.09h5.04c0-.92-.21-1.62-.62-2.11-.41-.49-1-.73-1.76-.73ZM182.2 290.03v-6.23c0-.79-.18-1.37-.54-1.76s-.92-.58-1.68-.58c-1.01 0-1.75.27-2.21.82s-.7 1.44-.7 2.7v5.05h-1.46v-9.63h1.19l.24 1.32h.07c.3-.47.72-.84 1.26-1.1.54-.26 1.14-.39 1.8-.39 1.16 0 2.03.28 2.62.84s.88 1.45.88 2.68v6.28h-1.46ZM88.77 334.18c1.35 0 2.42.34 3.19 1.01s1.16 1.59 1.16 2.75c0 1.33-.42 2.37-1.27 3.13s-2.01 1.13-3.5 1.13-2.55-.23-3.31-.69v-1.41c.41.26.92.47 1.53.62.61.15 1.21.22 1.8.22 1.03 0 1.83-.24 2.4-.73s.86-1.19.86-2.11c0-1.79-1.1-2.69-3.3-2.69-.56 0-1.3.08-2.23.25l-.76-.48.48-6.01h6.39v1.34h-5.14l-.33 3.86c.67-.13 1.34-.2 2.01-.2ZM95.5 341.1c0-.39.09-.69.27-.89.18-.2.44-.3.77-.3s.6.1.8.3c.19.2.29.5.29.89s-.1.67-.29.88-.46.31-.79.31c-.3 0-.55-.09-.74-.28-.2-.19-.29-.49-.29-.91ZM109.33 342.03l-4.36-11.39h-.07c.08.9.12 1.97.12 3.22v8.17h-1.38v-12.85h2.25l4.07 10.6h.07l4.1-10.6h2.23v12.85h-1.49v-8.28c0-.95.04-1.98.12-3.09h-.07l-4.39 11.37h-1.2ZM121.04 332.4v6.25c0 .79.18 1.37.54 1.76s.92.58 1.68.58c1.01 0 1.74-.28 2.21-.83s.7-1.45.7-2.7v-5.06h1.46v9.63h-1.2l-.21-1.29h-.08c-.3.47-.71.84-1.24 1.09s-1.14.38-1.81.38c-1.17 0-2.05-.28-2.63-.83s-.87-1.45-.87-2.67v-6.3h1.48ZM132.18 342.03h-1.46v-13.68h1.46v13.68ZM138.38 341c.26 0 .51-.02.75-.06.24-.04.43-.08.57-.12v1.12c-.16.08-.39.14-.7.19-.31.05-.58.07-.83.07-1.86 0-2.79-.98-2.79-2.94v-5.73H134v-.7l1.38-.61.62-2.06h.84v2.23h2.79v1.13h-2.79v5.67c0 .58.14 1.03.41 1.34s.65.47 1.13.47ZM141.5 329.79c0-.33.08-.58.25-.73s.37-.23.62-.23.44.08.61.24.25.4.25.73-.08.57-.25.73c-.17.16-.37.24-.61.24a.86.86 0 0 1-.62-.24c-.16-.16-.25-.41-.25-.73Zm1.58 12.24h-1.46v-9.63h1.46v9.63ZM152.74 340.74h-.08c-.67.98-1.68 1.47-3.02 1.47-1.26 0-2.24-.43-2.94-1.29s-1.05-2.09-1.05-3.67.35-2.82 1.05-3.7 1.68-1.32 2.94-1.32 2.31.47 3.01 1.42h.11l-.06-.69-.04-.68v-3.92h1.46v13.68h-1.19l-.19-1.29Zm-2.92.25c1 0 1.72-.27 2.17-.81.45-.54.67-1.42.67-2.62v-.31c0-1.37-.23-2.34-.68-2.92-.45-.58-1.18-.87-2.18-.87-.86 0-1.51.33-1.96 1-.45.67-.68 1.6-.68 2.82s.23 2.16.68 2.79 1.11.94 1.99.94ZM157.09 329.79c0-.33.08-.58.25-.73s.37-.23.62-.23.44.08.61.24.25.4.25.73-.08.57-.25.73c-.17.16-.37.24-.61.24a.86.86 0 0 1-.62-.24c-.16-.16-.25-.41-.25-.73Zm1.58 12.24h-1.46v-9.63h1.46v9.63ZM167.98 339.4c0 .9-.33 1.59-1 2.07s-1.61.73-2.81.73c-1.28 0-2.27-.2-2.99-.61v-1.35c.46.23.96.42 1.49.55s1.04.2 1.53.2c.76 0 1.35-.12 1.76-.36s.62-.61.62-1.11c0-.38-.16-.7-.49-.96s-.96-.58-1.9-.95c-.9-.33-1.53-.62-1.91-.88-.38-.25-.66-.53-.84-.85s-.28-.69-.28-1.13c0-.79.32-1.4.96-1.86s1.51-.68 2.63-.68c1.04 0 2.05.21 3.04.63l-.52 1.19c-.97-.4-1.84-.6-2.63-.6-.69 0-1.21.11-1.56.33s-.53.52-.53.9c0 .26.07.48.2.66s.34.35.64.52.86.4 1.69.71c1.14.42 1.91.83 2.32 1.26s.6.95.6 1.59ZM174.2 342.21c-1.39 0-2.47-.43-3.24-1.29s-1.15-2.07-1.15-3.64.39-2.86 1.16-3.74 1.88-1.32 3.32-1.32c.46 0 .93.05 1.39.15s.83.22 1.09.35l-.45 1.24c-.32-.13-.67-.24-1.05-.32s-.72-.13-1.01-.13c-1.96 0-2.94 1.25-2.94 3.74 0 1.18.24 2.09.72 2.72s1.19.95 2.12.95c.8 0 1.63-.17 2.47-.52v1.29c-.64.33-1.46.5-2.43.5ZM178.8 329.79c0-.33.08-.58.25-.73s.37-.23.62-.23.44.08.61.24.25.4.25.73-.08.57-.25.73c-.17.16-.37.24-.61.24a.86.86 0 0 1-.62-.24c-.16-.16-.25-.41-.25-.73Zm1.58 12.24h-1.46v-9.63h1.46v9.63ZM187.95 342.21c-.63 0-1.2-.12-1.72-.35-.52-.23-.95-.59-1.31-1.07h-.11c.07.56.11 1.1.11 1.6v3.96h-1.46v-13.96h1.19l.2 1.32h.07c.38-.53.81-.91 1.31-1.14s1.07-.35 1.71-.35c1.28 0 2.26.44 2.96 1.31s1.04 2.1 1.04 3.67-.35 2.81-1.06 3.69c-.71.88-1.69 1.31-2.94 1.31Zm-.21-8.75c-.98 0-1.7.27-2.14.82s-.67 1.41-.68 2.6v.33c0 1.35.23 2.32.68 2.91s1.17.87 2.17.87c.83 0 1.48-.34 1.96-1.01s.71-1.6.71-2.79-.24-2.12-.71-2.76c-.47-.64-1.14-.96-1.99-.96ZM195.96 342.03h-1.46v-13.68h1.46v13.68ZM198.93 329.79c0-.33.08-.58.25-.73s.37-.23.62-.23.44.08.61.24.25.4.25.73-.08.57-.25.73c-.17.16-.37.24-.61.24a.86.86 0 0 1-.62-.24c-.16-.16-.25-.41-.25-.73Zm1.58 12.24h-1.46v-9.63h1.46v9.63ZM210.2 342.03v-6.23c0-.79-.18-1.37-.54-1.76s-.92-.58-1.68-.58c-1.01 0-1.75.27-2.21.82s-.7 1.44-.7 2.7v5.05h-1.46v-9.63h1.19l.24 1.32h.07c.3-.47.72-.84 1.26-1.1.54-.26 1.14-.39 1.8-.39 1.16 0 2.03.28 2.62.84s.88 1.45.88 2.68v6.28h-1.46ZM220.58 342.03l-.29-1.37h-.07c-.48.6-.96 1.01-1.44 1.23-.48.21-1.07.32-1.79.32-.96 0-1.7-.25-2.25-.74s-.81-1.19-.81-2.1c0-1.95 1.56-2.96 4.67-3.06l1.63-.05v-.6c0-.76-.16-1.31-.49-1.67-.33-.36-.85-.54-1.56-.54-.8 0-1.71.25-2.72.74l-.45-1.12c.47-.26.99-.46 1.56-.61s1.13-.22 1.7-.22c1.15 0 2 .25 2.55.76s.83 1.33.83 2.45v6.57h-1.08Zm-3.3-1.03c.91 0 1.62-.25 2.14-.75s.78-1.2.78-2.09v-.87l-1.46.06c-1.16.04-2 .22-2.51.54s-.77.82-.77 1.49c0 .53.16.93.48 1.2s.77.41 1.34.41ZM224.54 329.79c0-.33.08-.58.25-.73s.37-.23.62-.23.44.08.61.24.25.4.25.73-.08.57-.25.73c-.17.16-.37.24-.61.24a.86.86 0 0 1-.62-.24c-.16-.16-.25-.41-.25-.73Zm1.58 12.24h-1.46v-9.63h1.46v9.63ZM233.61 332.22c.43 0 .81.04 1.15.11l-.2 1.35c-.4-.09-.75-.13-1.05-.13-.78 0-1.45.32-2 .95s-.83 1.42-.83 2.36v5.17h-1.46v-9.63h1.2l.17 1.78h.07c.36-.63.79-1.11 1.29-1.45s1.06-.51 1.66-.51ZM247.46 339.4c0 .9-.33 1.59-1 2.07s-1.61.73-2.81.73c-1.28 0-2.27-.2-2.99-.61v-1.35c.46.23.96.42 1.49.55s1.04.2 1.53.2c.76 0 1.35-.12 1.76-.36s.62-.61.62-1.11c0-.38-.16-.7-.49-.96s-.96-.58-1.9-.95c-.9-.33-1.53-.62-1.91-.88-.38-.25-.66-.53-.84-.85s-.28-.69-.28-1.13c0-.79.32-1.4.96-1.86s1.51-.68 2.63-.68c1.04 0 2.05.21 3.04.63l-.52 1.19c-.97-.4-1.84-.6-2.63-.6-.69 0-1.21.11-1.56.33s-.53.52-.53.9c0 .26.07.48.2.66s.34.35.64.52.86.4 1.69.71c1.14.42 1.91.83 2.32 1.26s.6.95.6 1.59ZM255.75 342.03l-.29-1.37h-.07c-.48.6-.96 1.01-1.44 1.23-.48.21-1.07.32-1.79.32-.96 0-1.7-.25-2.25-.74s-.81-1.19-.81-2.1c0-1.95 1.56-2.96 4.67-3.06l1.63-.05v-.6c0-.76-.16-1.31-.49-1.67-.33-.36-.85-.54-1.56-.54-.8 0-1.71.25-2.72.74l-.45-1.12c.47-.26.99-.46 1.56-.61s1.13-.22 1.7-.22c1.15 0 2 .25 2.55.76s.83 1.33.83 2.45v6.57h-1.08Zm-3.3-1.03c.91 0 1.62-.25 2.14-.75s.78-1.2.78-2.09v-.87l-1.46.06c-1.16.04-2 .22-2.51.54s-.77.82-.77 1.49c0 .53.16.93.48 1.2s.77.41 1.34.41ZM272.12 342.03v-6.27c0-.77-.16-1.34-.49-1.73-.33-.38-.84-.58-1.53-.58-.91 0-1.58.26-2.01.78s-.65 1.32-.65 2.41v5.38h-1.46v-6.27c0-.77-.16-1.34-.49-1.73-.33-.38-.84-.58-1.54-.58-.91 0-1.58.27-2.01.82-.42.55-.64 1.45-.64 2.69V342h-1.46v-9.63h1.19l.24 1.32h.07c.28-.47.66-.83 1.16-1.1s1.06-.4 1.68-.4c1.51 0 2.49.54 2.95 1.63h.07c.29-.5.7-.9 1.25-1.2s1.17-.44 1.86-.44c1.09 0 1.91.28 2.45.84s.81 1.45.81 2.68v6.28h-1.46ZM280.65 342.21c-1.42 0-2.55-.43-3.37-1.3s-1.23-2.07-1.23-3.61.38-2.79 1.15-3.7 1.79-1.37 3.08-1.37c1.21 0 2.16.4 2.87 1.19s1.05 1.84 1.05 3.14v.92h-6.64c.03 1.13.31 1.99.86 2.58s1.31.88 2.29.88c1.04 0 2.06-.22 3.08-.65v1.3c-.52.22-1 .38-1.46.48-.46.1-1.02.14-1.67.14Zm-.4-8.76c-.77 0-1.39.25-1.85.76s-.73 1.2-.81 2.09h5.04c0-.92-.21-1.62-.62-2.11-.41-.49-1-.73-1.76-.73ZM293.27 342.03v-6.23c0-.79-.18-1.37-.54-1.76s-.92-.58-1.68-.58c-1.01 0-1.75.27-2.21.82s-.7 1.44-.7 2.7v5.05h-1.46v-9.63h1.19l.24 1.32h.07c.3-.47.72-.84 1.26-1.1.54-.26 1.14-.39 1.8-.39 1.16 0 2.03.28 2.62.84s.88 1.45.88 2.68v6.28h-1.46ZM305.6 342.03l-1.77-5.65c-.11-.35-.32-1.13-.62-2.36h-.07c-.23 1.03-.44 1.82-.62 2.37l-1.82 5.63h-1.69l-2.63-9.63h1.53c.62 2.42 1.09 4.26 1.42 5.53s.51 2.12.56 2.56h.07c.06-.33.17-.77.31-1.3.14-.53.27-.95.37-1.26l1.77-5.53h1.58l1.72 5.53c.33 1.01.55 1.85.67 2.54h.07c.02-.21.09-.54.19-.98s.71-2.8 1.83-7.09h1.51l-2.66 9.63h-1.73ZM315.8 342.21c-1.42 0-2.55-.43-3.37-1.3s-1.23-2.07-1.23-3.61.38-2.79 1.15-3.7 1.79-1.37 3.08-1.37c1.21 0 2.16.4 2.87 1.19s1.05 1.84 1.05 3.14v.92h-6.64c.03 1.13.31 1.99.86 2.58s1.31.88 2.29.88c1.04 0 2.06-.22 3.08-.65v1.3c-.52.22-1 .38-1.46.48-.46.1-1.02.14-1.67.14Zm-.4-8.76c-.77 0-1.39.25-1.85.76s-.73 1.2-.81 2.09h5.04c0-.92-.21-1.62-.62-2.11-.41-.49-1-.73-1.76-.73ZM326.22 332.22c.43 0 .81.04 1.15.11l-.2 1.35c-.4-.09-.75-.13-1.05-.13-.78 0-1.45.32-2 .95s-.83 1.42-.83 2.36v5.17h-1.46v-9.63h1.2l.17 1.78h.07c.36-.63.79-1.11 1.29-1.45s1.06-.51 1.66-.51ZM330.62 337.1c.25-.36.64-.83 1.15-1.41l3.11-3.3h1.73l-3.9 4.1 4.17 5.53h-1.77l-3.4-4.55-1.1.95v3.6h-1.44v-13.68h1.44v7.25c0 .32-.02.82-.07 1.49h.07ZM342.69 342.21c-1.42 0-2.55-.43-3.37-1.3s-1.23-2.07-1.23-3.61.38-2.79 1.15-3.7 1.79-1.37 3.08-1.37c1.21 0 2.16.4 2.87 1.19s1.05 1.84 1.05 3.14v.92h-6.64c.03 1.13.31 1.99.86 2.58s1.31.88 2.29.88c1.04 0 2.06-.22 3.08-.65v1.3c-.52.22-1 .38-1.46.48-.46.1-1.02.14-1.67.14Zm-.4-8.76c-.77 0-1.39.25-1.85.76s-.73 1.2-.81 2.09h5.04c0-.92-.21-1.62-.62-2.11-.41-.49-1-.73-1.76-.73ZM355.31 342.03v-6.23c0-.79-.18-1.37-.54-1.76s-.92-.58-1.68-.58c-1.01 0-1.75.27-2.21.82s-.7 1.44-.7 2.7v5.05h-1.46v-9.63h1.19l.24 1.32h.07c.3-.47.72-.84 1.26-1.1.54-.26 1.14-.39 1.8-.39 1.16 0 2.03.28 2.62.84s.88 1.45.88 2.68v6.28h-1.46ZM84.9 362.54c0-2.53.49-4.41 1.47-5.67.98-1.25 2.43-1.88 4.35-1.88.66 0 1.18.06 1.56.17v1.26c-.45-.15-.97-.22-1.55-.22-1.38 0-2.43.43-3.16 1.29-.73.86-1.12 2.21-1.2 4.05h.11c.64-1.01 1.66-1.51 3.06-1.51 1.15 0 2.06.35 2.73 1.05s1 1.64 1 2.84c0 1.34-.36 2.39-1.09 3.15-.73.76-1.72 1.15-2.96 1.15-1.33 0-2.38-.5-3.16-1.5s-1.17-2.39-1.17-4.17Zm4.32 4.43c.83 0 1.48-.26 1.94-.79s.69-1.28.69-2.27c0-.85-.21-1.52-.64-2s-1.07-.73-1.92-.73c-.53 0-1.01.11-1.45.33s-.79.52-1.05.9-.39.78-.39 1.19c0 .6.12 1.17.35 1.69s.57.93 1 1.24.92.46 1.47.46ZM95.5 367.1c0-.39.09-.69.27-.89.18-.2.44-.3.77-.3s.6.1.8.3c.19.2.29.5.29.89s-.1.67-.29.88-.46.31-.79.31c-.3 0-.55-.09-.74-.28-.2-.19-.29-.49-.29-.91ZM109.33 368.03l-4.36-11.39h-.07c.08.9.12 1.97.12 3.22v8.17h-1.38v-12.85h2.25l4.07 10.6h.07l4.1-10.6h2.23v12.85h-1.49v-8.28c0-.95.04-1.98.12-3.09h-.07l-4.39 11.37h-1.2ZM125.6 368.03l-.29-1.37h-.07c-.48.6-.96 1.01-1.44 1.23-.48.21-1.07.32-1.79.32-.96 0-1.7-.25-2.25-.74s-.81-1.19-.81-2.1c0-1.95 1.56-2.96 4.67-3.06l1.63-.05v-.6c0-.76-.16-1.31-.49-1.67-.33-.36-.85-.54-1.56-.54-.8 0-1.71.25-2.72.74l-.45-1.12c.47-.26.99-.46 1.56-.61s1.13-.22 1.7-.22c1.15 0 2 .25 2.55.76s.83 1.33.83 2.45v6.57h-1.08Zm-3.3-1.03c.91 0 1.62-.25 2.14-.75s.78-1.2.78-2.09v-.87l-1.46.06c-1.16.04-2 .22-2.51.54s-.77.82-.77 1.49c0 .53.16.93.48 1.2s.77.41 1.34.41ZM136.27 368.03v-6.23c0-.79-.18-1.37-.54-1.76s-.92-.58-1.68-.58c-1.01 0-1.75.27-2.21.82s-.7 1.44-.7 2.7v5.05h-1.46v-9.63h1.19l.24 1.32h.07c.3-.47.72-.84 1.26-1.1.54-.26 1.14-.39 1.8-.39 1.16 0 2.03.28 2.62.84s.88 1.45.88 2.68v6.28h-1.46ZM140.61 355.79c0-.33.08-.58.25-.73s.37-.23.62-.23.44.08.61.24.25.4.25.73-.08.57-.25.73c-.17.16-.37.24-.61.24a.86.86 0 0 1-.62-.24c-.16-.16-.25-.41-.25-.73Zm1.58 12.24h-1.46v-9.63h1.46v9.63ZM149.62 359.53h-2.45v8.5h-1.46v-8.5h-1.72v-.66l1.72-.53v-.54c0-2.37 1.03-3.55 3.1-3.55.51 0 1.11.1 1.79.31l-.38 1.17c-.56-.18-1.04-.27-1.44-.27-.55 0-.96.18-1.22.55-.26.37-.4.95-.4 1.76v.62h2.45v1.13ZM155.45 368.21c-1.42 0-2.55-.43-3.37-1.3s-1.23-2.07-1.23-3.61.38-2.79 1.15-3.7 1.79-1.37 3.08-1.37c1.21 0 2.16.4 2.87 1.19s1.05 1.84 1.05 3.14v.92h-6.64c.03 1.13.31 1.99.86 2.58s1.31.88 2.29.88c1.04 0 2.06-.22 3.08-.65v1.3c-.52.22-1 .38-1.46.48-.46.1-1.02.14-1.67.14Zm-.4-8.76c-.77 0-1.39.25-1.85.76s-.73 1.2-.81 2.09h5.04c0-.92-.21-1.62-.62-2.11-.41-.49-1-.73-1.76-.73ZM167.69 365.4c0 .9-.33 1.59-1 2.07s-1.61.73-2.81.73c-1.28 0-2.27-.2-2.99-.61v-1.35c.46.23.96.42 1.49.55s1.04.2 1.53.2c.76 0 1.35-.12 1.76-.36s.62-.61.62-1.11c0-.38-.16-.7-.49-.96s-.96-.58-1.9-.95c-.9-.33-1.53-.62-1.91-.88-.38-.25-.66-.53-.84-.85s-.28-.69-.28-1.13c0-.79.32-1.4.96-1.86s1.51-.68 2.63-.68c1.04 0 2.05.21 3.04.63l-.52 1.19c-.97-.4-1.84-.6-2.63-.6-.69 0-1.21.11-1.56.33s-.53.52-.53.9c0 .26.07.48.2.66s.34.35.64.52.86.4 1.69.71c1.14.42 1.91.83 2.32 1.26s.6.95.6 1.59ZM173.18 367c.26 0 .51-.02.75-.06.24-.04.43-.08.57-.12v1.12c-.16.08-.39.14-.7.19-.31.05-.58.07-.83.07-1.86 0-2.79-.98-2.79-2.94v-5.73h-1.38v-.7l1.38-.61.62-2.06h.84v2.23h2.79v1.13h-2.79v5.67c0 .58.14 1.03.41 1.34s.65.47 1.13.47ZM180.49 368.21c-1.42 0-2.55-.43-3.37-1.3s-1.23-2.07-1.23-3.61.38-2.79 1.15-3.7 1.79-1.37 3.08-1.37c1.21 0 2.16.4 2.87 1.19s1.05 1.84 1.05 3.14v.92h-6.64c.03 1.13.31 1.99.86 2.58s1.31.88 2.29.88c1.04 0 2.06-.22 3.08-.65v1.3c-.52.22-1 .38-1.46.48-.46.1-1.02.14-1.67.14Zm-.4-8.76c-.77 0-1.39.25-1.85.76s-.73 1.2-.81 2.09h5.04c0-.92-.21-1.62-.62-2.11-.41-.49-1-.73-1.76-.73ZM190.92 358.22c.43 0 .81.04 1.15.11l-.2 1.35c-.4-.09-.75-.13-1.05-.13-.78 0-1.45.32-2 .95s-.83 1.42-.83 2.36v5.17h-1.46v-9.63h1.2l.17 1.78h.07c.36-.63.79-1.11 1.29-1.45s1.06-.51 1.66-.51ZM197.94 368.21c-1.42 0-2.55-.43-3.37-1.3s-1.23-2.07-1.23-3.61.38-2.79 1.15-3.7 1.79-1.37 3.08-1.37c1.21 0 2.16.4 2.87 1.19s1.05 1.84 1.05 3.14v.92h-6.64c.03 1.13.31 1.99.86 2.58s1.31.88 2.29.88c1.04 0 2.06-.22 3.08-.65v1.3c-.52.22-1 .38-1.46.48-.46.1-1.02.14-1.67.14Zm-.4-8.76c-.77 0-1.39.25-1.85.76s-.73 1.2-.81 2.09h5.04c0-.92-.21-1.62-.62-2.11-.41-.49-1-.73-1.76-.73ZM210.56 368.03v-6.23c0-.79-.18-1.37-.54-1.76s-.92-.58-1.68-.58c-1.01 0-1.75.27-2.21.82s-.7 1.44-.7 2.7v5.05h-1.46v-9.63h1.19l.24 1.32h.07c.3-.47.72-.84 1.26-1.1.54-.26 1.14-.39 1.8-.39 1.16 0 2.03.28 2.62.84s.88 1.45.88 2.68v6.28h-1.46ZM223.76 368.21c-1.42 0-2.55-.43-3.37-1.3s-1.23-2.07-1.23-3.61.38-2.79 1.15-3.7 1.79-1.37 3.08-1.37c1.21 0 2.16.4 2.87 1.19s1.05 1.84 1.05 3.14v.92h-6.64c.03 1.13.31 1.99.86 2.58s1.31.88 2.29.88c1.04 0 2.06-.22 3.08-.65v1.3c-.52.22-1 .38-1.46.48-.46.1-1.02.14-1.67.14Zm-.4-8.76c-.77 0-1.39.25-1.85.76s-.73 1.2-.81 2.09h5.04c0-.92-.21-1.62-.62-2.11-.41-.49-1-.73-1.76-.73ZM236.38 368.03v-6.23c0-.79-.18-1.37-.54-1.76s-.92-.58-1.68-.58c-1.01 0-1.75.27-2.21.82s-.7 1.44-.7 2.7v5.05h-1.46v-9.63h1.19l.24 1.32h.07c.3-.47.72-.84 1.26-1.1.54-.26 1.14-.39 1.8-.39 1.16 0 2.03.28 2.62.84s.88 1.45.88 2.68v6.28h-1.46ZM250 368.21c-.63 0-1.2-.12-1.72-.35-.52-.23-.95-.59-1.31-1.07h-.11c.07.56.11 1.1.11 1.6v3.96h-1.46v-13.96h1.19l.2 1.32h.07c.38-.53.81-.91 1.31-1.14s1.07-.35 1.71-.35c1.28 0 2.26.44 2.96 1.31s1.04 2.1 1.04 3.67-.35 2.81-1.06 3.69c-.71.88-1.69 1.31-2.94 1.31Zm-.21-8.75c-.98 0-1.7.27-2.14.82s-.67 1.41-.68 2.6v.33c0 1.35.23 2.32.68 2.91s1.17.87 2.17.87c.83 0 1.48-.34 1.96-1.01s.71-1.6.71-2.79-.24-2.12-.71-2.76c-.47-.64-1.14-.96-1.99-.96ZM260.94 358.22c.43 0 .81.04 1.15.11l-.2 1.35c-.4-.09-.75-.13-1.05-.13-.78 0-1.45.32-2 .95s-.83 1.42-.83 2.36v5.17h-1.46v-9.63h1.2l.17 1.78h.07c.36-.63.79-1.11 1.29-1.45s1.06-.51 1.66-.51ZM267.96 368.21c-1.42 0-2.55-.43-3.37-1.3s-1.23-2.07-1.23-3.61.38-2.79 1.15-3.7 1.79-1.37 3.08-1.37c1.21 0 2.16.4 2.87 1.19s1.05 1.84 1.05 3.14v.92h-6.64c.03 1.13.31 1.99.86 2.58s1.31.88 2.29.88c1.04 0 2.06-.22 3.08-.65v1.3c-.52.22-1 .38-1.46.48-.46.1-1.02.14-1.67.14Zm-.4-8.76c-.77 0-1.39.25-1.85.76s-.73 1.2-.81 2.09h5.04c0-.92-.21-1.62-.62-2.11-.41-.49-1-.73-1.76-.73ZM280.2 365.4c0 .9-.33 1.59-1 2.07s-1.61.73-2.81.73c-1.28 0-2.27-.2-2.99-.61v-1.35c.46.23.96.42 1.49.55s1.04.2 1.53.2c.76 0 1.35-.12 1.76-.36s.62-.61.62-1.11c0-.38-.16-.7-.49-.96s-.96-.58-1.9-.95c-.9-.33-1.53-.62-1.91-.88-.38-.25-.66-.53-.84-.85s-.28-.69-.28-1.13c0-.79.32-1.4.96-1.86s1.51-.68 2.63-.68c1.04 0 2.05.21 3.04.63l-.52 1.19c-.97-.4-1.84-.6-2.63-.6-.69 0-1.21.11-1.56.33s-.53.52-.53.9c0 .26.07.48.2.66s.34.35.64.52.86.4 1.69.71c1.14.42 1.91.83 2.32 1.26s.6.95.6 1.59ZM286.65 368.21c-1.42 0-2.55-.43-3.37-1.3s-1.23-2.07-1.23-3.61.38-2.79 1.15-3.7 1.79-1.37 3.08-1.37c1.21 0 2.16.4 2.87 1.19s1.05 1.84 1.05 3.14v.92h-6.64c.03 1.13.31 1.99.86 2.58s1.31.88 2.29.88c1.04 0 2.06-.22 3.08-.65v1.3c-.52.22-1 .38-1.46.48-.46.1-1.02.14-1.67.14Zm-.4-8.76c-.77 0-1.39.25-1.85.76s-.73 1.2-.81 2.09h5.04c0-.92-.21-1.62-.62-2.11-.41-.49-1-.73-1.76-.73ZM299.27 368.03v-6.23c0-.79-.18-1.37-.54-1.76s-.92-.58-1.68-.58c-1.01 0-1.75.27-2.21.82s-.7 1.44-.7 2.7v5.05h-1.46v-9.63h1.19l.24 1.32h.07c.3-.47.72-.84 1.26-1.1.54-.26 1.14-.39 1.8-.39 1.16 0 2.03.28 2.62.84s.88 1.45.88 2.68v6.28h-1.46ZM306.83 367c.26 0 .51-.02.75-.06.24-.04.43-.08.57-.12v1.12c-.16.08-.39.14-.7.19-.31.05-.58.07-.83.07-1.86 0-2.79-.98-2.79-2.94v-5.73h-1.38v-.7l1.38-.61.62-2.06h.84v2.23h2.79v1.13h-2.79v5.67c0 .58.14 1.03.41 1.34s.65.47 1.13.47ZM314.15 368.21c-1.42 0-2.55-.43-3.37-1.3s-1.23-2.07-1.23-3.61.38-2.79 1.15-3.7 1.79-1.37 3.08-1.37c1.21 0 2.16.4 2.87 1.19s1.05 1.84 1.05 3.14v.92h-6.64c.03 1.13.31 1.99.86 2.58s1.31.88 2.29.88c1.04 0 2.06-.22 3.08-.65v1.3c-.52.22-1 .38-1.46.48-.46.1-1.02.14-1.67.14Zm-.4-8.76c-.77 0-1.39.25-1.85.76s-.73 1.2-.81 2.09h5.04c0-.92-.21-1.62-.62-2.11-.41-.49-1-.73-1.76-.73ZM324.57 358.22c.43 0 .81.04 1.15.11l-.2 1.35c-.4-.09-.75-.13-1.05-.13-.78 0-1.45.32-2 .95s-.83 1.42-.83 2.36v5.17h-1.46v-9.63h1.2l.17 1.78h.07c.36-.63.79-1.11 1.29-1.45s1.06-.51 1.66-.51ZM331.59 368.21c-1.42 0-2.55-.43-3.37-1.3s-1.23-2.07-1.23-3.61.38-2.79 1.15-3.7 1.79-1.37 3.08-1.37c1.21 0 2.16.4 2.87 1.19s1.05 1.84 1.05 3.14v.92h-6.64c.03 1.13.31 1.99.86 2.58s1.31.88 2.29.88c1.04 0 2.06-.22 3.08-.65v1.3c-.52.22-1 .38-1.46.48-.46.1-1.02.14-1.67.14Zm-.4-8.76c-.77 0-1.39.25-1.85.76s-.73 1.2-.81 2.09h5.04c0-.92-.21-1.62-.62-2.11-.41-.49-1-.73-1.76-.73ZM344.21 368.03v-6.23c0-.79-.18-1.37-.54-1.76s-.92-.58-1.68-.58c-1.01 0-1.75.27-2.21.82s-.7 1.44-.7 2.7v5.05h-1.46v-9.63h1.19l.24 1.32h.07c.3-.47.72-.84 1.26-1.1.54-.26 1.14-.39 1.8-.39 1.16 0 2.03.28 2.62.84s.88 1.45.88 2.68v6.28h-1.46ZM86.38 394.03l5.33-11.5h-7v-1.34h8.55v1.17L88 394.04h-1.62ZM95.5 393.1c0-.39.09-.69.27-.89.18-.2.44-.3.77-.3s.6.1.8.3c.19.2.29.5.29.89s-.1.67-.29.88-.46.31-.79.31c-.3 0-.55-.09-.74-.28-.2-.19-.29-.49-.29-.91ZM103.64 394.03v-12.85h1.49v12.85h-1.49ZM115.03 394.03v-6.23c0-.79-.18-1.37-.54-1.76s-.92-.58-1.68-.58c-1.01 0-1.75.27-2.21.82s-.7 1.44-.7 2.7v5.05h-1.46v-9.63h1.19l.24 1.32h.07c.3-.47.72-.84 1.26-1.1.54-.26 1.14-.39 1.8-.39 1.16 0 2.03.28 2.62.84s.88 1.45.88 2.68v6.28h-1.46ZM119.36 381.79c0-.33.08-.58.25-.73s.37-.23.62-.23.44.08.61.24.25.4.25.73-.08.57-.25.73c-.17.16-.37.24-.61.24a.86.86 0 0 1-.62-.24c-.16-.16-.25-.41-.25-.73Zm1.58 12.24h-1.46v-9.63h1.46v9.63ZM127.15 393c.26 0 .51-.02.75-.06.24-.04.43-.08.57-.12v1.12c-.16.08-.39.14-.7.19-.31.05-.58.07-.83.07-1.86 0-2.79-.98-2.79-2.94v-5.73h-1.38v-.7l1.38-.61.62-2.06h.84v2.23h2.79v1.13h-2.79v5.67c0 .58.14 1.03.41 1.34s.65.47 1.13.47ZM130.27 381.79c0-.33.08-.58.25-.73s.37-.23.62-.23.44.08.61.24.25.4.25.73-.08.57-.25.73c-.17.16-.37.24-.61.24a.86.86 0 0 1-.62-.24c-.16-.16-.25-.41-.25-.73Zm1.58 12.24h-1.46v-9.63h1.46v9.63ZM139.02 394.21c-1.42 0-2.55-.43-3.37-1.3s-1.23-2.07-1.23-3.61.38-2.79 1.15-3.7 1.79-1.37 3.08-1.37c1.21 0 2.16.4 2.87 1.19s1.05 1.84 1.05 3.14v.92h-6.64c.03 1.13.31 1.99.86 2.58s1.31.88 2.29.88c1.04 0 2.06-.22 3.08-.65v1.3c-.52.22-1 .38-1.46.48-.46.1-1.02.14-1.67.14Zm-.4-8.76c-.77 0-1.39.25-1.85.76s-.73 1.2-.81 2.09H141c0-.92-.21-1.62-.62-2.11-.41-.49-1-.73-1.76-.73Zm-2.42-3.66c0-.3.08-.52.23-.66s.34-.2.56-.2.41.07.58.2.24.35.24.66-.08.51-.24.66-.35.21-.58.21-.4-.07-.56-.21-.23-.36-.23-.66Zm3.35 0c0-.3.08-.52.23-.66s.34-.2.56-.2.41.07.57.2.24.35.24.66-.08.51-.24.66-.35.21-.57.21-.4-.07-.56-.21-.23-.36-.23-.66ZM149.44 384.22c.43 0 .81.04 1.15.11l-.2 1.35c-.4-.09-.75-.13-1.05-.13-.78 0-1.45.32-2 .95s-.83 1.42-.83 2.36v5.17h-1.46v-9.63h1.2l.17 1.78h.07c.36-.63.79-1.11 1.29-1.45s1.06-.51 1.66-.51ZM156.46 394.21c-1.42 0-2.55-.43-3.37-1.3s-1.23-2.07-1.23-3.61.38-2.79 1.15-3.7 1.79-1.37 3.08-1.37c1.21 0 2.16.4 2.87 1.19s1.05 1.84 1.05 3.14v.92h-6.64c.03 1.13.31 1.99.86 2.58s1.31.88 2.29.88c1.04 0 2.06-.22 3.08-.65v1.3c-.52.22-1 .38-1.46.48-.46.1-1.02.14-1.67.14Zm-.4-8.76c-.77 0-1.39.25-1.85.76s-.73 1.2-.81 2.09h5.04c0-.92-.21-1.62-.62-2.11-.41-.49-1-.73-1.76-.73ZM169.08 394.03v-6.23c0-.79-.18-1.37-.54-1.76s-.92-.58-1.68-.58c-1.01 0-1.75.27-2.21.82s-.7 1.44-.7 2.7v5.05h-1.46v-9.63h1.19l.24 1.32h.07c.3-.47.72-.84 1.26-1.1.54-.26 1.14-.39 1.8-.39 1.16 0 2.03.28 2.62.84s.88 1.45.88 2.68v6.28h-1.46ZM182.28 394.21c-1.42 0-2.55-.43-3.37-1.3s-1.23-2.07-1.23-3.61.38-2.79 1.15-3.7 1.79-1.37 3.08-1.37c1.21 0 2.16.4 2.87 1.19s1.05 1.84 1.05 3.14v.92h-6.64c.03 1.13.31 1.99.86 2.58s1.31.88 2.29.88c1.04 0 2.06-.22 3.08-.65v1.3c-.52.22-1 .38-1.46.48-.46.1-1.02.14-1.67.14Zm-.4-8.76c-.77 0-1.39.25-1.85.76s-.73 1.2-.81 2.09h5.04c0-.92-.21-1.62-.62-2.11-.41-.49-1-.73-1.76-.73ZM194.91 394.03v-6.23c0-.79-.18-1.37-.54-1.76s-.92-.58-1.68-.58c-1.01 0-1.75.27-2.21.82s-.7 1.44-.7 2.7v5.05h-1.46v-9.63h1.19l.24 1.32h.07c.3-.47.72-.84 1.26-1.1.54-.26 1.14-.39 1.8-.39 1.16 0 2.03.28 2.62.84s.88 1.45.88 2.68v6.28h-1.46ZM208.43 384.22c.43 0 .81.04 1.15.11l-.2 1.35c-.4-.09-.75-.13-1.05-.13-.78 0-1.45.32-2 .95s-.83 1.42-.83 2.36v5.17h-1.46v-9.63h1.2l.17 1.78h.07c.36-.63.79-1.11 1.29-1.45s1.06-.51 1.66-.51ZM215.45 394.21c-1.42 0-2.55-.43-3.37-1.3s-1.23-2.07-1.23-3.61.38-2.79 1.15-3.7 1.79-1.37 3.08-1.37c1.21 0 2.16.4 2.87 1.19s1.05 1.84 1.05 3.14v.92h-6.64c.03 1.13.31 1.99.86 2.58s1.31.88 2.29.88c1.04 0 2.06-.22 3.08-.65v1.3c-.52.22-1 .38-1.46.48-.46.1-1.02.14-1.67.14Zm-.4-8.76c-.77 0-1.39.25-1.85.76s-.73 1.2-.81 2.09h5.04c0-.92-.21-1.62-.62-2.11-.41-.49-1-.73-1.76-.73ZM229.37 384.4v.92l-1.78.21c.16.21.31.47.44.8.13.33.19.71.19 1.12 0 .94-.32 1.7-.97 2.26s-1.53.84-2.65.84c-.29 0-.56-.02-.81-.07-.62.33-.93.74-.93 1.24 0 .26.11.46.33.58.22.13.59.19 1.12.19h1.71c1.04 0 1.84.22 2.4.66s.84 1.08.84 1.92c0 1.07-.43 1.88-1.28 2.44s-2.1.84-3.74.84c-1.26 0-2.23-.23-2.91-.7s-1.02-1.13-1.02-1.99c0-.59.19-1.09.56-1.52s.9-.72 1.58-.87c-.25-.11-.45-.28-.62-.52s-.25-.51-.25-.82c0-.35.09-.66.28-.92s.48-.52.89-.76c-.5-.21-.9-.55-1.22-1.05s-.47-1.05-.47-1.69c0-1.05.32-1.87.95-2.44.63-.57 1.53-.86 2.69-.86.5 0 .96.06 1.36.18h3.33Zm-7.68 11.25c0 .52.22.92.66 1.19s1.07.4 1.89.4c1.22 0 2.13-.18 2.72-.55s.88-.86.88-1.49c0-.52-.16-.88-.48-1.08-.32-.2-.93-.3-1.82-.3h-1.75c-.66 0-1.18.16-1.55.47s-.55.77-.55 1.36Zm.79-8.17c0 .67.19 1.18.57 1.53s.91.52 1.59.52c1.42 0 2.14-.69 2.14-2.07s-.72-2.17-2.16-2.17c-.69 0-1.21.18-1.58.55s-.55.92-.55 1.64ZM231.22 381.79c0-.33.08-.58.25-.73s.37-.23.62-.23.44.08.61.24.25.4.25.73-.08.57-.25.73c-.17.16-.37.24-.61.24a.86.86 0 0 1-.62-.24c-.16-.16-.25-.41-.25-.73Zm1.58 12.24h-1.46v-9.63h1.46v9.63ZM242.11 391.4c0 .9-.33 1.59-1 2.07s-1.61.73-2.81.73c-1.28 0-2.27-.2-2.99-.61v-1.35c.46.23.96.42 1.49.55s1.04.2 1.53.2c.76 0 1.35-.12 1.76-.36s.62-.61.62-1.11c0-.38-.16-.7-.49-.96s-.96-.58-1.9-.95c-.9-.33-1.53-.62-1.91-.88-.38-.25-.66-.53-.84-.85s-.28-.69-.28-1.13c0-.79.32-1.4.96-1.86s1.51-.68 2.63-.68c1.04 0 2.05.21 3.04.63l-.52 1.19c-.97-.4-1.84-.6-2.63-.6-.69 0-1.21.11-1.56.33s-.53.52-.53.9c0 .26.07.48.2.66s.34.35.64.52.86.4 1.69.71c1.14.42 1.91.83 2.32 1.26s.6.95.6 1.59ZM250.7 391.4c0 .9-.33 1.59-1 2.07s-1.61.73-2.81.73c-1.28 0-2.27-.2-2.99-.61v-1.35c.46.23.96.42 1.49.55s1.04.2 1.53.2c.76 0 1.35-.12 1.76-.36s.62-.61.62-1.11c0-.38-.16-.7-.49-.96s-.96-.58-1.9-.95c-.9-.33-1.53-.62-1.91-.88-.38-.25-.66-.53-.84-.85s-.28-.69-.28-1.13c0-.79.32-1.4.96-1.86s1.51-.68 2.63-.68c1.04 0 2.05.21 3.04.63l-.52 1.19c-.97-.4-1.84-.6-2.63-.6-.69 0-1.21.11-1.56.33s-.53.52-.53.9c0 .26.07.48.2.66s.34.35.64.52.86.4 1.69.71c1.14.42 1.91.83 2.32 1.26s.6.95.6 1.59ZM257.14 394.21c-1.42 0-2.55-.43-3.37-1.3s-1.23-2.07-1.23-3.61.38-2.79 1.15-3.7 1.79-1.37 3.08-1.37c1.21 0 2.16.4 2.87 1.19s1.05 1.84 1.05 3.14v.92h-6.64c.03 1.13.31 1.99.86 2.58s1.31.88 2.29.88c1.04 0 2.06-.22 3.08-.65v1.3c-.52.22-1 .38-1.46.48-.46.1-1.02.14-1.67.14Zm-.4-8.76c-.77 0-1.39.25-1.85.76s-.73 1.2-.81 2.09h5.04c0-.92-.21-1.62-.62-2.11-.41-.49-1-.73-1.76-.73ZM267.56 384.22c.43 0 .81.04 1.15.11l-.2 1.35c-.4-.09-.75-.13-1.05-.13-.78 0-1.45.32-2 .95s-.83 1.42-.83 2.36v5.17h-1.46v-9.63h1.2l.17 1.78h.07c.36-.63.79-1.11 1.29-1.45s1.06-.51 1.66-.51ZM274.59 394.21c-1.42 0-2.55-.43-3.37-1.3s-1.23-2.07-1.23-3.61.38-2.79 1.15-3.7 1.79-1.37 3.08-1.37c1.21 0 2.16.4 2.87 1.19s1.05 1.84 1.05 3.14v.92h-6.64c.03 1.13.31 1.99.86 2.58s1.31.88 2.29.88c1.04 0 2.06-.22 3.08-.65v1.3c-.52.22-1 .38-1.46.48-.46.1-1.02.14-1.67.14Zm-.4-8.76c-.77 0-1.39.25-1.85.76s-.73 1.2-.81 2.09h5.04c0-.92-.21-1.62-.62-2.11-.41-.49-1-.73-1.76-.73ZM287.21 394.03v-6.23c0-.79-.18-1.37-.54-1.76s-.92-.58-1.68-.58c-1.01 0-1.75.27-2.21.82s-.7 1.44-.7 2.7v5.05h-1.46v-9.63h1.19l.24 1.32h.07c.3-.47.72-.84 1.26-1.1.54-.26 1.14-.39 1.8-.39 1.16 0 2.03.28 2.62.84s.88 1.45.88 2.68v6.28h-1.46ZM89.01 407c1.17 0 2.1.27 2.79.82s1.03 1.3 1.03 2.26c0 .63-.2 1.21-.59 1.73s-1.02 1-1.88 1.42c1.04.5 1.78 1.02 2.22 1.57.44.55.66 1.18.66 1.9 0 1.07-.37 1.92-1.12 2.55s-1.76.95-3.06.95c-1.37 0-2.43-.3-3.16-.9s-1.11-1.45-1.11-2.55c0-1.47.9-2.62 2.69-3.44-.81-.46-1.39-.95-1.74-1.48s-.53-1.12-.53-1.78c0-.93.34-1.67 1.03-2.23.69-.55 1.61-.83 2.76-.83Zm-2.78 9.79c0 .7.24 1.25.73 1.64s1.18.59 2.06.59 1.55-.21 2.04-.62.73-.97.73-1.69c0-.57-.23-1.07-.69-1.52-.46-.44-1.25-.87-2.39-1.29-.87.38-1.51.79-1.9 1.24s-.59 1-.59 1.63Zm2.76-8.6c-.73 0-1.31.18-1.72.53s-.62.82-.62 1.41c0 .54.17 1 .52 1.39s.98.77 1.92 1.16c.84-.35 1.43-.73 1.78-1.13s.52-.88.52-1.42c0-.59-.21-1.06-.64-1.41s-1.01-.52-1.75-.52ZM95.5 419.1c0-.39.09-.69.27-.89.18-.2.44-.3.77-.3s.6.1.8.3c.19.2.29.5.29.89s-.1.67-.29.88-.46.31-.79.31c-.3 0-.55-.09-.74-.28-.2-.19-.29-.49-.29-.91ZM114.79 413.59c0 2.06-.52 3.67-1.56 4.85s-2.49 1.77-4.34 1.77-3.35-.58-4.38-1.74c-1.03-1.16-1.54-2.79-1.54-4.9s.52-3.71 1.55-4.86c1.03-1.15 2.5-1.73 4.39-1.73s3.29.59 4.32 1.76 1.56 2.79 1.56 4.85Zm-10.24 0c0 1.74.37 3.06 1.11 3.96s1.82 1.35 3.23 1.35 2.5-.45 3.23-1.34 1.09-2.22 1.09-3.96-.36-3.04-1.09-3.93-1.79-1.34-3.21-1.34-2.51.45-3.25 1.35c-.74.9-1.11 2.21-1.11 3.92ZM124.03 420.03v-6.23c0-.79-.18-1.37-.54-1.76s-.92-.58-1.68-.58c-1.01 0-1.75.27-2.21.82s-.7 1.44-.7 2.7v5.05h-1.46v-9.63h1.19l.24 1.32h.07c.3-.47.72-.84 1.26-1.1.54-.26 1.14-.39 1.8-.39 1.16 0 2.03.28 2.62.84s.88 1.45.88 2.68v6.28h-1.46ZM131.6 419c.26 0 .51-.02.75-.06.24-.04.43-.08.57-.12v1.12c-.16.08-.39.14-.7.19-.31.05-.58.07-.83.07-1.86 0-2.79-.98-2.79-2.94v-5.73h-1.38v-.7l1.38-.61.62-2.06h.84v2.23h2.79v1.13h-2.79v5.67c0 .58.14 1.03.41 1.34s.65.47 1.13.47ZM142.71 420.03l-1.77-5.65c-.11-.35-.32-1.13-.62-2.36h-.07c-.23 1.03-.44 1.82-.62 2.37l-1.82 5.63h-1.69l-2.63-9.63h1.53c.62 2.42 1.09 4.26 1.42 5.53s.51 2.12.56 2.56h.07c.06-.33.17-.77.31-1.3.14-.53.27-.95.37-1.26l1.77-5.53h1.58l1.72 5.53c.33 1.01.55 1.85.67 2.54h.07c.02-.21.09-.54.19-.98s.71-2.8 1.83-7.09h1.51l-2.66 9.63h-1.73ZM148.72 407.79c0-.33.08-.58.25-.73s.37-.23.62-.23.44.08.61.24.25.4.25.73-.08.57-.25.73c-.17.16-.37.24-.61.24a.86.86 0 0 1-.62-.24c-.16-.16-.25-.41-.25-.73Zm1.58 12.24h-1.46v-9.63h1.46v9.63ZM154.84 415.1c.25-.36.64-.83 1.15-1.41l3.11-3.3h1.73l-3.9 4.1 4.17 5.53h-1.77l-3.4-4.55-1.1.95v3.6h-1.44v-13.68h1.44v7.25c0 .32-.02.82-.07 1.49h.07ZM164.28 415.1c.25-.36.64-.83 1.15-1.41l3.11-3.3h1.73l-3.9 4.1 4.17 5.53h-1.77l-3.4-4.55-1.1.95v3.6h-1.44v-13.68h1.44v7.25c0 .32-.02.82-.07 1.49h.07ZM176.36 420.21c-1.42 0-2.55-.43-3.37-1.3s-1.23-2.07-1.23-3.61.38-2.79 1.15-3.7 1.79-1.37 3.08-1.37c1.21 0 2.16.4 2.87 1.19s1.05 1.84 1.05 3.14v.92h-6.64c.03 1.13.31 1.99.86 2.58s1.31.88 2.29.88c1.04 0 2.06-.22 3.08-.65v1.3c-.52.22-1 .38-1.46.48-.46.1-1.02.14-1.67.14Zm-.4-8.76c-.77 0-1.39.25-1.85.76s-.73 1.2-.81 2.09h5.04c0-.92-.21-1.62-.62-2.11-.41-.49-1-.73-1.76-.73ZM183.85 420.03h-1.46v-13.68h1.46v13.68ZM191.01 420.21c-1.42 0-2.55-.43-3.37-1.3s-1.23-2.07-1.23-3.61.38-2.79 1.15-3.7 1.79-1.37 3.08-1.37c1.21 0 2.16.4 2.87 1.19s1.05 1.84 1.05 3.14v.92h-6.64c.03 1.13.31 1.99.86 2.58s1.31.88 2.29.88c1.04 0 2.06-.22 3.08-.65v1.3c-.52.22-1 .38-1.46.48-.46.1-1.02.14-1.67.14Zm-.4-8.76c-.77 0-1.39.25-1.85.76s-.73 1.2-.81 2.09h5.04c0-.92-.21-1.62-.62-2.11-.41-.49-1-.73-1.76-.73ZM203.63 420.03v-6.23c0-.79-.18-1.37-.54-1.76s-.92-.58-1.68-.58c-1.01 0-1.75.27-2.21.82s-.7 1.44-.7 2.7v5.05h-1.46v-9.63h1.19l.24 1.32h.07c.3-.47.72-.84 1.26-1.1.54-.26 1.14-.39 1.8-.39 1.16 0 2.03.28 2.62.84s.88 1.45.88 2.68v6.28h-1.46ZM216.83 420.21c-1.42 0-2.55-.43-3.37-1.3s-1.23-2.07-1.23-3.61.38-2.79 1.15-3.7 1.79-1.37 3.08-1.37c1.21 0 2.16.4 2.87 1.19s1.05 1.84 1.05 3.14v.92h-6.64c.03 1.13.31 1.99.86 2.58s1.31.88 2.29.88c1.04 0 2.06-.22 3.08-.65v1.3c-.52.22-1 .38-1.46.48-.46.1-1.02.14-1.67.14Zm-.4-8.76c-.77 0-1.39.25-1.85.76s-.73 1.2-.81 2.09h5.04c0-.92-.21-1.62-.62-2.11-.41-.49-1-.73-1.76-.73ZM229.46 420.03v-6.23c0-.79-.18-1.37-.54-1.76s-.92-.58-1.68-.58c-1.01 0-1.75.27-2.21.82s-.7 1.44-.7 2.7v5.05h-1.46v-9.63h1.19l.24 1.32h.07c.3-.47.72-.84 1.26-1.1.54-.26 1.14-.39 1.8-.39 1.16 0 2.03.28 2.62.84s.88 1.45.88 2.68v6.28h-1.46ZM242.98 410.22c.43 0 .81.04 1.15.11l-.2 1.35c-.4-.09-.75-.13-1.05-.13-.78 0-1.45.32-2 .95s-.83 1.42-.83 2.36v5.17h-1.46v-9.63h1.2l.17 1.78h.07c.36-.63.79-1.11 1.29-1.45s1.06-.51 1.66-.51ZM250 420.21c-1.42 0-2.55-.43-3.37-1.3s-1.23-2.07-1.23-3.61.38-2.79 1.15-3.7 1.79-1.37 3.08-1.37c1.21 0 2.16.4 2.87 1.19s1.05 1.84 1.05 3.14v.92h-6.64c.03 1.13.31 1.99.86 2.58s1.31.88 2.29.88c1.04 0 2.06-.22 3.08-.65v1.3c-.52.22-1 .38-1.46.48-.46.1-1.02.14-1.67.14Zm-.4-8.76c-.77 0-1.39.25-1.85.76s-.73 1.2-.81 2.09h5.04c0-.92-.21-1.62-.62-2.11-.41-.49-1-.73-1.76-.73ZM260.38 411.53h-2.45v8.5h-1.46v-8.5h-1.72v-.66l1.72-.53v-.54c0-2.37 1.03-3.55 3.1-3.55.51 0 1.11.1 1.79.31l-.38 1.17c-.56-.18-1.04-.27-1.44-.27-.55 0-.96.18-1.22.55-.26.37-.4.95-.4 1.76v.62h2.45v1.13Zm3.22 8.5h-1.46v-13.68h1.46v13.68ZM270.76 420.21c-1.42 0-2.55-.43-3.37-1.3s-1.23-2.07-1.23-3.61.38-2.79 1.15-3.7 1.79-1.37 3.08-1.37c1.21 0 2.16.4 2.87 1.19s1.05 1.84 1.05 3.14v.92h-6.64c.03 1.13.31 1.99.86 2.58s1.31.88 2.29.88c1.04 0 2.06-.22 3.08-.65v1.3c-.52.22-1 .38-1.46.48-.46.1-1.02.14-1.67.14Zm-.4-8.76c-.77 0-1.39.25-1.85.76s-.73 1.2-.81 2.09h5.04c0-.92-.21-1.62-.62-2.11-.41-.49-1-.73-1.76-.73ZM280.63 420.21c-1.39 0-2.47-.43-3.24-1.29s-1.15-2.07-1.15-3.64.39-2.86 1.16-3.74 1.88-1.32 3.32-1.32c.46 0 .93.05 1.39.15s.83.22 1.09.35l-.45 1.24c-.32-.13-.67-.24-1.05-.32s-.72-.13-1.01-.13c-1.96 0-2.94 1.25-2.94 3.74 0 1.18.24 2.09.72 2.72s1.19.95 2.12.95c.8 0 1.63-.17 2.47-.52v1.29c-.64.33-1.46.5-2.43.5ZM288.47 419c.26 0 .51-.02.75-.06.24-.04.43-.08.57-.12v1.12c-.16.08-.39.14-.7.19-.31.05-.58.07-.83.07-1.86 0-2.79-.98-2.79-2.94v-5.73h-1.38v-.7l1.38-.61.62-2.06h.84v2.23h2.79v1.13h-2.79v5.67c0 .58.14 1.03.41 1.34s.65.47 1.13.47ZM295.78 420.21c-1.42 0-2.55-.43-3.37-1.3s-1.23-2.07-1.23-3.61.38-2.79 1.15-3.7 1.79-1.37 3.08-1.37c1.21 0 2.16.4 2.87 1.19s1.05 1.84 1.05 3.14v.92h-6.64c.03 1.13.31 1.99.86 2.58s1.31.88 2.29.88c1.04 0 2.06-.22 3.08-.65v1.3c-.52.22-1 .38-1.46.48-.46.1-1.02.14-1.67.14Zm-.4-8.76c-.77 0-1.39.25-1.85.76s-.73 1.2-.81 2.09h5.04c0-.92-.21-1.62-.62-2.11-.41-.49-1-.73-1.76-.73ZM306.2 410.22c.43 0 .81.04 1.15.11l-.2 1.35c-.4-.09-.75-.13-1.05-.13-.78 0-1.45.32-2 .95s-.83 1.42-.83 2.36v5.17h-1.46v-9.63h1.2l.17 1.78h.07c.36-.63.79-1.11 1.29-1.45s1.06-.51 1.66-.51ZM313.22 420.21c-1.42 0-2.55-.43-3.37-1.3s-1.23-2.07-1.23-3.61.38-2.79 1.15-3.7 1.79-1.37 3.08-1.37c1.21 0 2.16.4 2.87 1.19s1.05 1.84 1.05 3.14v.92h-6.64c.03 1.13.31 1.99.86 2.58s1.31.88 2.29.88c1.04 0 2.06-.22 3.08-.65v1.3c-.52.22-1 .38-1.46.48-.46.1-1.02.14-1.67.14Zm-.4-8.76c-.77 0-1.39.25-1.85.76s-.73 1.2-.81 2.09h5.04c0-.92-.21-1.62-.62-2.11-.41-.49-1-.73-1.76-.73ZM325.85 420.03v-6.23c0-.79-.18-1.37-.54-1.76s-.92-.58-1.68-.58c-1.01 0-1.75.27-2.21.82s-.7 1.44-.7 2.7v5.05h-1.46v-9.63h1.19l.24 1.32h.07c.3-.47.72-.84 1.26-1.1.54-.26 1.14-.39 1.8-.39 1.16 0 2.03.28 2.62.84s.88 1.45.88 2.68v6.28h-1.46ZM93.2 438.67c0 5.03-1.95 7.54-5.84 7.54-.68 0-1.22-.06-1.62-.18v-1.26c.47.15 1 .23 1.6.23 1.41 0 2.47-.43 3.19-1.31.72-.87 1.11-2.2 1.17-4h-.11c-.32.49-.75.86-1.28 1.11-.53.25-1.13.38-1.8.38-1.14 0-2.04-.34-2.71-1.02s-1-1.63-1-2.85c0-1.34.37-2.39 1.12-3.16s1.73-1.16 2.95-1.16c.87 0 1.64.22 2.29.67.65.45 1.16 1.1 1.51 1.96.35.86.53 1.87.53 3.04Zm-4.32-4.42c-.84 0-1.49.27-1.94.81s-.69 1.29-.69 2.25c0 .84.21 1.51.63 1.99.42.48 1.06.72 1.92.72.53 0 1.02-.11 1.47-.33s.8-.51 1.06-.89.39-.77.39-1.18c0-.62-.12-1.18-.36-1.71s-.58-.93-1.01-1.23-.92-.45-1.48-.45ZM95.5 445.1c0-.39.09-.69.27-.89.18-.2.44-.3.77-.3s.6.1.8.3c.19.2.29.5.29.89s-.1.67-.29.88-.46.31-.79.31c-.3 0-.55-.09-.74-.28-.2-.19-.29-.49-.29-.91ZM114.79 439.59c0 2.06-.52 3.67-1.56 4.85s-2.49 1.77-4.34 1.77-3.35-.58-4.38-1.74c-1.03-1.16-1.54-2.79-1.54-4.9s.52-3.71 1.55-4.86c1.03-1.15 2.5-1.73 4.39-1.73s3.29.59 4.32 1.76 1.56 2.79 1.56 4.85Zm-10.24 0c0 1.74.37 3.06 1.11 3.96s1.82 1.35 3.23 1.35 2.5-.45 3.23-1.34 1.09-2.22 1.09-3.96-.36-3.04-1.09-3.93-1.79-1.34-3.21-1.34-2.51.45-3.25 1.35c-.74.9-1.11 2.21-1.11 3.92ZM124.03 446.03v-6.23c0-.79-.18-1.37-.54-1.76s-.92-.58-1.68-.58c-1.01 0-1.75.27-2.21.82s-.7 1.44-.7 2.7v5.05h-1.46v-9.63h1.19l.24 1.32h.07c.3-.47.72-.84 1.26-1.1.54-.26 1.14-.39 1.8-.39 1.16 0 2.03.28 2.62.84s.88 1.45.88 2.68v6.28h-1.46ZM135.04 444.74h-.08c-.67.98-1.68 1.47-3.02 1.47-1.26 0-2.24-.43-2.94-1.29s-1.05-2.09-1.05-3.67.35-2.82 1.05-3.7 1.68-1.32 2.94-1.32 2.31.47 3.01 1.42h.11l-.06-.69-.04-.68v-3.92h1.46v13.68h-1.19l-.19-1.29Zm-2.92.25c1 0 1.72-.27 2.17-.81.45-.54.67-1.42.67-2.62v-.31c0-1.37-.23-2.34-.68-2.92-.45-.58-1.18-.87-2.18-.87-.86 0-1.51.33-1.96 1-.45.67-.68 1.6-.68 2.82s.23 2.16.68 2.79 1.11.94 1.99.94ZM143.59 446.21c-1.42 0-2.55-.43-3.37-1.3s-1.23-2.07-1.23-3.61.38-2.79 1.15-3.7 1.79-1.37 3.08-1.37c1.21 0 2.16.4 2.87 1.19s1.05 1.84 1.05 3.14v.92h-6.64c.03 1.13.31 1.99.86 2.58s1.31.88 2.29.88c1.04 0 2.06-.22 3.08-.65v1.3c-.52.22-1 .38-1.46.48-.46.1-1.02.14-1.67.14Zm-.4-8.76c-.77 0-1.39.25-1.85.76s-.73 1.2-.81 2.09h5.04c0-.92-.21-1.62-.62-2.11-.41-.49-1-.73-1.76-.73ZM154.01 436.22c.43 0 .81.04 1.15.11l-.2 1.35c-.4-.09-.75-.13-1.05-.13-.78 0-1.45.32-2 .95s-.83 1.42-.83 2.36v5.17h-1.46v-9.63h1.2l.17 1.78h.07c.36-.63.79-1.11 1.29-1.45s1.06-.51 1.66-.51ZM163.12 446.03h-6.99v-.99l5.26-7.51h-4.93v-1.13h6.53v1.13l-5.19 7.37h5.32v1.13ZM173.7 441.21c0 1.57-.4 2.8-1.19 3.68s-1.88 1.32-3.28 1.32c-.86 0-1.63-.2-2.29-.61s-1.18-.98-1.55-1.74-.54-1.64-.54-2.65c0-1.57.39-2.79 1.18-3.67s1.88-1.31 3.27-1.31 2.42.45 3.21 1.34 1.19 2.11 1.19 3.64Zm-7.34 0c0 1.23.25 2.17.74 2.81s1.22.97 2.17.97 1.68-.32 2.18-.96c.5-.64.74-1.58.74-2.82s-.25-2.15-.74-2.79-1.23-.95-2.19-.95-1.68.31-2.16.94-.73 1.56-.73 2.8ZM180.32 446.21c-1.42 0-2.55-.43-3.37-1.3s-1.23-2.07-1.23-3.61.38-2.79 1.15-3.7 1.79-1.37 3.08-1.37c1.21 0 2.16.4 2.87 1.19s1.05 1.84 1.05 3.14v.92h-6.64c.03 1.13.31 1.99.86 2.58s1.31.88 2.29.88c1.04 0 2.06-.22 3.08-.65v1.3c-.52.22-1 .38-1.46.48-.46.1-1.02.14-1.67.14Zm-.4-8.76c-.77 0-1.39.25-1.85.76s-.73 1.2-.81 2.09h5.04c0-.92-.21-1.62-.62-2.11-.41-.49-1-.73-1.76-.73ZM187.8 441.1c.25-.36.64-.83 1.15-1.41l3.11-3.3h1.73l-3.9 4.1 4.17 5.53h-1.77l-3.4-4.55-1.1.95v3.6h-1.44v-13.68h1.44v7.25c0 .32-.02.82-.07 1.49h.07ZM199.87 446.21c-1.42 0-2.55-.43-3.37-1.3s-1.23-2.07-1.23-3.61.38-2.79 1.15-3.7 1.79-1.37 3.08-1.37c1.21 0 2.16.4 2.87 1.19s1.05 1.84 1.05 3.14v.92h-6.64c.03 1.13.31 1.99.86 2.58s1.31.88 2.29.88c1.04 0 2.06-.22 3.08-.65v1.3c-.52.22-1 .38-1.46.48-.46.1-1.02.14-1.67.14Zm-.4-8.76c-.77 0-1.39.25-1.85.76s-.73 1.2-.81 2.09h5.04c0-.92-.21-1.62-.62-2.11-.41-.49-1-.73-1.76-.73ZM212.49 446.03v-6.23c0-.79-.18-1.37-.54-1.76s-.92-.58-1.68-.58c-1.01 0-1.75.27-2.21.82s-.7 1.44-.7 2.7v5.05h-1.46v-9.63h1.19l.24 1.32h.07c.3-.47.72-.84 1.26-1.1.54-.26 1.14-.39 1.8-.39 1.16 0 2.03.28 2.62.84s.88 1.45.88 2.68v6.28h-1.46Z"/>
  </g>
  <text transform="translate(232.54 62.99)" font-family="OpenSans-Bold,'Open Sans'" font-size="36" fill="#fff"><tspan x="0" y="0">competentieprofiel </tspan></text>
  <text transform="translate(430 212.03)" font-family="OpenSans,'Open Sans'" font-size="18"><tspan x="0" y="0">1. Orinteren en begrijpen</tspan><tspan x="0" y="26">2. Verbeelden en conceptualiseren</tspan><tspan x="0" y="52">3. Uitwerken en Prototypen</tspan><tspan x="0" y="78">4. Evalueren</tspan><tspan x="0" y="130">5. Samen ontwerpen</tspan><tspan x="0" y="156">6. Persoonlijk en gengageerd ontwerpen</tspan><tspan x="0" y="182">7. Georganiseerd en </tspan><tspan x="0" y="208" xml:space="preserve">     professioneel ontwerpen</tspan><tspan x="0" y="234">8. Vakkundig en onderzoekend ontwerpen</tspan></text>
  <g>
    <path class="cls-7" d="M65 309h2.83"/>
    <path fill="none" stroke="#000" stroke-miterlimit="10" stroke-dasharray="0 0 5.67 5.67" d="M73.51 309h700.82"/>
    <path class="cls-7" d="M777.17 309H780"/>
  </g>
</svg>
