<svg id="Layer_1" xmlns="http://www.w3.org/2000/svg" viewBox="0 0 2521 359">
  <defs>
    <style>
      .cls-3{fill:#fff;font-family:OpenSans-Semibold,&apos;Open Sans&apos;;font-size:16px;font-weight:700}.cls-4{stroke-width:1.42px}.cls-4,.cls-5{fill:none;stroke:#000;stroke-miterlimit:10}.cls-6{font-family:OpenSans-Bold,&apos;Open Sans&apos;;font-size:18px}
    </style>
  </defs>
  <path fill="#fff021" d="M545 150h1937v65H545z"/>
  <path fill="#faf0d7" d="M96.5 149.5h448v65h-448z"/>
  <path d="M2482 150.32V214H98v-63.68h2384m1-1H97V215h2386v-65.68Z"/>
  <path class="cls-5" d="M245.5 149v66M394.5 149v66M2182.5 149v66M2033.5 149v66M1884.5 149v66M1735.5 149v66M1586.5 149v66M1437.5 149v66M1288.5 149v66M1139.5 149v66M990.5 149v66M841.5 149v66M692.5 149v66M543.5 149v66M2331.5 149v66"/>
  <text class="cls-6" transform="translate(128.13 185.38)"><tspan x="0" y="0">week -3</tspan></text>
  <text class="cls-6" transform="translate(1601 185.38)"><tspan x="0" y="0">week 11 &amp; 12</tspan></text>
  <text class="cls-6" transform="translate(1467.72 185.38)"><tspan x="0" y="0">week 10</tspan></text>
  <text class="cls-6" transform="translate(1327.21 185.38)"><tspan x="0" y="0">week 9</tspan></text>
  <text class="cls-6" transform="translate(1155 184.38)"><tspan x="0" y="0">week 4 t/m 8</tspan></text>
  <text class="cls-6" transform="translate(1025.19 185.38)"><tspan x="0" y="0">week 3</tspan></text>
  <text class="cls-6" transform="translate(875.68 185.38)"><tspan x="0" y="0">week 2</tspan></text>
  <text class="cls-6" transform="translate(731.17 185.38)"><tspan x="0" y="0">week 1</tspan></text>
  <text class="cls-6" transform="translate(581.66 185.38)"><tspan x="0" y="0">week 0</tspan></text>
  <text class="cls-6" transform="translate(429.15 185.38)"><tspan x="0" y="0">week -1</tspan></text>
  <text class="cls-6" transform="translate(2065.76 185.38)"><tspan x="0" y="0">week 18</tspan></text>
  <text class="cls-6" transform="translate(2364.78 185.38)"><tspan x="0" y="0">week 20</tspan></text>
  <text class="cls-6" transform="translate(279.64 185.38)"><tspan x="0" y="0">week -2</tspan></text>
  <text class="cls-6" transform="translate(1753 185.38)"><tspan x="0" y="0">week 13 &amp; 14</tspan></text>
  <text class="cls-6" transform="translate(1892 185.38)"><tspan x="0" y="0">week 15 t/m 17</tspan></text>
  <text class="cls-6" transform="translate(2215.27 185.38)"><tspan x="0" y="0">week 19</tspan></text>
  <path d="M209.89 290h213v43h-213z"/>
  <g>
    <path d="M2450.54 94.42a.79.79 0 0 0-1.35-.55c-.91.94-4.53 4.01-12.78 4.01-1.92 0-3.77-.16-5.5-.48l.2-10.88-.1-.16c-.12-.2-3.04-4.83-13.48-4.83s-13.33 5.78-13.44 6.02l-.06.13v28.49l.02-.01v32.81h1.32v-34.06c.39-.32 1.31-.99 2.79-1.66 1.87-.84 5.06-1.85 9.59-1.85 1.37 0 2.61.1 3.71.26v11.87l.06.13c.13.27 3.22 6.49 14.66 6.49s14.58-5 14.71-5.21l.1-.16-.46-30.37Zm-45.17 18.84v-25.3c.22-.38.92-1.43 2.39-2.48 1.68-1.2 4.75-2.64 9.78-2.64 8.61 0 11.68 3.33 12.25 4.06l-.48 26.34c-1.73-1.29-5.32-3.17-11.56-3.17-6.6 0-10.58 1.99-12.38 3.19Zm30.82 15.58c-5.53 0-8.9-1.57-10.76-2.88-1.38-.98-2.15-1.97-2.49-2.49 2.04-.87 7.55-3.44 7.61-5.66 0-.21 0-.41.01-.6 0-.24.01-.59.02-1.1v-.08l.32-17.31c1.75.31 3.6.47 5.52.47 2.58 0 4.74-.29 6.53-.73a.935.935 0 0 0 1.66-.48c2.21-.74 3.71-1.67 4.62-2.39l.02 1.35c-.49.03-.87.44-.87.93s.4.92.9.94l.38 25.58c-.6.77-3.96 4.44-13.48 4.44Z"/>
    <path d="M2435.23 99.77a.939.939 0 1 0 0 1.88.939.939 0 1 0 0-1.88ZM2440.86 99.77a.939.939 0 1 0 0 1.88.939.939 0 1 0 0-1.88ZM2446.5 99.77a.939.939 0 1 0 0 1.88.939.939 0 1 0 0-1.88ZM2432.41 102.59a.939.939 0 1 0 0 1.88.939.939 0 1 0 0-1.88ZM2438.04 102.59a.939.939 0 1 0 0 1.88.939.939 0 1 0 0-1.88ZM2443.68 102.59a.939.939 0 1 0 0 1.88.939.939 0 1 0 0-1.88ZM2435.23 105.41a.939.939 0 1 0 0 1.88.939.939 0 1 0 0-1.88ZM2440.86 105.41a.939.939 0 1 0 0 1.88.939.939 0 1 0 0-1.88ZM2435.23 111.05a.939.939 0 1 0 0 1.88.939.939 0 1 0 0-1.88Z"/>
    <circle cx="2432.41" cy="109.17" r=".94"/>
    <path d="M2438.04 108.23a.939.939 0 1 0 0 1.88.939.939 0 1 0 0-1.88ZM2432.41 113.87a.939.939 0 1 0 0 1.88.939.939 0 1 0 0-1.88Z"/>
  </g>
  <path class="cls-4" d="M316.39 214v75M2406.25 214v75"/>
  <g>
    <path d="M2294.25 290h213v43h-213z"/>
    <text class="cls-3" transform="translate(2338.18 307.09)"><tspan x="0" y="0">Eindpresentatie </tspan><tspan x="0" y="19.2">+ promovideo</tspan></text>
  </g>
  <g>
    <path d="M61.25 31h213v43h-213z"/>
    <path class="cls-4" d="M167.75 73v75"/>
    <text class="cls-3" transform="translate(76 57.16)"><tspan x="0" y="0">Afstudeervaardigheden</tspan></text>
  </g>
  <g>
    <path d="M514.22 31h213v43h-213z"/>
    <path class="cls-4" d="M620.72 73v75"/>
    <text class="cls-3" transform="translate(566.89 57.16)"><tspan x="0" y="0">Speeddaten</tspan></text>
  </g>
  <g>
    <path d="M958.22 31h213v43h-213z"/>
    <path class="cls-4" d="M1064.72 75v75"/>
    <text class="cls-3" transform="translate(1013.89 55.62)"><tspan x="0" y="0">Design Brief</tspan></text>
  </g>
  <g>
    <path d="M1406.89 31h213v43h-213z"/>
    <path class="cls-4" d="M1513.39 75v75"/>
    <text class="cls-3" transform="translate(1478.05 57.62)"><tspan x="0" y="0">Reflectie</tspan></text>
  </g>
  <g>
    <path d="M2004.55 31h213v43h-213z"/>
    <path class="cls-4" d="M2111.05 74v75"/>
    <text class="cls-3" transform="translate(2049.22 57.62)"><tspan x="0" y="0">Eindoplevering</tspan></text>
  </g>
  <text class="cls-3" transform="translate(254.55 316.62)"><tspan x="0" y="0">Projectvoorstel</tspan></text>
  <g>
    <path d="M660.89 288h213v43h-213z"/>
    <path class="cls-4" d="M767.39 215v75"/>
    <text class="cls-3" transform="translate(730.55 315.62)"><tspan x="0" y="0">Kick Off</tspan></text>
  </g>
  <g>
    <path d="M1254 290h213v43h-213z"/>
    <path class="cls-4" d="M1361.5 215v75"/>
    <text class="cls-3" transform="translate(1289.16 319.62)"><tspan x="0" y="0">Feedback Frenzy</tspan></text>
  </g>
  <g>
    <path d="M1705.72 290h213v43h-213z"/>
    <path class="cls-4" d="M1812.22 215v75"/>
    <text class="cls-3" transform="translate(1764.89 317.62)"><tspan x="0" y="0">Groen Licht</tspan></text>
  </g>
</svg>
